SplineFontDB: 3.0
FontName: Valley
FullName: Valley
FamilyName: Valley
Weight: Medium
Copyright: Copyright (c) 2009 Barry Schwartz\n\nPermission is hereby granted, free of charge, to any person obtaining a copy\nof this software and associated documentation files (the "Software"), to deal\nin the Software without restriction, including without limitation the rights\nto use, copy, modify, merge, publish, distribute, sublicense, and/or sell\ncopies of the Software, and to permit persons to whom the Software is\nfurnished to do so, subject to the following conditions:\n\nThe above copyright notice and this permission notice shall be included in\nall copies or substantial portions of the Software.\n\nTHE SOFTWARE IS PROVIDED "AS IS", WITHOUT WARRANTY OF ANY KIND, EXPRESS OR\nIMPLIED, INCLUDING BUT NOT LIMITED TO THE WARRANTIES OF MERCHANTABILITY,\nFITNESS FOR A PARTICULAR PURPOSE AND NONINFRINGEMENT. IN NO EVENT SHALL THE\nAUTHORS OR COPYRIGHT HOLDERS BE LIABLE FOR ANY CLAIM, DAMAGES OR OTHER\nLIABILITY, WHETHER IN AN ACTION OF CONTRACT, TORT OR OTHERWISE, ARISING FROM,\nOUT OF OR IN CONNECTION WITH THE SOFTWARE OR THE USE OR OTHER DEALINGS IN\nTHE SOFTWARE.\n
UComments: "2009-5-12: Created." 
Version: 001.000
ItalicAngle: 0
UnderlinePosition: -204
UnderlineWidth: 102
Ascent: 1393
Descent: 655
LayerCount: 3
Layer: 0 0 "Back"  1
Layer: 1 0 "Fore"  0
Layer: 2 0 "backup"  1
NeedsXUIDChange: 1
XUID: [1021 658 797806517 2122394]
FSType: 0
OS2Version: 0
OS2_WeightWidthSlopeOnly: 0
OS2_UseTypoMetrics: 1
CreationTime: 1242109613
ModificationTime: 1263543383
PfmFamily: 17
TTFWeight: 500
TTFWidth: 5
LineGap: 184
VLineGap: 184
OS2TypoAscent: 0
OS2TypoAOffset: 1
OS2TypoDescent: 0
OS2TypoDOffset: 1
OS2TypoLinegap: 184
OS2WinAscent: 0
OS2WinAOffset: 1
OS2WinDescent: 0
OS2WinDOffset: 1
HheadAscent: 0
HheadAOffset: 1
HheadDescent: 0
HheadDOffset: 1
OS2FamilyClass: 783
OS2Vendor: 'PfEd'

StartChar: a
Encoding: 97 97 0
Width: 1055
VWidth: 0
Flags: HMW
PickledData: "(dp1
S'spacing_anchors_slanted'
p2
I00
s."
HStem: -33 99<327.305 557.053> -10 89<890.519 1014.98> 462 72<405.18 672> 859 77<345.927 605.728>
VStem: 70 213<111.136 378.936> 124 191<635.53 828.852> 672 200<165.655 462 531.014 775.012>
AnchorPoint: "l;o" 0 453 basechar 0
AnchorPoint: "r;o" 1035 453 basechar 0
AnchorPoint: "l;bl" 0 40 basechar 0
AnchorPoint: "l;x" 20 852 basechar 0
AnchorPoint: "r;bl" 1055 40 basechar 0
AnchorPoint: "r;x" 995 852 basechar 0
LayerCount: 3
Fore
SplineSet
70 238 m 0xba
 70 556 392 510 672 534 c 1
 672 609 l 2
 672 707 666 859 482 859 c 0
 319 859 315 781 315 721 c 0
 315 641 248 621 211 621 c 0
 177 621 124 639 124 712 c 0
 124 858 274 936 467 936 c 0
 863 936 872 680 872 547 c 2
 872 152 l 2
 872 148 874 79 933 79 c 0
 945 79 988 81 994 81 c 0x76
 1004 81 1015 80 1015 37 c 0
 1015 -7 1008 -3 995 -4 c 0
 960 -6 872 -10 861 -10 c 0x76
 780 -10 691 23 691 153 c 1
 685 153 l 1
 642 35 518 -33 363 -33 c 0
 129 -33 70 127 70 238 c 0xba
283 246 m 0xba
 283 150 315 66 445 66 c 0
 641 66 672 260 672 386 c 2
 672 462 l 1
 361 455 283 391 283 246 c 0xba
EndSplineSet
EndChar

StartChar: e
Encoding: 101 101 1
Width: 995
VWidth: 0
Flags: HMW
PickledData: "(dp1
S'spacing_anchors_slanted'
p2
I00
s."
HStem: -29 78<421.461 722.799> 467 71<316 730> 855 85<407.467 666.279>
VStem: 90 222<205.768 709.983> 730 185<538.344 743.021> 809 99<125.188 244.904>
AnchorPoint: "l;o" 0 453 basechar 0
AnchorPoint: "r;o" 995 453 basechar 0
LayerCount: 3
Fore
SplineSet
90 454 m 0xf4
 90 864 350 940 523 940 c 0
 759 940 915 780 915 552 c 0xf8
 915 546 915 503 910 493 c 0
 905 482 846 467 769 467 c 2
 313 467 l 1
 312 455 312 444 312 432 c 0
 312 143 414 49 567 49 c 0
 754 49 809 162 809 226 c 0
 809 239 823 246 848 246 c 0
 862 246 907 241 907 216 c 0
 907 196 881 -29 543 -29 c 0
 336 -29 90 68 90 454 c 0xf4
316 538 m 1
 730 538 l 1
 730 716 724 855 537 855 c 0
 405 855 324 773 316 538 c 1
EndSplineSet
EndChar

StartChar: i
Encoding: 105 105 2
Width: 652
VWidth: 0
Flags: HMW
PickledData: "(dp1
S'spacing_anchors_slanted'
p2
I00
s."
HStem: 0 79<52.0015 237 437 606.999> 816 79<45.0059 237> 1118 243<248.95 435.133>
VStem: 220 244<1146.63 1332.78> 237 200<79 816>
AnchorPoint: "l;o" 0 453 basechar 0
AnchorPoint: "r;o" 652 453 basechar 0
AnchorPoint: "l;bl" 0 40 basechar 0
AnchorPoint: "l;x" 0 852 basechar 0
AnchorPoint: "r;bl" 652 40 basechar 0
AnchorPoint: "r;x" 652 852 basechar 0
AnchorPoint: "l;hi" 0 1350 basechar 0
AnchorPoint: "r;hi" 652 1350 basechar 0
LayerCount: 3
Fore
SplineSet
45 855 m 0xe8
 45 892 53 896 67 896 c 0
 101 896 136 896 409 896 c 0
 429 896 437 891 437 874 c 2
 437 79 l 1
 551 82 566 83 580 83 c 0
 601 83 607 78 607 40 c 0
 607 1 600 -3 576 -3 c 0
 474 -3 391 0 339 0 c 0
 302 0 157 -3 78 -3 c 0
 59 -3 52 0 52 40 c 0
 52 79 59 83 73 83 c 0
 89 83 106 82 237 79 c 1
 237 817 l 1
 102 814 85 813 68 813 c 0
 51 813 45 817 45 855 c 0xe8
220 1239 m 0xf0
 220 1311 278 1361 342 1361 c 0
 410 1361 464 1305 464 1240 c 0
 464 1175 412 1118 342 1118 c 0
 275 1118 220 1173 220 1239 c 0xf0
EndSplineSet
EndChar

StartChar: b
Encoding: 98 98 3
Width: 1163
VWidth: 0
Flags: HMW
PickledData: "(dp1
S'spacing_anchors_slanted'
p2
I00
s."
HStem: -33 77<501.931 742.073> -6 21G<237.5 327.5> 834 93<497.191 740.827> 1307 79<-19.9941 174>
VStem: 174 200<825.855 1307> 854 219<202.346 688.498>
AnchorPoint: "l;o" 0 453 basechar 0
AnchorPoint: "r;o" 1163 453 basechar 0
AnchorPoint: "l;bl" 0 40 basechar 0
AnchorPoint: "l;x" 0 852 basechar 0
AnchorPoint: "l;k;hi" -40 1350 basechar 0
AnchorPoint: "r;bl" 1163 40 basechar 0
AnchorPoint: "r;x" 1163 852 basechar 0
LayerCount: 3
Fore
SplineSet
-20 1347 m 0x7c
 -20 1386 -13 1390 7 1390 c 0
 42 1390 77 1389 356 1386 c 0
 371 1386 373 1379 373 1361 c 0
 373 1191 371 833 354 758 c 1
 357 758 l 1
 364 773 461 927 665 927 c 0
 1007 927 1073 641 1073 423 c 0
 1073 47 794 -33 636 -33 c 0xbc
 521 -33 395 40 361 118 c 1
 353 118 l 1
 347 0 355 -6 300 -6 c 0
 175 -6 174 -1 174 31 c 2
 174 1307 l 1
 171 1307 82 1304 2 1304 c 0
 -12 1304 -20 1307 -20 1347 c 0x7c
352 524 m 1
 354 325 l 1
 386 89 537 44 636 44 c 0
 794 44 854 222 854 427 c 0
 854 600 808 834 624 834 c 0
 578 834 378 825 352 524 c 1
EndSplineSet
EndChar

StartChar: c
Encoding: 99 99 4
Width: 943
VWidth: 0
Flags: HMW
PickledData: "(dp1
S'spacing_anchors_slanted'
p2
I00
s."
HStem: -29 82<446.119 687.683> 859 75<433.954 656.876>
VStem: 80 222<230.649 687.54> 689 176<647.027 834.831> 771 102<127.836 268.274>
AnchorPoint: "l;o" 0 453 basechar 0
AnchorPoint: "r;o" 943 453 basechar 0
LayerCount: 3
Fore
SplineSet
80 459 m 0xe8
 80 823 333 934 550 934 c 0
 774 934 865 828 865 720 c 0
 865 674 849 634 784 634 c 0
 712 634 690 690 689 734 c 0xf0
 688 785 676 859 545 859 c 0
 439 859 302 780 302 468 c 0
 302 246 404 53 557 53 c 0
 685 53 754 135 771 223 c 0
 778 259 765 270 808 270 c 0
 824 270 873 265 873 242 c 0
 873 204 827 -29 534 -29 c 0
 328 -29 80 96 80 459 c 0xe8
EndSplineSet
EndChar

StartChar: d
Encoding: 100 100 5
Width: 1218
VWidth: 0
Flags: HMW
PickledData: "(dp1
S'spacing_anchors_slanted'
p2
I00
s."
HStem: -33 80<420.664 677.148> 0 79<981 1160.98> 838 90<410.55 675.917> 1307 79<568.006 779.996>
VStem: 80 221<205.942 691.959> 780 200<768 1308.99>
AnchorPoint: "l;o" 0 453 basechar 0
AnchorPoint: "r;o" 1158 453 basechar 0
AnchorPoint: "r;bl" 1218 40 basechar 0
AnchorPoint: "r;x" 1158 852 basechar 0
AnchorPoint: "l;bl" 0 40 basechar 0
AnchorPoint: "l;x" 0 852 basechar 0
AnchorPoint: "r;hi" 1158 1350 basechar 0
LayerCount: 3
Fore
SplineSet
80 432 m 0xbc
 80 580 97 680 182 788 c 0
 283 916 431 928 500 928 c 0
 670 928 768 824 784 786 c 1
 787 786 l 1
 780 1307 l 1
 723 1307 704 1304 590 1304 c 0
 576 1304 568 1307 568 1347 c 0
 568 1387 576 1390 591 1390 c 2
 935 1387 l 2
 977 1386 980 1379 980 1329 c 2
 980 79 l 1
 1106 82 1125 83 1141 83 c 0
 1157 83 1163 79 1163 43 c 0
 1163 0 1155 -3 1137 -3 c 0
 1080 -3 871 0 842 0 c 0x7c
 817 0 811 8 811 30 c 2
 810 123 l 1
 805 123 l 1
 772 48 627 -33 508 -33 c 0
 371 -33 274 0 187 93 c 0
 100 186 80 321 80 432 c 0xbc
301 425 m 0
 301 213 390 47 517 47 c 0xbc
 595 47 785 57 806 352 c 1
 805 520 l 1
 785 821 617 838 524 838 c 0
 430 838 301 771 301 425 c 0
EndSplineSet
EndChar

StartChar: o
Encoding: 111 111 6
Width: 1059
VWidth: 0
Flags: HMW
PickledData: "(dp1
S'spacing_anchors_slanted'
p2
I00
s."
HStem: -33 82<400.928 667.523> 853 84<409.088 658.417>
VStem: 80 227<221.344 681.559> 761 218<220.354 688.601>
AnchorPoint: "l;o" 0 453 basechar 0
AnchorPoint: "r;o" 1059 453 basechar 0
LayerCount: 3
Fore
SplineSet
80 453 m 0
 80 761 277 937 539 937 c 0
 779 937 979 780 979 455 c 0
 979 86 729 -33 529 -33 c 0
 280 -33 80 136 80 453 c 0
307 464 m 0
 307 114 394 49 533 49 c 0
 692 49 761 126 761 459 c 0
 761 681 716 853 534 853 c 0
 352 853 307 682 307 464 c 0
EndSplineSet
EndChar

StartChar: t
Encoding: 116 116 7
Width: 806
VWidth: 0
Flags: HMW
PickledData: "(dp1
S'spacing_anchors_slanted'
p2
I00
s."
HStem: -31 88<474.3 637.498> 811 77<50.0015 252 456 723.999> 1138 20G<250 465>
VStem: 252 200<75.1406 811 888 1143> 662 84<78.2145 250.71>
AnchorPoint: "l;o" 20 453 basechar 0
AnchorPoint: "r;o" 806 453 basechar 0
AnchorPoint: "l;bl" 40 40 basechar 0
AnchorPoint: "l;x" 0 852 basechar 0
AnchorPoint: "r;bl" 806 40 basechar 0
AnchorPoint: "r;x" 806 852 basechar 0
LayerCount: 3
Fore
SplineSet
50 850 m 0
 50 884 55 891 78 891 c 0
 91 891 196 889 252 888 c 1
 250 1080 250 1076 250 1100 c 0
 250 1153 251 1158 417 1158 c 0
 443 1158 464 1155 464 1104 c 0
 464 1096 459 969 456 888 c 1
 649 891 673 891 697 891 c 0
 716 891 724 887 724 850 c 0
 724 813 718 808 694 808 c 0
 670 808 646 809 452 811 c 1
 452 336 l 2
 452 150 453 57 556 57 c 0
 632 57 662 119 662 202 c 0
 662 224 660 235 660 239 c 0
 660 242 669 253 698 253 c 0
 709 253 722 250 728 247 c 0
 745 239 746 238 746 222 c 0
 746 119 694 -31 522 -31 c 0
 284 -31 252 136 252 250 c 2
 252 811 l 1
 110 809 92 808 74 808 c 0
 56 808 50 813 50 850 c 0
EndSplineSet
EndChar

StartChar: n
Encoding: 110 110 8
Width: 1301
VWidth: 0
Flags: HMW
PickledData: "(dp1
S'spacing_anchors_slanted'
p2
I00
s."
HStem: 0 79<43.0015 234 434 596.999 711.001 886 1086 1256> 816 79<45.0058 234> 822 106<630.707 844.875>
VStem: 234 200<79 600.834 714.534 816> 886 200<79 615.853>
AnchorPoint: "l;o" 0 453 basechar 0
AnchorPoint: "r;o" 1261 453 basechar 0
AnchorPoint: "l;bl" 0 40 basechar 0
AnchorPoint: "l;x" 0 852 basechar 0
AnchorPoint: "r;bl" 1301 40 basechar 0
AnchorPoint: "r;x" 1261 852 basechar 0
LayerCount: 3
Fore
SplineSet
45 855 m 0xd8
 45 894 52 897 75 897 c 0
 107 897 266 895 394 895 c 0xd8
 421 895 422 882 422 844 c 0
 422 807 419 769 414 659 c 1
 421 659 l 1
 482 786 599 928 820 928 c 0
 1053 928 1086 764 1086 591 c 2
 1086 79 l 1
 1190 82 1204 82 1217 82 c 0
 1248 82 1256 77 1256 40 c 0
 1256 1 1249 -3 1226 -3 c 0
 1179 -3 1038 0 991 0 c 0
 967 0 797 -3 749 -3 c 0
 718 -3 711 1 711 40 c 0
 711 80 721 83 747 83 c 0
 765 83 822 81 886 79 c 1
 886 620 l 2
 886 682 885 822 745 822 c 0xb8
 611 822 505 675 467 575 c 0
 438 499 434 429 434 318 c 2
 434 79 l 1
 543 82 556 83 570 83 c 0
 591 83 597 78 597 40 c 0
 597 1 591 -3 565 -3 c 0
 542 -3 378 0 331 0 c 0
 306 0 133 -3 83 -3 c 0
 54 -3 48 1 48 40 c 0
 48 78 54 82 78 82 c 0
 94 82 109 82 234 79 c 1
 234 816 l 1
 105 814 89 813 73 813 c 0
 51 813 45 817 45 855 c 0xd8
EndSplineSet
EndChar

StartChar: r
Encoding: 114 114 10
Width: 926
VWidth: 0
Flags: HMW
PickledData: "(dp1
S'spacing_anchors_slanted'
p2
I00
s."
HStem: 0 79<51.0015 233 433 615.999> 816 79<45.0015 233> 907 20G<630.5 799.5>
VStem: 233 200<79 599.216 748.873 816>
AnchorPoint: "l;o" 0 453 basechar 0
AnchorPoint: "r;o" 926 453 basechar 0
AnchorPoint: "l;bl" 0 40 basechar 0
AnchorPoint: "l;x" 0 852 basechar 0
AnchorPoint: "r;bl" 886 40 basechar 0
AnchorPoint: "r;x" 926 852 basechar 0
LayerCount: 3
Fore
SplineSet
45 855 m 0
 45 894 54 897 73 897 c 0x8b
 105 897 117 897 372 895 c 0
 393 895 400 894 400 877 c 0
 400 869 397 635 397 623 c 1
 404 623 l 1
 420 681 528 927 733 927 c 0
 866 927 901 843 901 774 c 0
 901 699 843 664 789 664 c 0
 714 664 691 727 691 764 c 0
 692 775 698 811 703 822 c 1
 685 818 664 821 624 791 c 0xc3
 531 721 433 523 433 362 c 2
 433 79 l 1
 557 82 573 83 589 83 c 0
 610 83 616 78 616 40 c 0
 616 1 609 -3 583 -3 c 0
 558 -3 381 0 330 0 c 0
 305 0 130 -3 80 -3 c 0
 57 -3 51 1 51 40 c 0
 51 78 57 83 76 83 c 0
 92 83 108 82 233 79 c 1xc5
 233 816 l 1
 104 814 88 813 72 813 c 0
 52 813 45 817 45 855 c 0
EndSplineSet
EndChar

StartChar: l
Encoding: 108 108 11
Width: 649
VWidth: 0
Flags: HMW
PickledData: "(dp1
S'spacing_anchors_slanted'
p2
I00
s."
HStem: 0 79<25.0015 214 414 605.998> 1307 79<20.0015 214>
VStem: 214 200<79 1307>
AnchorPoint: "l;o" 10 453 basechar 0
AnchorPoint: "r;o" 619 453 basechar 0
AnchorPoint: "l;bl" 0 40 basechar 0
AnchorPoint: "l;x" 10 852 basechar 0
AnchorPoint: "r;bl" 649 40 basechar 0
AnchorPoint: "r;x" 619 852 basechar 0
AnchorPoint: "l;hi" 0 1350 basechar 0
AnchorPoint: "r;hi" 619 1350 basechar 0
LayerCount: 3
Fore
SplineSet
20 1347 m 0
 20 1386 27 1390 48 1390 c 0
 81 1390 113 1389 374 1386 c 0
 398 1386 414 1384 414 1357 c 2
 414 79 l 1
 548 82 565 83 582 83 c 0
 600 83 606 78 606 43 c 0
 606 1 599 -3 578 -3 c 0
 525 -3 368 0 315 0 c 0
 289 0 109 -3 58 -3 c 0
 32 -3 25 1 25 40 c 0
 25 79 32 83 48 83 c 0
 65 83 81 82 214 79 c 1
 214 1307 l 1
 80 1305 64 1304 47 1304 c 0
 27 1304 20 1308 20 1347 c 0
EndSplineSet
EndChar

StartChar: g
Encoding: 103 103 12
Width: 1176
VWidth: 0
Flags: HMW
PickledData: "(dp1
S'spacing_anchors_slanted'
p2
I00
s."
HStem: -644 69<418.396 737.343> -105 160<333.533 836.459> 238 59<471.819 647.853> 792 98<904.915 1071> 847 74<462.352 653.802>
VStem: 70 87<86.1342 271.046> 111 167<-459.22 -223.502> 185 214<429.805 740.217> 720 215<412.675 751.8> 913 139<-421.164 -173.052> 1017 133<697.921 790.582>
AnchorPoint: "l;o" 0 453 basechar 0
AnchorPoint: "r;o" 1176 453 basechar 0
AnchorPoint: "l;bl" 0 40 basechar 0
AnchorPoint: "l;x" 60 852 basechar 0
AnchorPoint: "r;bl" 1176 40 basechar 0
AnchorPoint: "r;x" 1176 852 basechar 0
AnchorPoint: "l;lo" 61 -420 basechar 0
AnchorPoint: "r;lo" 1102 -420 basechar 0
LayerCount: 3
Fore
SplineSet
70 162 m 0xf4
 70 264 145 362 264 386 c 1
 210 443 185 495 185 567 c 0
 185 753 324 921 553 921 c 0xed
 675 921 782 867 851 787 c 1
 855 787 l 1
 879 843 937 890 1018 890 c 0
 1124 890 1150 808 1150 766 c 0
 1150 714 1109 691 1072 691 c 0
 1056 691 1022 696 1017 736 c 0
 1015 749 1019 792 975 792 c 0
 932 792 898 754 898 722 c 0
 898 689 935 666 935 569 c 0
 935 392 775 238 573 238 c 0
 509 238 444 254 388 285 c 0
 354 304 350 315 313 315 c 0
 224 315 157 249 157 178 c 0xf5a0
 157 132 186 43 340 43 c 0
 377 43 531 55 682 55 c 0
 1006 55 1052 -149 1052 -251 c 0
 1052 -408 939 -644 549 -644 c 0
 210 -644 111 -467 111 -349 c 0xf240
 111 -258 203 -138 294 -109 c 1
 294 -103 l 1
 197 -72 70 18 70 162 c 0xf4
278 -316 m 0xe240
 278 -448 376 -575 572 -575 c 0
 680 -575 913 -519 913 -302 c 0
 913 -105 728 -105 640 -105 c 0
 560 -105 460 -109 405 -111 c 0
 371 -112 348 -116 311 -185 c 0
 289 -225 278 -271 278 -316 c 0xe240
399 562 m 0xe980
 399 431 431 297 558 297 c 0
 687 297 720 411 720 561 c 0
 720 695 698 847 563 847 c 0
 475 847 399 804 399 562 c 0xe980
EndSplineSet
Layer: 2
SplineSet
1018 890 m 0xf5
 1124 890 1150 808 1150 766 c 0
 1150 714 1109 691 1072 691 c 0
 1056 691 1022 696 1017 736 c 0
 1015 749 1019 792 975 792 c 0
 932 792 898 754 898 722 c 0
 898 689 935 666 935 569 c 0
 935 392 775 238 573 238 c 0
 509 238 444 254 388 285 c 0
 354 304 350 315 313 315 c 0
 224 315 157 249 157 178 c 0xf5a0
 157 132 186 43 340 43 c 0
 377 43 531 55 682 55 c 0
 1006 55 1052 -149 1052 -251 c 0
 1052 -408 939 -644 549 -644 c 0
 210 -644 116 -467 116 -349 c 0xf240
 116 -227 203 -138 294 -109 c 1
 294 -103 l 1
 197 -72 70 18 70 162 c 0
 70 264 145 362 264 386 c 1
 210 443 185 495 185 567 c 0
 185 753 324 921 553 921 c 0xed
 675 921 782 867 851 787 c 1
 855 787 l 1
 879 843 937 890 1018 890 c 0xf5
572 -575 m 0
 680 -575 913 -519 913 -302 c 0
 913 -105 728 -105 640 -105 c 0
 560 -105 460 -109 405 -111 c 0
 371 -112 348 -116 311 -185 c 0
 289 -225 278 -271 278 -316 c 0xe240
 278 -448 376 -575 572 -575 c 0
391 562 m 0xe980
 391 431 424 297 558 297 c 0
 694 297 728 411 728 561 c 0
 728 695 705 847 563 847 c 0
 470 847 391 804 391 562 c 0xe980
EndSplineSet
Validated: 3073
EndChar

StartChar: f
Encoding: 102 102 13
Width: 726
VWidth: 0
Flags: HMW
PickledData: "(dp1
S'spacing_anchors_slanted'
p2
I00
s."
HStem: 0 79<54.0015 232 438 628.998> 811 77<45.0015 237 438 683.999> 1349 73<488.106 617.033>
VStem: 238 200<79 811 888 1240.75> 640 166<1161.12 1327.87>
AnchorPoint: "l;o" 0 453 basechar 0
AnchorPoint: "r;o" 726 453 basechar 0
AnchorPoint: "l;bl" 0 40 basechar 0
AnchorPoint: "l;x" 0 852 basechar 0
AnchorPoint: "r;bl" 726 40 basechar 0
AnchorPoint: "r;x" 726 852 basechar 0
AnchorPoint: "l;hi" 60 1350 basechar 0
AnchorPoint: "r;k;hi" 816 1350 basechar 0
LayerCount: 3
Fore
SplineSet
45 850 m 0
 45 887 51 891 70 891 c 0
 87 891 104 890 237 888 c 1
 237 960 l 2
 237 1081 243 1208 325 1312 c 0
 385 1388 466 1422 575 1422 c 0
 769 1422 806 1311 806 1237 c 0
 806 1170 757 1153 722 1153 c 0
 646 1154 642 1204 639 1254 c 0
 636 1311 613 1349 558 1349 c 0
 514 1349 438 1323 438 1108 c 2
 438 888 l 1
 611 891 633 892 655 892 c 0
 678 892 684 887 684 850 c 0
 684 812 678 807 652 807 c 0
 631 807 609 808 438 811 c 1
 438 79 l 1
 569 82 586 83 602 83 c 0
 623 83 629 78 629 43 c 0
 629 1 622 -3 598 -3 c 0
 572 -3 388 0 336 0 c 0
 287 0 114 -3 89 -3 c 0
 60 -3 54 1 54 40 c 0
 54 79 62 83 76 83 c 0
 92 83 113 82 238 79 c 1
 238 811 l 1
 104 809 87 808 70 808 c 0
 51 808 45 812 45 850 c 0
EndSplineSet
EndChar

StartChar: h
Encoding: 104 104 14
Width: 1281
VWidth: 0
Flags: HMW
PickledData: "(dp1
S'spacing_anchors_slanted'
p2
I00
s."
HStem: 0 79<22.0015 214 414 577.999 697.001 867 1067 1236> 822 106<622.845 828.35> 1307 79<20.0015 214>
VStem: 214 200<79 594.973 672 1307> 867 200<79 615.667>
AnchorPoint: "l;o" 10 453 basechar 0
AnchorPoint: "r;o" 1241 453 basechar 0
AnchorPoint: "l;bl" 0 40 basechar 0
AnchorPoint: "l;x" 10 852 basechar 0
AnchorPoint: "r;bl" 1281 40 basechar 0
AnchorPoint: "r;x" 1241 852 basechar 0
AnchorPoint: "l;hi" 0 1350 basechar 0
LayerCount: 3
Fore
SplineSet
20 1335 m 0
 20 1388 20 1390 54 1390 c 0
 95 1390 315 1386 387 1386 c 0
 408 1386 414 1381 414 1360 c 2
 409 672 l 1
 416 672 l 1
 451 741 570 927 803 928 c 0
 866 928 1029 914 1059 722 c 0
 1066 681 1065 674 1067 79 c 1
 1182 82 1196 83 1210 83 c 0
 1229 83 1236 78 1236 40 c 0
 1236 1 1229 -3 1203 -3 c 0
 1178 -3 1005 0 956 0 c 0
 933 0 770 -3 724 -3 c 0
 704 -3 697 1 697 40 c 0
 697 78 703 83 724 83 c 0
 738 83 752 82 867 79 c 1
 867 633 l 2
 867 692 863 822 728 822 c 0
 616 822 509 719 449 575 c 0
 414 490 412 413 412 297 c 2
 412 258 l 2
 412 198 413 139 414 79 c 1
 522 82 535 82 548 82 c 0
 572 82 578 77 578 40 c 0
 578 1 571 -3 539 -3 c 0
 516 -3 346 0 310 0 c 0
 284 0 106 -3 54 -3 c 0
 33 -3 27 0 27 40 c 0
 27 79 34 83 48 83 c 0
 65 83 77 82 214 79 c 1
 214 1307 l 1
 90 1305 65 1304 49 1304 c 0
 22 1304 20 1308 20 1335 c 0
EndSplineSet
EndChar

StartChar: j
Encoding: 106 106 15
Width: 605
VWidth: 0
Flags: HMW
PickledData: "(dp1
S'spacing_anchors_slanted'
p2
I00
s."
HStem: 816 80<38.0059 242> 1118 243<239.95 426.133>
VStem: 211 244<1146.63 1332.78> 242 200<-354.018 816>
AnchorPoint: "l;o" 0 453 basechar 0
AnchorPoint: "r;o" 605 453 basechar 0
AnchorPoint: "l;bl" 0 40 basechar 0
AnchorPoint: "l;x" 0 852 basechar 0
AnchorPoint: "r;bl" 605 40 basechar 0
AnchorPoint: "r;x" 605 852 basechar 0
AnchorPoint: "l;hi" 0 1350 basechar 0
AnchorPoint: "r;hi" 605 1350 basechar 0
LayerCount: 3
Fore
SplineSet
15 -595 m 0xd0
 15 -571 56 -572 130 -494 c 0
 242 -376 242 -242 242 -146 c 2
 242 817 l 1
 103 814 85 813 68 813 c 0
 44 813 38 818 38 855 c 0
 38 890 46 896 72 896 c 2
 419 896 l 2
 433 896 442 894 442 864 c 2
 442 -70 l 2
 442 -426 302 -486 218 -558 c 0
 204 -570 75 -650 53 -650 c 0
 42 -650 15 -614 15 -595 c 0xd0
211 1239 m 0xe0
 211 1311 269 1361 333 1361 c 0
 401 1361 455 1305 455 1240 c 0
 455 1175 403 1118 333 1118 c 0
 266 1118 211 1173 211 1239 c 0xe0
EndSplineSet
EndChar

StartChar: k
Encoding: 107 107 16
Width: 1180
VWidth: 0
Flags: HMW
PickledData: "(dp1
S'spacing_anchors_slanted'
p2
I00
s."
HStem: 0 79<39.1149 214 414 563.988 654.115 776 1024 1124.97> 450 66<414 500> 819 78<558.024 730 870 1053.98> 1307 79<19.9871 214>
VStem: 214 200<79 450 516 1307>
AnchorPoint: "l;o" 10 453 basechar 0
AnchorPoint: "r;o" 1100 453 basechar 0
AnchorPoint: "l;bl" 0 40 basechar 0
AnchorPoint: "l;x" 10 852 basechar 0
AnchorPoint: "r;bl" 1180 40 basechar 0
AnchorPoint: "r;x" 1129 852 basechar 0
AnchorPoint: "l;hi" 0 1350 basechar 0
LayerCount: 3
Fore
SplineSet
20 1347 m 0
 20 1386 26 1390 52 1390 c 0
 85 1390 118 1389 382 1386 c 0
 412 1386 414 1371 414 1346 c 2
 414 516 l 1
 490 516 l 1
 730 819 l 1
 629 816 617 815 604 815 c 0
 584 815 578 820 578 856 c 0
 578 890 580 897 620 897 c 0
 653 897 712 892 816 892 c 0
 861 892 1020 897 1043 897 c 0
 1067 897 1074 892 1074 856 c 0
 1074 820 1068 815 1043 815 c 0
 1026 815 1009 816 870 819 c 1
 620 515 l 1
 1014 79 l 1
 1088 82 1097 82 1106 82 c 0
 1118 82 1125 78 1125 42 c 0
 1125 2 1118 -3 1090 -3 c 0
 1070 -3 930 0 890 0 c 0
 849 0 706 -3 685 -3 c 0
 660 -3 654 1 654 40 c 0
 654 71 654 83 673 83 c 0
 684 83 696 82 786 79 c 1
 506 450 l 1
 414 450 l 1
 414 79 l 1
 512 82 525 82 537 82 c 0
 559 82 564 77 564 42 c 0
 564 2 557 -3 526 -3 c 0
 505 -3 356 0 313 0 c 0
 288 0 112 -3 62 -3 c 0
 46 -3 39 0 39 40 c 0
 39 79 47 83 61 83 c 0
 76 83 91 82 214 79 c 1
 214 1307 l 1
 84 1305 67 1304 51 1304 c 0
 26 1304 20 1309 20 1347 c 0
EndSplineSet
EndChar

StartChar: m
Encoding: 109 109 17
Width: 1939
VWidth: 0
Flags: HMW
PickledData: "(dp1
S'spacing_anchors_slanted'
p2
I00
s."
HStem: 0 79<48.0015 240 440 603.999 712.001 883 1083 1251 1355 1526 1725 1894> 816 79<45.0015 234> 822 108<642.99 850.98 1296.5 1500>
VStem: 240 200<79 599.932 695.26 816> 883 200<79 577.083 643 800.294> 1526 199<79 801.202>
AnchorPoint: "l;o" 0 453 basechar 0
AnchorPoint: "r;o" 1899 453 basechar 0
AnchorPoint: "l;bl" 0 40 basechar 0
AnchorPoint: "l;x" 0 852 basechar 0
AnchorPoint: "r;bl" 1939 40 basechar 0
AnchorPoint: "r;x" 1899 852 basechar 0
LayerCount: 3
Fore
SplineSet
45 855 m 0xdc
 45 894 53 897 72 897 c 0
 106 897 140 897 411 895 c 0xdc
 425 895 431 882 431 866 c 0
 431 859 425 719 422 646 c 1
 429 646 l 1
 462 728 584 930 817 930 c 0
 911 930 1063 906 1074 643 c 1
 1081 643 l 1
 1133 765 1262 930 1474 930 c 0
 1605 930 1685 862 1712 764 c 0
 1724 719 1725 671 1725 624 c 2
 1725 79 l 1
 1841 82 1856 83 1870 83 c 0
 1888 83 1894 78 1894 40 c 0
 1894 1 1887 -3 1864 -3 c 0
 1816 -3 1673 0 1625 0 c 0
 1601 0 1429 -3 1380 -3 c 0
 1360 -3 1355 1 1355 41 c 0
 1355 79 1361 83 1374 83 c 0
 1389 83 1404 82 1526 79 c 1
 1526 650 l 2
 1526 757 1506 822 1411 822 c 0
 1267 822 1083 627 1083 360 c 2
 1083 79 l 1
 1198 82 1213 83 1227 83 c 0
 1247 83 1251 78 1251 41 c 0
 1251 1 1247 -3 1223 -3 c 0
 1199 -3 1029 0 981 0 c 0
 958 0 795 -3 749 -3 c 0
 718 -3 712 1 712 40 c 0
 712 76 713 83 730 83 c 0
 745 83 761 82 883 79 c 1
 883 629 l 1
 881 736 866 822 760 822 c 0xbc
 613 822 474 646 447 487 c 0
 441 455 440 422 440 390 c 2
 440 79 l 1
 551 82 565 83 579 83 c 0
 599 83 604 78 604 40 c 0
 604 -2 597 -3 562 -3 c 0
 517 -3 361 0 339 0 c 0
 289 0 140 -3 90 -3 c 0
 56 -3 48 1 48 40 c 0
 48 77 55 82 81 82 c 0
 97 82 113 82 240 79 c 1
 240 816 l 1
 105 814 88 813 71 813 c 0
 51 813 45 817 45 855 c 0xdc
EndSplineSet
EndChar

StartChar: p
Encoding: 112 112 18
Width: 1219
VWidth: 0
Flags: HMW
PickledData: "(dp1
S'spacing_anchors_slanted'
p2
I00
s."
HStem: -605 79<49.0015 239 439 621.976> -25 81<557.342 811.98> 816 79<45.0015 239> 834 92<565.422 801.659>
VStem: 239 200<-526 106 178.363 691.087 749 816> 918 211<214.225 689.932>
AnchorPoint: "l;o" 50 453 basechar 0
AnchorPoint: "r;o" 1219 453 basechar 0
AnchorPoint: "l;bl" 50 40 basechar 0
AnchorPoint: "l;x" 0 852 basechar 0
AnchorPoint: "l;lo" 4 -420 basechar 0
LayerCount: 3
Fore
SplineSet
45 855 m 0xec
 45 894 52 897 80 897 c 0
 113 897 144 896 407 895 c 0xec
 427 895 439 893 439 872 c 2
 439 860 l 2
 439 846 439 820 435 749 c 1
 439 749 l 1
 494 850 595 926 732 926 c 0xdc
 902 925 1129 808 1129 462 c 0
 1129 229 1019 -25 728 -25 c 0
 610 -25 499 21 446 86 c 1
 439 86 l 1
 439 -526 l 1
 562 -523 577 -523 592 -523 c 0
 616 -523 622 -527 622 -563 c 0
 622 -603 613 -608 576 -608 c 0
 551 -608 374 -605 324 -605 c 0
 300 -605 130 -608 81 -608 c 0
 56 -608 49 -604 49 -565 c 0
 49 -527 56 -522 73 -522 c 0
 90 -522 106 -523 239 -526 c 1
 239 816 l 1
 106 814 89 813 72 813 c 0
 51 813 45 817 45 855 c 0xec
421 514 m 1
 423 314 l 1
 457 135 569 56 695 56 c 0
 860 56 918 238 918 427 c 0
 918 747 790 834 700 834 c 0xdc
 531 834 437 676 421 514 c 1
EndSplineSet
EndChar

StartChar: q
Encoding: 113 113 19
Width: 1130
VWidth: 0
Flags: HMW
PickledData: "(dp1
S'spacing_anchors_slanted'
p2
I00
s."
HStem: -605 79<584.001 767 967 1137> -25 77<408.053 644.599> 834 87<402.414 657.446>
VStem: 80 213<215.62 687.262> 767 200<-526 91 154.669 699.167>
AnchorPoint: "r;x" 1090 852 basechar 0
AnchorPoint: "r;bl" 1130 40 basechar 0
AnchorPoint: "r;o" 1130 453 basechar 0
AnchorPoint: "l;o" 0 453 basechar 0
AnchorPoint: "r;k;lo" 1187 -420 basechar 0
LayerCount: 3
Fore
SplineSet
80 440 m 0
 80 823 318 921 485 921 c 0
 622 921 741 847 788 757 c 1
 792 757 l 1
 804 864 l 2
 805 877 806 888 882 888 c 0
 948 888 967 887 967 848 c 2
 967 -527 l 1
 1086 -523 1101 -522 1116 -522 c 0
 1131 -522 1137 -527 1137 -563 c 0
 1137 -605 1129 -608 1111 -608 c 0
 1061 -608 886 -605 861 -605 c 0
 837 -605 669 -608 621 -608 c 0
 590 -608 584 -604 584 -565 c 0
 584 -527 591 -522 608 -522 c 0
 624 -522 640 -523 767 -526 c 1
 767 -120 l 2
 774 91 l 1
 767 91 l 1
 696 15 616 -25 488 -25 c 0
 216 -25 80 197 80 440 c 0
293 442 m 0
 293 245 359 52 524 52 c 0
 588 52 738 78 779 318 c 1
 779 590 l 1
 759 723 670 834 530 834 c 0
 335 834 293 628 293 442 c 0
EndSplineSet
EndChar

StartChar: s
Encoding: 115 115 20
Width: 858
VWidth: 0
Flags: HMW
PickledData: "(dp1
S'spacing_anchors_slanted'
p2
I00
s."
HStem: -34 87<290.404 576.975> 843 97<303.988 567.625>
VStem: 100 83<167.648 295.96> 104 146<623.625 791.9> 633 145<113.011 309.636> 650 80<651.105 753.501>
AnchorPoint: "l;o" 0 453 basechar 0
AnchorPoint: "r;o" 858 453 basechar 0
AnchorPoint: "l;bl" 0 40 basechar 0
AnchorPoint: "l;x" 0 852 basechar 0
AnchorPoint: "r;bl" 858 40 basechar 0
AnchorPoint: "r;x" 858 852 basechar 0
LayerCount: 3
Fore
SplineSet
100 259 m 2xe8
 100 288 107 296 137 296 c 0
 168 296 176 293 183 267 c 0
 203 195 256 53 436 53 c 0
 549 53 633 115 633 207 c 0xe8
 633 474 104 288 104 659 c 0
 104 771 191 940 453 940 c 0
 541 940 728 888 729 819 c 2
 730 686 l 2
 730 663 727 651 695 651 c 0
 660 651 657 660 650 678 c 0
 612 770 557 843 436 843 c 0
 337 843 250 780 250 706 c 0xd4
 250 489 778 630 778 261 c 0
 778 84 622 -34 420 -34 c 0
 308 -34 205 0 130 39 c 0
 108 51 101 56 101 102 c 2
 100 259 l 2xe8
EndSplineSet
Layer: 2
SplineSet
616 208 m 0xe8
 616 457 95 319 95 661 c 0
 95 771 181 937 438 937 c 0
 538 937 622 914 690 874 c 0
 705 865 721 859 721 828 c 2
 721 682 l 2
 721 658 717 647 686 647 c 0
 650 647 648 656 641 674 c 0
 604 767 549 841 425 841 c 0
 326 841 241 781 241 707 c 0xd4
 241 520 761 615 761 263 c 0
 761 99 624 -31 406 -31 c 0
 291 -31 187 6 111 47 c 0
 89 59 83 64 83 110 c 2
 83 266 l 2
 83 294 90 303 120 303 c 0
 152 303 159 299 166 273 c 0
 185 200 239 56 424 56 c 0
 532 56 616 116 616 208 c 0xe8
EndSplineSet
Validated: 3073
EndChar

StartChar: u
Encoding: 117 117 21
Width: 1292
VWidth: 0
Flags: HMW
PickledData: "(dp1
S'spacing_anchors_slanted'
p2
I00
s."
HStem: -27 117<471.502 676.742> 0 79<1075 1246.98> 817 79<45.0133 218 684.013 875>
VStem: 218 200<145.133 817> 875 200<79 233 287.022 817>
AnchorPoint: "l;o" 30 453 basechar 0
AnchorPoint: "r;o" 1292 453 basechar 0
AnchorPoint: "l;bl" 60 40 basechar 0
AnchorPoint: "l;x" 0 852 basechar 0
AnchorPoint: "r;bl" 1292 40 basechar 0
AnchorPoint: "r;x" 1292 852 basechar 0
LayerCount: 3
Fore
SplineSet
45 855 m 0xb8
 45 894 52 896 85 896 c 0
 115 896 144 896 383 896 c 0
 412 896 418 890 418 861 c 2
 418 318 l 2
 418 110 530 90 576 90 c 0xb8
 700 90 839 261 866 387 c 0
 874 422 875 458 875 494 c 2
 875 817 l 1
 741 814 725 813 708 813 c 0
 691 813 684 817 684 855 c 0
 684 895 692 897 717 897 c 0
 749 897 781 897 1037 896 c 0
 1069 896 1075 896 1075 846 c 2
 1075 81 l 1
 1194 82 1209 83 1224 83 c 0
 1241 83 1247 79 1247 42 c 0
 1247 1 1240 -3 1219 -3 c 0
 1189 -3 1158 -2 917 0 c 0x78
 890 0 889 11 889 30 c 2
 889 233 l 1
 881 233 l 1
 823 129 696 -27 498 -27 c 0
 238 -27 218 217 218 317 c 2
 218 817 l 1
 99 814 84 813 69 813 c 0
 51 813 45 818 45 855 c 0xb8
EndSplineSet
EndChar

StartChar: v
Encoding: 118 118 22
Width: 1179
VWidth: 0
Flags: HMW
PickledData: "(dp1
S'spacing_anchors_slanted'
p2
I00
s."
HStem: -33 21G<571.5 609> 815 82<55.0052 189 415 571.996 710.005 875 971.812 1123.99>
AnchorPoint: "l;o" 70 453 basechar 0
AnchorPoint: "r;o" 1094 453 basechar 0
AnchorPoint: "l;bl" 180 40 basechar 0
AnchorPoint: "r;bl" 984 40 basechar 0
AnchorPoint: "l;x" 0 852 basechar 0
AnchorPoint: "r;x" 1179 852 basechar 0
LayerCount: 3
Fore
SplineSet
55 856 m 0
 55 892 61 897 83 897 c 0
 105 897 256 892 299 892 c 0
 348 892 518 896 542 896 c 0
 566 896 572 892 572 856 c 0
 572 820 566 815 542 815 c 0
 529 815 517 816 415 818 c 1
 636 219 l 1
 646 219 l 1
 875 818 l 1
 769 816 746 815 733 815 c 0
 717 815 710 819 710 856 c 0
 710 892 716 896 739 896 c 0
 757 896 886 892 923 892 c 0
 958 892 1080 897 1097 897 c 0
 1118 897 1124 891 1124 856 c 0
 1124 820 1117 815 1097 815 c 0
 1087 815 1072 816 990 818 c 1
 890 602 842 488 653 20 c 0
 634 -26 627 -33 591 -33 c 0
 552 -33 548 -31 526 20 c 2
 189 818 l 1
 104 816 94 815 83 815 c 0
 62 815 55 820 55 856 c 0
EndSplineSet
EndChar

StartChar: w
Encoding: 119 119 23
Width: 1775
VWidth: 0
Flags: HMW
PickledData: "(dp1
S'spacing_anchors_slanted'
p2
I00
s."
HStem: -33 21G<534.351 548.5 572.5 585 608.5 621.299 1199.6 1213.5 1237 1249.5 1273.5 1286.39> 818 79<55.0133 178 398 545.987 676.013 826 1059 1200.86 1322.01 1469 1591 1719.86>
AnchorPoint: "l;bl" 240 40 basechar 0
AnchorPoint: "l;o" 70 453 basechar 0
AnchorPoint: "r;o" 1685 453 basechar 0
AnchorPoint: "l;x" 0 852 basechar 0
AnchorPoint: "r;bl" 1595 40 basechar 0
AnchorPoint: "r;x" 1775 852 basechar 0
LayerCount: 3
Fore
SplineSet
55 856 m 0
 55 893 61 897 77 897 c 0
 99 897 251 892 294 892 c 0
 338 892 493 896 515 896 c 0
 540 896 546 892 546 856 c 0
 546 821 538 816 510 816 c 0
 499 816 488 816 398 818 c 1
 468 656 548 444 620 256 c 1
 626 256 l 1
 695 461 760 658 826 818 c 1
 725 816 713 815 700 815 c 0
 682 815 676 819 676 856 c 0
 676 893 683 897 697 897 c 0
 721 897 889 892 937 892 c 0
 985 892 1152 897 1176 897 c 0
 1195 897 1201 892 1201 856 c 0
 1201 820 1195 815 1176 815 c 0
 1164 815 1152 816 1059 818 c 1
 1137 630 1216 433 1284 247 c 1
 1288 247 l 1
 1350 448 1414 662 1464 818 c 1
 1368 816 1361 815 1349 815 c 0
 1329 815 1322 820 1322 856 c 0
 1322 892 1329 897 1345 897 c 0
 1363 897 1490 892 1526 892 c 0
 1560 892 1680 897 1697 897 c 0
 1714 897 1720 892 1720 856 c 0
 1720 820 1714 816 1690 816 c 0
 1680 816 1666 816 1586 818 c 1
 1502 622 1390 293 1298 27 c 0
 1282 -19 1283 -33 1243 -33 c 0
 1203 -33 1206 -23 1186 27 c 0
 1102 234 1004 489 894 737 c 1
 891 737 l 1
 811 529 720 278 632 25 c 0
 618 -14 617 -33 579 -33 c 0
 537 -33 542 -26 517 36 c 0
 392 344 272 617 178 818 c 1
 99 816 90 815 80 815 c 0
 61 815 55 820 55 856 c 0
EndSplineSet
EndChar

StartChar: x
Encoding: 120 120 24
Width: 1169
VWidth: 0
Flags: HMW
PickledData: "(dp1
S'spacing_anchors_slanted'
p2
I00
s."
HStem: 0 79<80.0015 222.736 316 444.999 608.001 771 1000 1114> 818 79<60.0133 219.124 416 564.987 718.013 832 958 1086.99>
AnchorPoint: "l;o" 60 453 basechar 0
AnchorPoint: "r;o" 1119 453 basechar 0
AnchorPoint: "l;bl" 10 40 basechar 0
AnchorPoint: "l;x" 0 852 basechar 0
AnchorPoint: "r;bl" 1169 40 basechar 0
AnchorPoint: "r;x" 1137 852 basechar 0
LayerCount: 3
Fore
SplineSet
55 859 m 0
 55 892 64 896 92 896 c 0
 114 896 265 892 308 892 c 0
 354 892 515 897 538 897 c 0
 554 897 560 893 560 853 c 0
 560 819 554 815 540 815 c 0
 527 815 518 815 416 818 c 1
 479 725 552 636 609 552 c 1
 681 653 759 725 832 818 c 1
 763 816 736 815 735 815 c 0
 720 815 713 821 713 859 c 0
 713 893 720 897 735 897 c 0
 753 897 875 892 912 892 c 0
 941 892 1013 896 1056 896 c 0
 1077 896 1082 889 1082 852 c 0
 1082 819 1076 815 1056 815 c 0
 1046 815 1045 816 963 818 c 1
 855 702 788 609 661 486 c 1
 773 372 933 162 994 79 c 1
 1066 82 1072 82 1099 82 c 0
 1118 82 1124 75 1124 36 c 0
 1124 0 1116 -3 1095 -3 c 0
 1054 -3 947 0 886 0 c 0
 837 0 671 -3 647 -3 c 0
 623 -3 618 2 618 44 c 0
 618 78 624 83 642 83 c 0
 645 83 674 81 775 79 c 1
 658 234 615 285 553 379 c 1
 504 309 441 231 310 79 c 1
 397 82 395 82 414 82 c 0
 432 82 440 80 440 36 c 0
 440 0 432 -3 412 -3 c 0
 396 -3 368 0 253 0 c 0
 238 0 130 -3 101 -3 c 0
 81 -3 75 2 75 44 c 0
 75 80 81 82 98 82 c 0
 103 82 124 82 186 79 c 1
 289 201 423 351 500 434 c 1
 392 552 295 693 193 818 c 1
 151 817 112 816 93 816 c 0
 59 816 55 822 55 859 c 0
EndSplineSet
EndChar

StartChar: y
Encoding: 121 121 25
Width: 1234
VWidth: 0
Flags: HMW
PickledData: "(dp1
S'spacing_anchors_slanted'
p2
I00
s."
HStem: -603 86<175.337 363.754> 816 79<55 224 450 622 765 920 1038 1179>
AnchorPoint: "l;o" 70 453 basechar 0
AnchorPoint: "r;o" 1134 453 basechar 0
AnchorPoint: "l;bl" 70 40 basechar 0
AnchorPoint: "l;x" 0 852 basechar 0
AnchorPoint: "r;bl" 1014 40 basechar 0
AnchorPoint: "r;x" 1234 852 basechar 0
AnchorPoint: "l;lo" 11 -420 basechar 0
LayerCount: 3
Fore
SplineSet
55 854 m 0
 55 892 64 895 78 895 c 0
 105 895 293 890 347 890 c 0
 397 890 570 895 595 895 c 0
 615 895 622 890 622 854 c 0
 622 817 616 813 595 813 c 0
 581 813 571 814 455 816 c 1
 521 654 526 653 696 244 c 1
 703 244 l 1
 925 816 l 1
 825 814 807 813 795 813 c 0
 771 813 765 818 765 854 c 0
 765 889 772 894 796 894 c 0
 815 894 945 890 982 890 c 0
 1017 890 1139 895 1156 895 c 0
 1171 895 1179 890 1179 854 c 0
 1179 817 1172 813 1156 813 c 0
 1144 813 1137 814 1043 816 c 1
 865 432 856 381 626 -141 c 0
 506 -413 439 -603 251 -603 c 0
 100 -603 61 -490 61 -429 c 0
 61 -389 79 -323 154 -323 c 0
 235 -323 266 -386 266 -421 c 0
 266 -447 251 -472 251 -495 c 0
 251 -506 265 -517 286 -517 c 0
 318 -517 366 -493 407 -410 c 0
 477 -268 531 -151 599 19 c 1
 448 354 265 735 224 816 c 1
 113 814 99 813 85 813 c 0
 61 813 55 818 55 854 c 0
EndSplineSet
EndChar

StartChar: z
Encoding: 122 122 26
Width: 952
VWidth: 0
Flags: HMW
PickledData: "(dp1
S'spacing_anchors_slanted'
p2
I00
s."
HStem: 0 78<325 711> 812 84<243 605>
AnchorPoint: "l;o" 30 453 basechar 0
AnchorPoint: "r;o" 952 453 basechar 0
AnchorPoint: "l;bl" 0 40 basechar 0
AnchorPoint: "l;x" 0 852 basechar 0
AnchorPoint: "r;bl" 952 40 basechar 0
AnchorPoint: "r;x" 952 852 basechar 0
LayerCount: 3
Fore
SplineSet
50 22 m 0
 50 28 50 24 64 44 c 2
 605 802 l 1
 605 812 l 1
 265 812 l 2
 239 812 236 810 228 789 c 2
 170 645 l 2
 153 602 159 601 128 601 c 0
 102 601 101 602 101 636 c 2
 101 859 l 2
 101 894 110 896 125 896 c 2
 843 896 l 2
 859 896 865 882 865 874 c 0
 865 864 857 853 845 836 c 2
 325 92 l 1
 325 78 l 1
 676 78 l 2
 722 78 723 79 735 108 c 2
 798 262 l 2
 809 289 806 294 841 294 c 0
 872 294 872 285 872 271 c 2
 872 32 l 2
 872 3 870 0 850 0 c 2
 65 0 l 2
 57 0 50 19 50 22 c 0
EndSplineSet
EndChar

StartChar: A
Encoding: 65 65 27
Width: 1584
VWidth: 0
Flags: HMW
PickledData: "(dp1
S'spacing_anchors_slanted'
p2
I00
s."
HStem: 0 88<52.0022 215 348 564.998 931.002 1146 1379 1534> 471 77<532 949> 1364 20G<787.038 812.404>
AnchorPoint: "l;bl" 0 40 basechar 0
AnchorPoint: "l;x" 180 852 basechar 0
AnchorPoint: "l;hi" 360 1350 basechar 0
AnchorPoint: "l;o" 60 453 basechar 0
AnchorPoint: "r;bl" 1584 40 basechar 0
AnchorPoint: "r;x" 1404 852 basechar 0
AnchorPoint: "r;hi" 1224 1350 basechar 0
AnchorPoint: "r;o" 1524 453 basechar 0
LayerCount: 3
Fore
SplineSet
52 44 m 0
 52 87 60 93 77 93 c 0
 89 93 117 92 215 88 c 1
 381 440 533 790 743 1309 c 0
 772 1380 773 1384 801 1384 c 0
 824 1384 824 1383 854 1302 c 0
 957 1031 1187 503 1389 88 c 1
 1483 92 1495 93 1507 93 c 0
 1527 93 1534 87 1534 44 c 0
 1534 0 1526 -5 1502 -5 c 0
 1477 -5 1308 0 1254 0 c 0
 1196 0 976 -6 967 -6 c 0
 939 -6 931 0 931 44 c 0
 931 88 940 93 958 93 c 0
 977 93 1001 92 1151 88 c 1
 983 471 l 1
 495 471 l 1
 338 88 l 1
 490 92 514 93 533 93 c 0
 557 93 565 88 565 44 c 0
 565 0 557 -5 532 -5 c 0
 509 -5 332 0 300 0 c 0
 272 0 86 -6 79 -6 c 0
 61 -6 52 -1 52 44 c 0
529 548 m 1
 948 548 l 1
 745 1044 l 1
 735 1044 l 1
 529 548 l 1
EndSplineSet
EndChar

StartChar: B
Encoding: 66 66 28
Width: 1326
VWidth: 0
Flags: HMW
PickledData: "(dp1
S'spacing_anchors_slanted'
p2
I00
s."
HStem: 2 88<48.0197 266 490 872.822> 680 79<490 804.13> 1277 88<53.0197 266 489 615.984>
VStem: 268 222<91.2188 688 751.495 1277> 918 222<900.716 1206.13> 991 246<207.836 540.459>
AnchorPoint: "l;bl" 0 40 basechar 0
AnchorPoint: "l;x" 30 852 basechar 0
AnchorPoint: "l;hi" 0 1350 basechar 0
AnchorPoint: "l;o" 30 453 basechar 0
AnchorPoint: "r;bl" 1306 40 basechar 0
AnchorPoint: "r;x" 1306 852 basechar 0
AnchorPoint: "r;hi" 1306 1350 basechar 0
AnchorPoint: "r;o" 1326 453 basechar 0
LayerCount: 3
Fore
SplineSet
50 44 m 0xf4
 50 88 58 93 79 93 c 0
 85 93 205 90 268 88 c 1
 268 1275 l 1
 120 1271 102 1270 83 1270 c 0
 63 1270 55 1275 55 1319 c 0
 55 1364 64 1369 84 1369 c 0
 93 1369 319 1363 355 1363 c 0
 379 1363 641 1371 713 1371 c 0
 797 1371 905 1367 998 1308 c 0
 1090 1250 1140 1152 1140 1054 c 0xf8
 1140 908 1028 771 853 736 c 1
 853 729 l 1
 1021 723 1237 611 1237 360 c 0
 1237 277 1215 60 919 6 c 0
 848 -7 781 -8 706 -8 c 0
 615 -8 525 1 434 1 c 0
 364 1 117 -6 82 -6 c 0
 59 -6 50 -1 50 44 c 0xf4
490 92 m 1
 547 88 603 85 660 85 c 0
 838 85 991 144 991 379 c 0xf4
 991 665 796 684 653 684 c 0
 598 684 528 682 490 680 c 1
 490 92 l 1
490 759 m 1
 517 758 543 757 570 757 c 0
 721 757 918 769 918 1028 c 0xf8
 918 1258 784 1289 605 1289 c 0
 567 1289 528 1287 490 1284 c 1
 490 759 l 1
EndSplineSet
EndChar

StartChar: C
Encoding: 67 67 29
Width: 1402
VWidth: 0
Flags: HMW
PickledData: "(dp1
S'spacing_anchors_slanted'
p2
I00
s."
HStem: -51 86<636.367 1005.94> 1302 85<630.471 1020.31>
VStem: 100 265<380.136 942.15> 1196 81<974.043 1112.92> 1200 92<232.849 455.972>
AnchorPoint: "l;bl" 90 40 basechar 0
AnchorPoint: "l;x" 0 852 basechar 0
AnchorPoint: "l;hi" 60 1350 basechar 0
AnchorPoint: "l;o" 0 453 basechar 0
AnchorPoint: "r;bl" 1392 40 basechar 0
AnchorPoint: "r;x" 1402 852 basechar 0
AnchorPoint: "r;hi" 1402 1350 basechar 0
AnchorPoint: "r;o" 1402 453 basechar 0
LayerCount: 3
Fore
SplineSet
100 660 m 0xe8
 100 1189 477 1387 832 1387 c 0
 991 1387 1129 1347 1244 1277 c 0
 1262 1266 1277 1262 1277 1224 c 0
 1277 1043 1277 1021 1277 998 c 0
 1277 977 1274 974 1241 974 c 0
 1199 974 1205 980 1196 1007 c 0xf0
 1149 1149 1093 1302 820 1302 c 0
 761 1302 613 1300 495 1148 c 0
 392 1015 365 857 365 715 c 0
 365 402 435 266 496 188 c 0
 533 140 628 35 826 35 c 0
 915 35 997 58 1070 121 c 0
 1157 196 1184 282 1200 411 c 0
 1204 447 1198 456 1249 456 c 0
 1288 456 1292 450 1292 431 c 0
 1292 402 1292 389 1292 157 c 0
 1292 107 1285 72 1137 11 c 0
 1041 -29 927 -51 793 -51 c 0
 294 -51 100 299 100 660 c 0xe8
EndSplineSet
EndChar

StartChar: D
Encoding: 68 68 30
Width: 1619
VWidth: 0
Flags: HMW
PickledData: "(dp1
S'spacing_anchors_slanted'
p2
I00
s."
HStem: 0 88<50.0022 268 490 778.217> 1275 88<55.0022 268 490 736.154>
VStem: 268 222<92 1275> 1264 255<389.422 957.576>
AnchorPoint: "l;bl" 0 40 basechar 0
AnchorPoint: "l;x" 30 852 basechar 0
AnchorPoint: "l;hi" 0 1350 basechar 0
AnchorPoint: "l;o" 30 453 basechar 0
AnchorPoint: "r;x" 1619 852 basechar 0
AnchorPoint: "r;bl" 1559 40 basechar 0
AnchorPoint: "r;hi" 1559 1350 basechar 0
AnchorPoint: "r;o" 1619 453 basechar 0
LayerCount: 3
Fore
SplineSet
50 44 m 0
 50 87 58 93 83 93 c 0
 102 93 120 92 268 88 c 1
 268 1275 l 1
 123 1271 105 1270 87 1270 c 0
 63 1270 55 1276 55 1319 c 0
 55 1363 63 1368 89 1368 c 0
 116 1368 317 1363 355 1363 c 0
 401 1363 708 1373 796 1373 c 0
 912 1373 1049 1365 1185 1296 c 0
 1496 1139 1519 810 1519 670 c 0
 1519 313 1337 98 1113 23 c 0
 1017 -9 920 -15 816 -15 c 0
 694 -15 421 0 385 0 c 0
 358 0 123 -6 87 -6 c 0
 58 -6 50 0 50 44 c 0
490 92 m 1
 577 90 723 84 781 84 c 2
 788 84 l 2
 1223 84 1264 357 1264 655 c 0
 1264 964 1194 1092 1131 1156 c 0
 1028 1259 854 1281 739 1281 c 0
 679 1281 573 1275 490 1272 c 1
 490 92 l 1
EndSplineSet
EndChar

StartChar: E
Encoding: 69 69 31
Width: 1342
VWidth: 0
Flags: HMW
PickledData: "(dp1
S'spacing_anchors_slanted'
p2
I00
s."
HStem: 0 88<50.0022 268 490 1078.61> 649 82<490 796.174> 1275 88<55.0022 268 490 992.777>
VStem: 268 222<88 658 722 1275> 835 92<375.072 618.228 762.695 1016.99> 1091 88<984.001 1165> 1218 74<267.803 361.999>
AnchorPoint: "l;bl" 0 40 basechar 0
AnchorPoint: "l;x" 30 852 basechar 0
AnchorPoint: "l;hi" 0 1350 basechar 0
AnchorPoint: "l;o" 30 453 basechar 0
AnchorPoint: "r;bl" 1342 40 basechar 0
AnchorPoint: "r;x" 1322 852 basechar 0
AnchorPoint: "r;hi" 1322 1350 basechar 0
AnchorPoint: "r;o" 1342 453 basechar 0
LayerCount: 3
Fore
SplineSet
50 44 m 0
 50 87 58 93 83 93 c 0
 102 93 120 92 268 88 c 1
 268 1275 l 1
 127 1271 109 1270 91 1270 c 0
 62 1270 55 1276 55 1319 c 0
 55 1363 64 1368 93 1368 c 0
 101 1368 333 1363 369 1363 c 2
 1121 1363 l 2
 1175 1363 1179 1357 1179 1315 c 2
 1179 1017 l 2
 1179 987 1175 984 1135 984 c 0
 1080 984 1094 989 1081 1059 c 0
 1045 1260 958 1275 727 1275 c 2
 490 1275 l 1
 490 731 l 1
 584 731 l 2
 717 731 758 738 789 765 c 0
 827 799 826 833 833 975 c 0
 834 1002 847 1017 881 1017 c 0
 916 1017 927 999 927 973 c 0
 927 963 920 714 920 687 c 0
 920 660 929 429 929 420 c 0
 929 385 923 375 885 375 c 0
 830 375 838 396 831 488 c 0
 821 628 791 649 607 649 c 2
 490 649 l 1
 490 88 l 1
 799 88 l 2
 1093 88 1134 134 1205 324 c 0
 1217 357 1210 362 1255 362 c 0
 1289 362 1292 360 1292 339 c 2
 1292 44 l 2
 1292 5 1273 0 1255 0 c 2
 389 0 l 2
 345 0 117 -5 87 -5 c 0
 58 -5 50 0 50 44 c 0
EndSplineSet
EndChar

StartChar: F
Encoding: 70 70 32
Width: 1300
VWidth: 0
Flags: HMW
PickledData: "(dp1
S'spacing_anchors_slanted'
p2
I00
s."
HStem: 0 88<50.0022 268 490 743.999> 649 82<490 833.174> 1275 88<55.0022 268 490 1063.78>
VStem: 268 222<88 649 731 1275> 872 92<375.072 613.52 766.692 1016.99> 1162 88<984.001 1165>
AnchorPoint: "l;bl" 0 40 basechar 0
AnchorPoint: "l;x" 30 852 basechar 0
AnchorPoint: "l;hi" 0 1350 basechar 0
AnchorPoint: "l;o" 30 453 basechar 0
AnchorPoint: "r;bl" 1187 40 basechar 0
AnchorPoint: "r;x" 1207 852 basechar 0
AnchorPoint: "r;hi" 1300 1350 basechar 0
AnchorPoint: "r;o" 1187 453 basechar 0
LayerCount: 3
Fore
SplineSet
50 44 m 0
 50 88 58 93 81 93 c 0
 100 93 118 92 268 88 c 1
 268 1275 l 1
 120 1271 101 1270 83 1270 c 0
 63 1270 55 1275 55 1319 c 0
 55 1364 64 1369 86 1369 c 0
 114 1369 334 1363 369 1363 c 2
 1195 1363 l 2
 1248 1363 1250 1356 1250 1305 c 2
 1250 1009 l 2
 1250 988 1246 984 1206 984 c 0
 1154 984 1163 990 1157 1029 c 0
 1123 1256 1046 1275 798 1275 c 2
 490 1275 l 1
 490 731 l 1
 621 731 l 2
 754 731 795 738 826 765 c 0
 863 798 863 836 870 969 c 0
 872 1008 887 1017 918 1017 c 0
 958 1017 964 998 964 976 c 0
 964 967 957 718 957 687 c 0
 957 664 966 437 966 429 c 0
 966 399 959 375 922 375 c 0
 868 375 875 398 868 489 c 0
 858 629 826 649 644 649 c 2
 490 649 l 1
 490 88 l 1
 669 92 692 93 714 93 c 0
 739 93 744 88 744 44 c 0
 744 -1 738 -6 712 -6 c 0
 701 -6 418 0 378 0 c 0
 346 0 108 -6 78 -6 c 0
 59 -6 50 -1 50 44 c 0
EndSplineSet
EndChar

StartChar: G
Encoding: 71 71 33
Width: 1595
VWidth: 0
Flags: HMW
PickledData: "(dp1
S'spacing_anchors_slanted'
p2
I00
s."
HStem: -51 75<646.532 1025.39> 540 88<870.005 1121 1351 1544.99> 1290 97<615.068 1058.71>
VStem: 110 266<397.155 954.094> 1121 230<114 541> 1266 71<974.001 1072.78>
AnchorPoint: "l;bl" 60 40 basechar 0
AnchorPoint: "l;x" 0 852 basechar 0
AnchorPoint: "l;hi" 60 1350 basechar 0
AnchorPoint: "l;o" 0 453 basechar 0
AnchorPoint: "r;o" 1595 453 basechar 0
AnchorPoint: "r;bl" 1535 40 basechar 0
AnchorPoint: "r;x" 1535 852 basechar 0
AnchorPoint: "r;hi" 1535 1350 basechar 0
LayerCount: 3
Fore
SplineSet
110 683 m 0xf8
 110 1161 461 1387 832 1387 c 0
 1009 1387 1158 1336 1276 1263 c 0
 1328 1230 1337 1216 1337 1188 c 2
 1337 994 l 2xf4
 1337 977 1334 974 1301 974 c 0
 1258 974 1266 980 1255 1011 c 0
 1235 1071 1171 1290 836 1290 c 0
 719 1290 628 1271 545 1197 c 0
 411 1077 376 892 376 710 c 0
 376 429 417 289 491 188 c 0
 609 28 769 24 828 24 c 0
 957 24 1121 58 1121 193 c 2
 1121 540 l 1
 940 537 918 537 895 537 c 0
 877 537 870 541 870 585 c 0
 870 629 877 633 895 633 c 0
 926 633 1202 628 1229 628 c 0
 1254 628 1484 633 1515 633 c 0
 1538 633 1545 628 1545 585 c 0
 1545 542 1538 537 1519 537 c 0
 1502 537 1485 537 1351 540 c 1
 1351 180 l 2
 1351 100 1345 104 1303 80 c 0
 1153 -3 983 -51 812 -51 c 0
 408 -51 110 217 110 683 c 0xf8
EndSplineSet
EndChar

StartChar: H
Encoding: 72 72 34
Width: 1678
VWidth: 0
Flags: HMW
PickledData: "(dp1
S'spacing_anchors_slanted'
p2
I00
s."
HStem: 0 88<50.0022 268 490 707.998 970.002 1188 1410 1628> 650 87<490 1188> 1275 88<55.0022 268 490 702.998 975.002 1188 1410 1623>
VStem: 268 222<88 650 737 1275> 1188 222<88 650 737 1275>
AnchorPoint: "l;bl" 0 40 basechar 0
AnchorPoint: "l;x" 30 852 basechar 0
AnchorPoint: "l;hi" 0 1350 basechar 0
AnchorPoint: "l;o" 30 453 basechar 0
AnchorPoint: "r;bl" 1678 40 basechar 0
AnchorPoint: "r;x" 1648 852 basechar 0
AnchorPoint: "r;hi" 1678 1350 basechar 0
AnchorPoint: "r;o" 1648 453 basechar 0
LayerCount: 3
Fore
SplineSet
50 44 m 0
 50 87 58 93 82 93 c 0
 87 93 207 90 268 88 c 1
 268 1275 l 1
 128 1271 110 1270 93 1270 c 0
 63 1270 55 1276 55 1319 c 0
 55 1363 63 1368 94 1368 c 0
 102 1368 317 1363 374 1363 c 0
 419 1363 662 1369 671 1369 c 0
 695 1369 703 1364 703 1319 c 0
 703 1276 696 1270 672 1270 c 0
 667 1270 550 1273 490 1275 c 1
 490 737 l 1
 1188 737 l 1
 1188 1275 l 1
 1047 1271 1030 1270 1012 1270 c 0
 983 1270 975 1276 975 1319 c 0
 975 1363 983 1368 1013 1368 c 0
 1021 1368 1253 1363 1289 1363 c 0
 1337 1363 1557 1368 1587 1368 c 0
 1615 1368 1623 1363 1623 1319 c 0
 1623 1276 1616 1270 1591 1270 c 0
 1573 1270 1555 1271 1410 1275 c 1
 1410 88 l 1
 1562 92 1581 93 1600 93 c 0
 1620 93 1628 88 1628 44 c 0
 1628 0 1620 -5 1592 -5 c 0
 1563 -5 1345 0 1298 0 c 0
 1237 0 1033 -6 1003 -6 c 0
 979 -6 970 -1 970 44 c 0
 970 88 978 93 1000 93 c 0
 1019 93 1037 92 1188 88 c 1
 1188 650 l 1
 490 650 l 1
 490 88 l 1
 637 92 656 93 674 93 c 0
 701 93 708 87 708 44 c 0
 708 0 699 -5 665 -5 c 0
 634 -5 422 0 381 0 c 0
 351 0 323 -1 86 -5 c 0
 58 -5 50 0 50 44 c 0
EndSplineSet
EndChar

StartChar: I
Encoding: 73 73 35
Width: 758
VWidth: 0
Flags: HMW
PickledData: "(dp1
S'spacing_anchors_slanted'
p2
I00
s."
HStem: 0 88<50.0022 268 490 707.998> 1275 88<55.0022 268 490 702.998>
VStem: 268 222<88 1275>
AnchorPoint: "l;bl" 0 40 basechar 0
AnchorPoint: "l;x" 30 852 basechar 0
AnchorPoint: "l;hi" 0 1350 basechar 0
AnchorPoint: "l;o" 30 453 basechar 0
AnchorPoint: "r;bl" 758 40 basechar 0
AnchorPoint: "r;x" 728 852 basechar 0
AnchorPoint: "r;hi" 758 1350 basechar 0
AnchorPoint: "r;o" 728 453 basechar 0
LayerCount: 3
Fore
SplineSet
50 44 m 0
 50 88 58 93 81 93 c 0
 100 93 119 92 268 88 c 1
 268 1275 l 1
 119 1271 101 1270 82 1270 c 0
 64 1270 55 1275 55 1319 c 0
 55 1364 64 1369 83 1369 c 0
 92 1369 329 1363 369 1363 c 0
 410 1363 643 1369 673 1369 c 0
 695 1369 703 1364 703 1319 c 0
 703 1275 695 1270 675 1270 c 0
 657 1270 638 1271 490 1275 c 1
 490 88 l 1
 641 92 659 93 678 93 c 0
 700 93 708 88 708 44 c 0
 708 -1 699 -6 675 -6 c 0
 645 -6 425 0 378 0 c 0
 332 0 93 -6 83 -6 c 0
 58 -6 50 0 50 44 c 0
EndSplineSet
EndChar

StartChar: J
Encoding: 74 74 36
Width: 948
VWidth: 0
Flags: HMW
PickledData: "(dp1
S'spacing_anchors_slanted'
p2
I00
s."
HStem: -281 83<272.026 411.334> 1275 88<250.002 463 685 897.998>
VStem: 463 222<-100 1275>
AnchorPoint: "l;bl" 0 40 basechar 0
AnchorPoint: "l;x" 120 852 basechar 0
AnchorPoint: "l;hi" 200 1350 basechar 0
AnchorPoint: "l;o" 120 453 basechar 0
AnchorPoint: "r;bl" 918 40 basechar 0
AnchorPoint: "r;x" 918 852 basechar 0
AnchorPoint: "r;hi" 948 1350 basechar 0
AnchorPoint: "r;o" 918 453 basechar 0
LayerCount: 3
Fore
SplineSet
50 -75 m 0
 50 -11 88 33 144 33 c 0
 182 33 236 10 251 -54 c 0
 261 -95 248 -198 336 -198 c 0
 425 -198 463 -84 463 17 c 2
 463 1275 l 1
 403 1273 287 1270 282 1270 c 0
 257 1270 250 1276 250 1319 c 0
 250 1363 258 1368 286 1368 c 0
 314 1368 500 1363 564 1363 c 0
 608 1363 852 1369 862 1369 c 0
 890 1369 898 1363 898 1319 c 0
 898 1276 890 1270 863 1270 c 0
 845 1270 828 1271 685 1275 c 1
 685 225 l 2
 685 -17 667 -281 317 -281 c 0
 98 -281 50 -157 50 -75 c 0
EndSplineSet
EndChar

StartChar: K
Encoding: 75 75 37
Width: 1433
VWidth: 0
Flags: HMW
PickledData: "(dp1
S'spacing_anchors_slanted'
p2
I00
s."
HStem: 0 88<50.0022 268 490 696.998 1213.52 1383> 706 79<492.015 676> 1275 88<55.0022 268 490 710.998 840.002 1017 1179 1341>
VStem: 268 222<88 723.785 789 1275>
AnchorPoint: "l;bl" 0 40 basechar 0
AnchorPoint: "l;x" 30 852 basechar 0
AnchorPoint: "l;hi" 0 1350 basechar 0
AnchorPoint: "l;o" 30 453 basechar 0
AnchorPoint: "r;bl" 1433 40 basechar 0
AnchorPoint: "r;x" 1313 852 basechar 0
AnchorPoint: "r;hi" 1391 1350 basechar 0
AnchorPoint: "r;o" 1373 453 basechar 0
LayerCount: 3
Fore
SplineSet
50 44 m 0
 50 88 58 93 79 93 c 0
 85 93 205 90 268 88 c 1
 268 1275 l 1
 208 1273 92 1270 87 1270 c 0
 62 1270 55 1276 55 1319 c 0
 55 1364 63 1369 86 1369 c 0
 143 1369 337 1364 372 1364 c 0
 409 1364 610 1369 673 1369 c 0
 704 1369 711 1363 711 1319 c 0
 711 1276 703 1270 673 1270 c 0
 655 1270 636 1271 490 1275 c 1
 490 785 l 1
 533 789 575 791 620 791 c 0
 639 791 657 791 676 790 c 1
 818 952 990 1207 1027 1275 c 1
 913 1271 889 1270 875 1270 c 0
 848 1270 840 1277 840 1319 c 0
 840 1362 849 1368 882 1368 c 0
 925 1368 1057 1364 1096 1364 c 0
 1141 1364 1257 1369 1311 1369 c 0
 1333 1369 1341 1363 1341 1319 c 0
 1341 1276 1333 1270 1313 1270 c 0
 1300 1270 1271 1271 1164 1275 c 1
 1020 1083 885 908 779 773 c 1
 882 753 977 707 1027 676 c 0
 1134 609 1138 541 1151 408 c 2
 1173 190 l 2
 1177 148 1189 87 1250 87 c 0
 1272 87 1336 93 1358 93 c 0
 1376 93 1383 86 1383 44 c 0
 1383 0 1375 -6 1346 -6 c 0
 1330 -6 1315 -6 1300 -6 c 0
 1060 -6 1004 -3 968 90 c 0
 938 169 933 404 913 500 c 0
 896 583 863 715 604 715 c 0
 566 715 528 712 490 706 c 1
 490 88 l 1
 631 92 648 93 666 93 c 0
 690 93 697 87 697 44 c 0
 697 0 688 -5 655 -5 c 0
 537 -5 407 0 377 0 c 0
 333 0 89 -6 79 -6 c 0
 58 -6 50 1 50 44 c 0
EndSplineSet
EndChar

StartChar: L
Encoding: 76 76 38
Width: 1337
VWidth: 0
Flags: HMW
PickledData: "(dp1
S'spacing_anchors_slanted'
p2
I00
s."
HStem: 0 88<50.0059 268 490 1084.03> 1275 88<55.0066 268 490 757.994>
VStem: 268 222<88 1275> 1195 92<213.848 421.971>
AnchorPoint: "l;bl" 0 40 basechar 0
AnchorPoint: "l;x" 30 852 basechar 0
AnchorPoint: "l;hi" 0 1350 basechar 0
AnchorPoint: "l;o" 30 453 basechar 0
AnchorPoint: "r;bl" 1337 40 basechar 0
AnchorPoint: "r;x" 1157 852 basechar 0
AnchorPoint: "r;hi" 1157 1350 basechar 0
AnchorPoint: "r;o" 1337 453 basechar 0
LayerCount: 3
Fore
SplineSet
50 44 m 0
 50 87 58 93 83 93 c 0
 102 93 120 92 268 88 c 1
 268 1275 l 1
 127 1271 109 1270 91 1270 c 0
 62 1270 55 1276 55 1319 c 0
 55 1363 64 1368 93 1368 c 0
 105 1368 356 1363 389 1363 c 0
 423 1363 694 1369 728 1369 c 0
 750 1369 758 1364 758 1319 c 0
 758 1275 750 1270 730 1270 c 0
 712 1270 638 1271 490 1275 c 1
 490 88 l 1
 884 88 l 2
 1103 88 1173 183 1195 384 c 0
 1199 419 1202 422 1240 422 c 0
 1282 422 1287 417 1287 391 c 2
 1287 44 l 2
 1287 5 1268 0 1250 0 c 2
 389 0 l 2
 345 0 117 -5 87 -5 c 0
 58 -5 50 0 50 44 c 0
EndSplineSet
EndChar

StartChar: M
Encoding: 77 77 39
Width: 2028
VWidth: 0
Flags: HMW
PickledData: "(dp1
S'spacing_anchors_slanted'
p2
I00
s."
HStem: 0 88<50.0022 261 375 597.998 1338 1543 1765 1970> 25 21G<945.924 959 976.5 985 1002 1014.35> 1275 88<55.0022 261 375 390 1526 1543 1765 1970>
VStem: 266 104<88 1274> 1543 222<88 1275>
AnchorPoint: "l;bl" 0 40 basechar 0
AnchorPoint: "l;x" 30 852 basechar 0
AnchorPoint: "l;hi" 0 1350 basechar 0
AnchorPoint: "l;o" 30 453 basechar 0
AnchorPoint: "r;bl" 2028 40 basechar 0
AnchorPoint: "r;x" 1998 852 basechar 0
AnchorPoint: "r;hi" 2028 1350 basechar 0
AnchorPoint: "r;o" 1998 453 basechar 0
LayerCount: 3
Fore
SplineSet
50 44 m 0xb8
 50 87 58 93 84 93 c 0
 102 93 124 92 266 88 c 1
 266 1275 l 1
 208 1273 91 1270 86 1270 c 0
 63 1270 55 1276 55 1319 c 0
 55 1363 63 1368 90 1368 c 0
 118 1368 338 1363 369 1363 c 2
 571 1363 l 2
 609 1363 613 1341 619 1327 c 0
 788 982 912 708 1044 391 c 1
 1048 391 l 1
 1442 1330 l 2
 1455 1361 1457 1363 1483 1363 c 2
 1644 1363 l 2
 1676 1363 1902 1368 1931 1368 c 0
 1976 1368 1978 1362 1978 1322 c 0
 1978 1290 1978 1270 1928 1270 c 0
 1912 1270 1895 1271 1765 1275 c 1
 1765 88 l 1
 1822 90 1935 93 1939 93 c 0
 1966 93 1978 87 1978 48 c 0
 1978 1 1968 -5 1936 -5 c 0
 1928 -5 1700 0 1658 0 c 0
 1614 0 1373 -6 1363 -6 c 0
 1342 -6 1330 -1 1330 48 c 0
 1330 88 1340 93 1360 93 c 0
 1378 93 1397 92 1543 88 c 1xb8
 1543 1275 l 1
 1526 1275 l 1
 1342 860 1186 470 1021 66 c 0
 1005 27 1004 25 981 25 c 0x78
 959 25 955 28 938 66 c 2
 390 1274 l 1
 370 1274 l 1
 370 88 l 1
 434 90 561 93 567 93 c 0
 591 93 598 87 598 44 c 0
 598 0 590 -5 562 -5 c 0
 538 -5 357 0 321 0 c 0
 289 0 109 -5 85 -5 c 0
 57 -5 50 0 50 44 c 0xb8
EndSplineSet
EndChar

StartChar: N
Encoding: 78 78 40
Width: 1647
VWidth: 0
Flags: HMW
PickledData: "(dp1
S'spacing_anchors_slanted'
p2
I00
s."
HStem: -25 21G<1338.22 1374.72> 0 88<62.0059 261 365 572.994> 1275 88<50.0059 261 1089.01 1297 1401 1596.99>
VStem: 261 104<88 1153> 1297 104<372 1275>
AnchorPoint: "l;bl" 0 40 basechar 0
AnchorPoint: "l;x" 30 852 basechar 0
AnchorPoint: "l;hi" 0 1350 basechar 0
AnchorPoint: "l;o" 30 453 basechar 0
AnchorPoint: "r;bl" 1617 40 basechar 0
AnchorPoint: "r;x" 1617 852 basechar 0
AnchorPoint: "r;hi" 1647 1350 basechar 0
AnchorPoint: "r;o" 1617 453 basechar 0
LayerCount: 3
Fore
SplineSet
50 1319 m 0
 50 1363 58 1368 85 1368 c 0
 113 1368 334 1363 364 1363 c 2
 410 1363 l 2
 488 1363 474 1360 515 1312 c 2
 1291 372 l 9
 1297 372 l 1
 1297 1275 l 1
 1233 1273 1126 1270 1120 1270 c 0
 1096 1270 1089 1276 1089 1319 c 0
 1089 1363 1097 1369 1125 1369 c 0
 1149 1369 1310 1363 1346 1363 c 0
 1378 1363 1538 1369 1562 1369 c 0
 1590 1369 1597 1363 1597 1319 c 0x05c0
 1597 1276 1589 1270 1563 1270 c 0
 1545 1270 1543 1271 1401 1275 c 1
 1401 44 l 2
 1401 -22 1393 -26 1356 -26 c 0
 1320 -26 1329 -25 1283 31 c 2
 371 1153 l 1
 365 1153 l 1
 365 88 l 1
 429 90 536 93 542 93 c 0
 566 93 573 87 573 44 c 0
 573 0 565 -5 537 -5 c 0
 513 -5 352 0 316 0 c 0
 284 0 121 -5 97 -5 c 0
 69 -5 62 0 62 44 c 0x05c0
 62 87 70 93 96 93 c 0
 114 93 119 92 261 88 c 1
 261 1275 l 1
 203 1273 86 1270 81 1270 c 0
 58 1270 50 1276 50 1319 c 0
EndSplineSet
EndChar

StartChar: O
Encoding: 79 79 41
Width: 1464
VWidth: 0
Flags: HMW
PickledData: "(dp1
S'spacing_anchors_slanted'
p2
I00
s."
HStem: -50 97<589.756 899.005> 1295 86<569.418 897.492>
VStem: 100 251<374.174 953.435> 1120 244<362.009 954.149>
AnchorPoint: "l;bl" 60 40 basechar 0
AnchorPoint: "l;x" 0 852 basechar 0
AnchorPoint: "l;hi" 60 1350 basechar 0
AnchorPoint: "l;o" 0 453 basechar 0
AnchorPoint: "r;bl" 1404 40 basechar 0
AnchorPoint: "r;x" 1464 852 basechar 0
AnchorPoint: "r;hi" 1404 1350 basechar 0
AnchorPoint: "r;o" 1464 453 basechar 0
LayerCount: 3
Fore
SplineSet
100 662 m 0
 100 1134 383 1381 727 1381 c 0
 1027 1381 1364 1184 1364 653 c 0
 1364 229 1138 -50 732 -50 c 0
 338 -50 100 235 100 662 c 0
351 721 m 0
 351 394 449 47 744 47 c 0
 894 47 1120 147 1120 652 c 0
 1120 965 1044 1295 739 1295 c 0
 574 1295 351 1196 351 721 c 0
EndSplineSet
EndChar

StartChar: P
Encoding: 80 80 42
Width: 1297
VWidth: 0
Flags: HMW
PickledData: "(dp1
S'spacing_anchors_slanted'
p2
I00
s."
HStem: 0 88<50.0022 267 489 729.998> 580 77<489 875.482> 1275 88<55.0022 267>
VStem: 267 222<88 580 657 1275> 1006 241<802.862 1154.61>
AnchorPoint: "l;bl" 0 40 basechar 0
AnchorPoint: "l;x" 30 852 basechar 0
AnchorPoint: "l;hi" 0 1350 basechar 0
AnchorPoint: "l;o" 30 453 basechar 0
AnchorPoint: "r;bl" 1047 40 basechar 0
AnchorPoint: "r;x" 1297 852 basechar 0
AnchorPoint: "r;hi" 1297 1350 basechar 0
AnchorPoint: "r;o" 1197 453 basechar 0
LayerCount: 3
Fore
SplineSet
50 44 m 0
 50 87 58 93 83 93 c 0
 101 93 119 92 267 88 c 1
 267 1275 l 1
 123 1271 105 1270 87 1270 c 0
 63 1270 55 1276 55 1319 c 0
 55 1363 63 1369 89 1369 c 0
 117 1369 319 1363 371 1363 c 0
 421 1363 688 1372 779 1372 c 0
 1151 1372 1247 1139 1247 983 c 0
 1247 871 1198 706 994 627 c 0
 877 582 748 580 622 580 c 2
 489 580 l 1
 489 88 l 1
 646 92 666 93 686 93 c 0
 720 93 730 86 730 44 c 0
 730 1 721 -5 681 -5 c 0
 650 -5 421 0 369 0 c 0
 307 0 114 -5 86 -5 c 0
 57 -5 50 0 50 44 c 0
489 657 m 1
 629 657 l 2
 814 657 1006 663 1006 958 c 0
 1006 1224 862 1290 669 1290 c 0
 633 1290 597 1289 489 1284 c 1
 489 657 l 1
EndSplineSet
EndChar

StartChar: Q
Encoding: 81 81 43
Width: 1464
VWidth: 0
Flags: HMW
PickledData: "(dp1
S'spacing_anchors_slanted'
p2
I00
s."
HStem: -475 83<1065.06 1311.98> -49 96<765 903.535> 1295 86<567.585 894.192>
VStem: 98 251<376.562 953.641> 1118 244<361.595 944.863>
AnchorPoint: "r;o" 1464 453 basechar 0
AnchorPoint: "r;hi" 1404 1350 basechar 0
AnchorPoint: "r;x" 1464 852 basechar 0
AnchorPoint: "r;bl" 1404 40 basechar 0
AnchorPoint: "l;o" 0 453 basechar 0
AnchorPoint: "l;hi" 60 1350 basechar 0
AnchorPoint: "l;x" 0 852 basechar 0
AnchorPoint: "l;bl" 60 40 basechar 0
LayerCount: 3
Fore
SplineSet
98 662 m 0
 98 1135 382 1381 725 1381 c 0
 1018 1381 1362 1184 1362 653 c 0
 1362 258 1162 -33 765 -49 c 1
 765 -58 l 1
 858 -109 933 -108 967 -191 c 0
 1012 -301 1010 -392 1213 -392 c 2
 1231 -392 l 2
 1308 -392 1312 -404 1312 -436 c 0
 1312 -452 1310 -475 1265 -475 c 0
 629 -474 873 -301 620 -97 c 0
 509 -8 429 12 347 75 c 0
 187 198 98 404 98 662 c 0
349 721 m 0
 349 394 447 47 742 47 c 0
 892 47 1118 147 1118 652 c 0
 1118 965 1042 1295 737 1295 c 0
 572 1295 349 1196 349 721 c 0
EndSplineSet
EndChar

StartChar: R
Encoding: 82 82 44
Width: 1433
VWidth: 0
Flags: HMW
PickledData: "(dp1
S'spacing_anchors_slanted'
p2
I00
s."
HStem: -74 106<-4691.4 -4431 -4164.6 -3915 -3327 -3115.82> 0 88<50.0059 267 489 696.994 1185.93 1382.99> 683 75<489 786.5> 740 97<-4164.6 -3795.99> 1277 88<84.0698 267 489 835.906> 1456 106<-4685.4 -4431>
VStem: -4431 266<31.8 751.054 828.6 1456.2> -3670 293<1005.12 1377.68> 267 222<88 680.469 759 1275> 901 244<296.384 578.426 903.791 1208.57>
AnchorPoint: "l;bl" 0 40 basechar 0
AnchorPoint: "l;x" 30 852 basechar 0
AnchorPoint: "l;hi" 0 1350 basechar 0
AnchorPoint: "l;o" 30 453 basechar 0
AnchorPoint: "r;bl" 1433 40 basechar 0
AnchorPoint: "r;x" 1313 852 basechar 0
AnchorPoint: "r;hi" 1313 1350 basechar 0
AnchorPoint: "r;o" 1373 453 basechar 0
LayerCount: 3
Fore
SplineSet
50 44 m 0x6fc0
 50 88 58 93 81 93 c 0
 100 93 118 92 267 88 c 1
 267 1275 l 1
 120 1271 101 1270 83 1270 c 0
 63 1270 55 1275 55 1319 c 0
 55 1364 64 1369 86 1369 c 0
 115 1369 328 1363 371 1363 c 0
 414 1363 575 1371 711 1371 c 0
 852 1371 996 1354 1087 1230 c 0
 1124 1179 1145 1117 1145 1054 c 0
 1145 901 1023 762 822 719 c 1
 822 712 l 1
 1076 642 1131 608 1151 408 c 2
 1173 190 l 2
 1182 104 1209 88 1260 88 c 0
 1280 88 1338 93 1358 93 c 0
 1376 93 1383 86 1383 44 c 0
 1383 -1 1374 -6 1352 -6 c 0
 1329 -6 1307 -5 1125 -2 c 0
 896 2 985 137 913 468 c 0
 894 557 855 683 621 683 c 0
 595 683 555 682 489 678 c 1
 489 88 l 1
 633 92 651 93 669 93 c 0
 689 93 697 88 697 44 c 0
 697 -1 688 -6 666 -6 c 0
 636 -6 424 0 369 0 c 0
 322 0 90 -6 81 -6 c 0
 58 -6 50 0 50 44 c 0x6fc0
489 759 m 1
 517 758 545 758 573 758 c 0
 705 758 901 763 901 1025 c 0
 901 1260 782 1289 659 1289 c 0
 602 1289 546 1285 489 1284 c 1
 489 759 l 1
EndSplineSet
EndChar

StartChar: S
Encoding: 83 83 45
Width: 1151
VWidth: 0
Flags: HMW
PickledData: "(dp1
S'spacing_anchors_slanted'
p2
I00
s."
HStem: -39 99<389.474 742.364> 1314 87<425.218 766.635>
VStem: 110 98<231.311 455.724> 138 177<983.039 1198.88> 865 196<172.321 442.038> 888 78<1053 1176.18>
AnchorPoint: "l;bl" 0 40 basechar 0
AnchorPoint: "l;x" 30 852 basechar 0
AnchorPoint: "l;hi" 30 1350 basechar 0
AnchorPoint: "l;o" 0 453 basechar 0
AnchorPoint: "r;bl" 1101 40 basechar 0
AnchorPoint: "r;x" 1111 852 basechar 0
AnchorPoint: "r;hi" 1111 1350 basechar 0
AnchorPoint: "r;o" 1151 453 basechar 0
LayerCount: 3
Fore
SplineSet
110 171 m 2xe8
 110 429 l 2
 110 450 115 457 142 457 c 0
 199 457 177 444 208 333 c 0
 265 127 447 60 569 60 c 0
 678 60 865 112 865 320 c 0xe8
 865 663 138 520 138 1026 c 0
 138 1233 301 1401 589 1401 c 0
 775 1401 859 1348 921 1310 c 0
 938 1300 966 1282 966 1265 c 2
 966 1086 l 2
 966 1057 960 1053 928 1053 c 0
 895 1053 895 1053 888 1076 c 0
 844 1213 798 1313 586 1314 c 0
 418 1314 315 1208 315 1097 c 0xd4
 315 773 1061 847 1061 357 c 0
 1061 40 765 -39 568 -39 c 0
 415 -39 254 20 152 87 c 0
 127 103 110 104 110 171 c 2xe8
EndSplineSet
EndChar

StartChar: T
Encoding: 84 84 46
Width: 1433
VWidth: 0
Flags: HMW
PickledData: "(dp1
S'spacing_anchors_slanted'
p2
I00
s."
HStem: 0 88<358.002 606 828 1075> 1275 88<234.496 606 828 1196.5>
VStem: 50 88<1014 1167.44> 606 222<88 1275> 1295 88<1014 1162.47>
AnchorPoint: "l;bl" 151 40 basechar 0
AnchorPoint: "l;x" 150 852 basechar 0
AnchorPoint: "l;hi" 0 1350 basechar 0
AnchorPoint: "l;o" 151 453 basechar 0
AnchorPoint: "r;bl" 1283 40 basechar 0
AnchorPoint: "r;x" 1283 852 basechar 0
AnchorPoint: "r;hi" 1433 1350 basechar 0
AnchorPoint: "r;o" 1283 453 basechar 0
LayerCount: 3
Fore
SplineSet
50 1056 m 2
 50 1331 l 2
 50 1361 58 1363 84 1363 c 2
 1343 1363 l 2
 1381 1363 1383 1361 1383 1314 c 0
 1383 1225 1383 1136 1383 1047 c 0
 1383 1017 1379 1014 1339 1014 c 0
 1284 1014 1297 1019 1282 1078 c 0
 1238 1254 1170 1275 945 1275 c 2
 828 1275 l 1
 828 88 l 1
 1034 93 1043 94 1049 94 c 0
 1069 94 1075 88 1075 44 c 0
 1075 -1 1068 -6 1045 -6 c 0
 1044 -6 749 0 721 0 c 0
 694 0 402 -6 394 -6 c 0
 366 -6 358 0 358 44 c 0
 358 88 366 93 388 93 c 0
 410 93 432 92 606 88 c 1
 606 1275 l 1
 548 1275 l 2
 263 1275 195 1269 149 1071 c 0
 137 1019 148 1014 95 1014 c 0
 54 1014 50 1016 50 1056 c 2
EndSplineSet
EndChar

StartChar: U
Encoding: 85 85 47
Width: 1596
VWidth: 0
Flags: HMW
PickledData: "(dp1
S'spacing_anchors_slanted'
p2
I00
s."
HStem: -42 104<603.96 1111.45> 1277 88<50.0535 263 485 705.946 1025.34 1240 1344 1545.94>
VStem: 263 222<171.398 1275> 1240 104<182.578 1275>
AnchorPoint: "l;bl" 120 40 basechar 0
AnchorPoint: "l;x" 30 852 basechar 0
AnchorPoint: "l;hi" 0 1350 basechar 0
AnchorPoint: "l;o" 30 453 basechar 0
AnchorPoint: "r;bl" 1476 40 basechar 0
AnchorPoint: "r;x" 1566 852 basechar 0
AnchorPoint: "r;hi" 1596 1350 basechar 0
AnchorPoint: "r;o" 1566 453 basechar 0
LayerCount: 3
Fore
SplineSet
50 1319 m 0
 50 1363 58 1369 81 1369 c 0
 90 1369 358 1363 380 1363 c 0
 402 1363 643 1369 672 1369 c 0
 698 1369 706 1363 706 1319 c 0
 706 1276 699 1270 675 1270 c 0
 670 1270 547 1273 485 1275 c 1
 485 339 l 2
 485 233 503 62 825 62 c 0
 1233 62 1240 186 1240 491 c 2
 1240 1275 l 1
 1092 1271 1067 1270 1049 1270 c 0
 1034 1270 1025 1274 1025 1313 c 0
 1025 1363 1038 1368 1062 1368 c 0
 1084 1368 1260 1363 1287 1363 c 0
 1318 1363 1496 1369 1519 1369 c 0
 1537 1369 1546 1364 1546 1319 c 0
 1546 1275 1537 1270 1520 1270 c 0
 1503 1270 1482 1271 1344 1275 c 1
 1344 432 l 2
 1344 288 1335 45 1050 -20 c 0
 957 -41 837 -42 797 -42 c 0
 371 -42 263 119 263 360 c 2
 263 1275 l 1
 116 1271 97 1270 79 1270 c 0
 58 1270 50 1275 50 1319 c 0
EndSplineSet
EndChar

StartChar: V
Encoding: 86 86 48
Width: 1591
VWidth: 0
Flags: HMW
PickledData: "(dp1
S'spacing_anchors_slanted'
p2
I00
s."
HStem: -36 21G<821 851> 1275 88<28.0472 218.479 463 665.946 1065.05 1247 1350.93 1518.95>
AnchorPoint: "l;bl" 420 40 basechar 0
AnchorPoint: "l;x" 120 852 basechar 0
AnchorPoint: "l;hi" 0 1350 basechar 0
AnchorPoint: "l;o" 240 453 basechar 0
AnchorPoint: "r;bl" 1171 40 basechar 0
AnchorPoint: "r;x" 1471 852 basechar 0
AnchorPoint: "r;hi" 1591 1350 basechar 0
AnchorPoint: "r;o" 1351 453 basechar 0
LayerCount: 3
Fore
SplineSet
50 1319 m 0
 50 1363 58 1369 84 1369 c 0
 112 1369 302 1363 364 1363 c 0
 416 1363 643 1369 652 1369 c 0
 680 1369 688 1363 688 1319 c 0
 688 1276 680 1270 654 1270 c 0
 636 1270 628 1271 485 1275 c 1
 641 947 773 666 910 328 c 1
 919 328 l 1
 1020 628 1137 941 1269 1275 c 1
 1162 1271 1138 1270 1125 1270 c 0
 1095 1270 1087 1277 1087 1319 c 0
 1087 1361 1099 1368 1134 1368 c 0
 1138 1368 1310 1363 1346 1363 c 0
 1385 1363 1495 1368 1511 1368 c 0
 1533 1368 1541 1362 1541 1319 c 0
 1541 1276 1534 1270 1514 1270 c 0
 1503 1270 1480 1271 1390 1275 c 1
 1338 1141 1022 354 907 16 c 0
 892 -30 887 -36 859 -36 c 0
 827 -36 824 -32 782 67 c 0
 574 553 376 967 218 1275 c 1
 97 1271 96 1270 81 1270 c 0
 57 1270 50 1276 50 1319 c 0
EndSplineSet
EndChar

StartChar: W
Encoding: 87 87 49
Width: 2209
VWidth: 0
Flags: HMW
PickledData: "(dp1
S'spacing_anchors_slanted'
p2
I00
s."
HStem: -36 21G<691.5 728.5 1506 1551> 1275 88<50.0022 233 475 687.998 860.002 1058 1315 1488 1705 1877 2013 2153>
AnchorPoint: "r;o" 2029 453 basechar 0
AnchorPoint: "r;hi" 2209 1350 basechar 0
AnchorPoint: "r;x" 2119 852 basechar 0
AnchorPoint: "r;bl" 1879 40 basechar 0
AnchorPoint: "l;o" 180 453 basechar 0
AnchorPoint: "l;hi" 0 1350 basechar 0
AnchorPoint: "l;x" 90 852 basechar 0
AnchorPoint: "l;bl" 330 40 basechar 0
LayerCount: 3
Fore
SplineSet
50 1319 m 0
 50 1363 58 1369 84 1369 c 0
 112 1369 302 1363 364 1363 c 0
 416 1363 643 1369 652 1369 c 0
 680 1369 688 1363 688 1319 c 0
 688 1276 680 1270 654 1270 c 0
 636 1270 618 1271 475 1275 c 1
 564 1016 628 829 766 373 c 1
 779 373 l 1
 888 748 964 976 1063 1275 c 1
 934 1271 913 1270 897 1270 c 0
 868 1270 860 1277 860 1319 c 0
 860 1363 868 1368 898 1368 c 0
 906 1368 1116 1363 1164 1363 c 0
 1208 1363 1451 1369 1461 1369 c 0
 1485 1369 1493 1363 1493 1319 c 0
 1493 1276 1486 1270 1463 1270 c 0
 1448 1270 1433 1271 1315 1275 c 1
 1408 998 1464 814 1588 376 c 1
 1596 376 l 1
 1704 736 1797 1016 1887 1275 c 1
 1780 1271 1756 1270 1743 1270 c 0
 1713 1270 1705 1277 1705 1319 c 0
 1705 1361 1717 1368 1752 1368 c 0
 1756 1368 1928 1363 1964 1363 c 0
 2003 1363 2113 1368 2129 1368 c 0
 2151 1368 2159 1362 2159 1319 c 0
 2159 1276 2152 1270 2132 1270 c 0
 2121 1270 2098 1271 2008 1275 c 1
 1862 881 1729 487 1600 81 c 0
 1563 -35 1568 -36 1534 -36 c 0
 1478 -36 1493 -31 1459 81 c 0
 1353 434 1240 798 1123 1142 c 1
 1120 1142 l 1
 1015 882 882 430 773 63 c 0
 744 -35 742 -36 711 -36 c 0
 668 -36 671 -28 642 63 c 0
 485 550 341 971 228 1275 c 1
 107 1271 96 1270 81 1270 c 0
 57 1270 50 1276 50 1319 c 0
EndSplineSet
EndChar

StartChar: X
Encoding: 88 88 50
Width: 1616
VWidth: 0
Flags: HMW
PickledData: "(dp1
S'spacing_anchors_slanted'
p2
I00
s."
HStem: 0 88<50.0059 263.231 382 577.993 900.006 1124 1376.42 1565.99> 1275 88<50.0059 253.571 505 702.994 1007.01 1199 1302.51 1500.99>
AnchorPoint: "l;bl" 0 40 basechar 0
AnchorPoint: "l;x" 90 852 basechar 0
AnchorPoint: "l;hi" 0 1350 basechar 0
AnchorPoint: "l;o" 90 453 basechar 0
AnchorPoint: "r;bl" 1616 40 basechar 0
AnchorPoint: "r;x" 1526 852 basechar 0
AnchorPoint: "r;hi" 1551 1350 basechar 0
AnchorPoint: "r;o" 1526 453 basechar 0
LayerCount: 3
Fore
SplineSet
50 44 m 0
 50 88 58 93 81 93 c 0
 100 93 86 92 235 88 c 1
 544 486 598 536 702 654 c 1
 563 828 518 906 227 1280 c 1
 136 1275 96 1270 81 1270 c 0
 57 1270 50 1276 50 1319 c 0
 50 1363 58 1369 84 1369 c 0
 112 1369 302 1363 364 1363 c 0
 416 1363 658 1369 667 1369 c 0
 695 1369 703 1363 703 1319 c 0
 703 1276 695 1270 669 1270 c 0
 651 1270 648 1271 505 1275 c 1
 645 1098 804 872 841 820 c 1
 903 914 1085 1124 1199 1275 c 1
 1092 1271 1058 1270 1045 1270 c 0
 1015 1270 1007 1277 1007 1319 c 0
 1007 1361 1019 1368 1054 1368 c 0
 1058 1368 1250 1363 1286 1363 c 0
 1325 1363 1455 1368 1471 1368 c 0
 1493 1368 1501 1362 1501 1319 c 0
 1501 1276 1489 1270 1469 1270 c 0
 1458 1270 1426 1271 1336 1275 c 1
 1092 960 974 828 892 748 c 1
 997 621 1195 363 1406 88 c 1
 1557 92 1517 93 1536 93 c 0
 1558 93 1566 88 1566 44 c 0
 1566 -1 1557 -6 1533 -6 c 0
 1503 -6 1290 0 1243 0 c 0
 1197 0 943 -6 933 -6 c 0
 908 -6 900 0 900 44 c 0
 900 88 908 93 931 93 c 0
 950 93 975 88 1124 84 c 1
 907 371 829 485 758 584 c 1
 706 497 618 417 382 88 c 1
 533 92 529 93 548 93 c 0
 570 93 578 88 578 44 c 0
 578 -1 569 -6 545 -6 c 0
 515 -6 355 0 308 0 c 0
 262 0 93 -6 83 -6 c 0
 58 -6 50 0 50 44 c 0
EndSplineSet
EndChar

StartChar: Y
Encoding: 89 89 51
Width: 1506
VWidth: 0
Flags: HMW
PickledData: "(dp1
S'spacing_anchors_slanted'
p2
I00
s."
HStem: 0 88<484.006 704 926 1141.99> 1275 88<50.0472 247.925 485 687.946 997.054 1179 1276.71 1450.95>
VStem: 704 222<88 623.99>
AnchorPoint: "l;bl" 240 40 basechar 0
AnchorPoint: "l;x" 150 852 basechar 0
AnchorPoint: "l;hi" 0 1350 basechar 0
AnchorPoint: "l;o" 180 453 basechar 0
AnchorPoint: "r;bl" 1296 40 basechar 0
AnchorPoint: "r;x" 1356 852 basechar 0
AnchorPoint: "r;hi" 1506 1350 basechar 0
AnchorPoint: "r;o" 1326 453 basechar 0
LayerCount: 3
Fore
SplineSet
50 1319 m 0
 50 1363 58 1369 84 1369 c 0
 112 1369 302 1363 364 1363 c 0
 416 1363 643 1369 652 1369 c 0
 680 1369 688 1363 688 1319 c 0
 688 1276 680 1270 654 1270 c 0
 636 1270 628 1271 485 1275 c 1
 613 1079 749 881 870 683 c 1
 879 683 l 1
 972 881 1067 1056 1189 1275 c 1
 1082 1271 1063 1270 1050 1270 c 0
 1020 1270 1012 1277 1012 1319 c 0
 1012 1361 1024 1368 1059 1368 c 0
 1063 1368 1235 1363 1271 1363 c 0
 1310 1363 1420 1368 1436 1368 c 0
 1458 1368 1466 1362 1466 1319 c 0
 1466 1276 1459 1270 1439 1270 c 0
 1428 1270 1410 1271 1320 1275 c 1
 1185 1056 1063 847 950 614 c 0
 929 572 926 540 926 486 c 2
 926 88 l 1
 1077 92 1093 93 1112 93 c 0
 1134 93 1142 88 1142 44 c 0
 1142 -1 1133 -6 1109 -6 c 0
 1079 -6 859 0 812 0 c 0
 766 0 527 -6 517 -6 c 0
 492 -6 484 0 484 44 c 0
 484 88 492 93 515 93 c 0
 534 93 555 92 704 88 c 1
 704 504 l 2
 704 560 681 591 661 624 c 0
 532 838 378 1059 218 1275 c 1
 97 1271 96 1270 81 1270 c 0
 57 1270 50 1276 50 1319 c 0
EndSplineSet
EndChar

StartChar: Z
Encoding: 90 90 52
Width: 1300
VWidth: 0
Flags: HMW
PickledData: "(dp1
S'spacing_anchors_slanted'
p2
I00
s."
HStem: 0 88<389.011 1066.88> 1267 96<255.906 913>
VStem: 114 79<983.02 1071.75> 1166 84<377 408.917>
AnchorPoint: "l;bl" 0 40 basechar 0
AnchorPoint: "l;x" 0 852 basechar 0
AnchorPoint: "l;hi" 0 1350 basechar 0
AnchorPoint: "l;o" 0 453 basechar 0
AnchorPoint: "r;bl" 1300 40 basechar 0
AnchorPoint: "r;x" 1300 852 basechar 0
AnchorPoint: "r;hi" 1300 1350 basechar 0
AnchorPoint: "r;o" 1300 453 basechar 0
LayerCount: 3
Fore
SplineSet
50 19 m 0
 50 23 51 21 63 39 c 2
 913 1257 l 1
 913 1267 l 1
 303 1267 l 2
 272 1267 270 1266 259 1233 c 2
 193 1027 l 1
 181 985 177 983 150 983 c 0
 117 983 114 984 114 1020 c 2
 114 1326 l 2
 114 1361 117 1363 132 1363 c 2
 1216 1363 l 2
 1219 1363 1233 1349 1233 1344 c 0
 1233 1339 1224 1327 1208 1303 c 2
 406 136 l 2
 395 119 389 108 389 101 c 0
 389 90 404 88 440 88 c 2
 1023 88 l 2
 1050 88 1052 91 1062 117 c 2
 1166 377 l 2
 1178 408 1176 409 1219 409 c 0
 1250 409 1250 402 1250 386 c 2
 1250 32 l 2
 1250 3 1248 0 1228 0 c 2
 63 0 l 2
 58 0 50 9 50 19 c 0
EndSplineSet
EndChar

StartChar: semicolon
Encoding: 59 59 53
Width: 576
VWidth: 0
Flags: HMW
PickledData: "(dp1
S'spacing_anchors_slanted'
p2
I00
s."
AnchorPoint: "r;bl" 576 40 basechar 0
AnchorPoint: "l;bl" 0 40 basechar 0
AnchorPoint: "l;x" 40 852 basechar 0
AnchorPoint: "l;o" 0 453 basechar 0
AnchorPoint: "r;x" 536 852 basechar 0
AnchorPoint: "r;o" 576 453 basechar 0
LayerCount: 3
Fore
SplineSet
90 101 m 0
 90 217 208 246 265 246 c 0
 337 246 486 187 486 -19 c 0
 486 -270 241 -472 201 -472 c 0
 188 -472 157 -448 157 -423 c 0
 157 -414 161 -404 172 -396 c 0
 369 -246 397 -98 397 -10 c 0
 397 9 396 64 343 64 c 0
 291 64 285 -14 200 -14 c 0
 136 -14 90 33 90 101 c 0
170 694 m 0
 170 765 231 816 294 816 c 0
 365 816 414 755 414 695 c 0
 414 630 360 573 292 573 c 0
 225 573 170 627 170 694 c 0
EndSplineSet
EndChar

StartChar: period
Encoding: 46 46 54
Width: 442
VWidth: 0
Flags: HMW
PickledData: "(dp1
S'spacing_anchors_slanted'
p2
I00
s."
AnchorPoint: "l;bl" 0 40 basechar 0
AnchorPoint: "r;bl" 442 40 basechar 0
LayerCount: 3
Fore
SplineSet
90 84 m 0
 90 154 145 215 220 215 c 0
 289 215 352 159 352 85 c 0
 352 15 295 -46 220 -46 c 0
 148 -46 90 13 90 84 c 0
EndSplineSet
EndChar

StartChar: hyphen
Encoding: 45 45 55
Width: 670
VWidth: 0
Flags: HMW
PickledData: "(dp1
S'spacing_anchors_slanted'
p2
I00
s."
AnchorPoint: "l;o" 0 453 basechar 0
AnchorPoint: "r;o" 670 453 basechar 0
LayerCount: 3
Fore
SplineSet
60 479 m 0
 60 549 73 552 100 552 c 2
 575 554 l 2
 606 554 610 542 610 482 c 0
 610 420 606 403 575 403 c 0
 527 403 480 404 100 405 c 0
 79 405 60 406 60 479 c 0
EndSplineSet
EndChar

StartChar: comma
Encoding: 44 44 56
Width: 576
VWidth: 0
Flags: HMW
PickledData: "(dp1
S'spacing_anchors_slanted'
p2
I00
s."
AnchorPoint: "l;bl" 0 40 basechar 0
AnchorPoint: "r;bl" 576 40 basechar 0
LayerCount: 3
Fore
SplineSet
90 101 m 0
 90 217 208 246 265 246 c 0
 336 246 486 187 486 -19 c 0
 486 -268 242 -472 201 -472 c 0
 180 -472 156 -439 156 -422 c 0
 156 -411 161 -404 172 -396 c 0
 369 -245 397 -98 397 -9 c 0
 397 9 395 64 344 64 c 0
 289 64 285 -14 200 -14 c 0
 136 -14 90 33 90 101 c 0
EndSplineSet
EndChar

StartChar: quotedblleft
Encoding: 8220 8220 57
Width: 1079
VWidth: 0
Flags: HMW
PickledData: "(dp1
S'spacing_anchors_slanted'
p2
I00
s."
AnchorPoint: "l;x" 0 852 basechar 0
AnchorPoint: "l;hi" 0 1350 basechar 0
AnchorPoint: "l;o" 60 453 basechar 0
AnchorPoint: "r;x" 1079 852 basechar 0
AnchorPoint: "r;hi" 1079 1350 basechar 0
AnchorPoint: "r;o" 1019 453 basechar 0
LayerCount: 3
Fore
SplineSet
100 995 m 0
 100 1187 291 1357 316 1357 c 0
 336 1357 367 1323 367 1308 c 0
 367 1285 206 1186 206 1019 c 0
 206 1005 206 976 236 976 c 0
 262 976 281 1007 327 1007 c 0
 384 1007 425 969 425 913 c 0
 425 857 382 784 285 784 c 0
 180 784 100 866 100 995 c 0
654 995 m 0
 654 1187 845 1357 870 1357 c 0
 890 1357 921 1323 921 1308 c 0
 921 1285 760 1186 760 1019 c 0
 760 1005 760 976 790 976 c 0
 816 976 835 1007 881 1007 c 0
 938 1007 979 969 979 913 c 0
 979 857 935 784 838 784 c 0
 734 784 654 866 654 995 c 0
EndSplineSet
EndChar

StartChar: quoteright
Encoding: 8217 8217 58
Width: 525
VWidth: 0
Flags: HMW
PickledData: "(dp1
S'spacing_anchors_slanted'
p2
I00
s."
AnchorPoint: "l;x" 0 852 basechar 0
AnchorPoint: "l;hi" 0 1350 basechar 0
AnchorPoint: "l;o" 60 453 basechar 0
AnchorPoint: "r;x" 525 852 basechar 0
AnchorPoint: "r;hi" 525 1350 basechar 0
AnchorPoint: "r;o" 465 453 basechar 0
LayerCount: 3
Fore
SplineSet
100 1226 m 0
 100 1282 143 1355 240 1355 c 0
 345 1355 425 1273 425 1144 c 0
 425 952 234 782 209 782 c 0
 189 782 158 816 158 831 c 0
 158 854 319 953 319 1120 c 0
 319 1134 319 1163 289 1163 c 0
 263 1163 244 1132 198 1132 c 0
 141 1132 100 1170 100 1226 c 0
EndSplineSet
EndChar

StartChar: quoteleft
Encoding: 8216 8216 59
Width: 525
VWidth: 0
Flags: HMW
PickledData: "(dp1
S'spacing_anchors_slanted'
p2
I00
s."
AnchorPoint: "l;x" 0 852 basechar 0
AnchorPoint: "l;hi" 0 1350 basechar 0
AnchorPoint: "l;o" 60 453 basechar 0
AnchorPoint: "r;x" 525 852 basechar 0
AnchorPoint: "r;hi" 525 1350 basechar 0
AnchorPoint: "r;o" 465 453 basechar 0
LayerCount: 3
Fore
SplineSet
100 995 m 0
 100 1187 291 1357 316 1357 c 0
 336 1357 367 1323 367 1308 c 0
 367 1285 206 1186 206 1019 c 0
 206 1005 206 976 236 976 c 0
 262 976 281 1007 327 1007 c 0
 384 1007 425 969 425 913 c 0
 425 857 382 784 285 784 c 0
 180 784 100 866 100 995 c 0
EndSplineSet
EndChar

StartChar: quotedblright
Encoding: 8221 8221 60
Width: 1079
VWidth: 0
Flags: HMW
PickledData: "(dp1
S'spacing_anchors_slanted'
p2
I00
s."
AnchorPoint: "l;x" 0 852 basechar 0
AnchorPoint: "l;hi" 0 1350 basechar 0
AnchorPoint: "l;o" 60 453 basechar 0
AnchorPoint: "r;x" 1079 852 basechar 0
AnchorPoint: "r;hi" 1079 1350 basechar 0
AnchorPoint: "r;o" 1019 453 basechar 0
LayerCount: 3
Fore
SplineSet
100 1226 m 0
 100 1282 144 1355 241 1355 c 0
 345 1354 425 1273 425 1144 c 0
 425 952 234 782 209 782 c 0
 189 782 158 816 158 831 c 0
 158 854 319 953 319 1120 c 0
 319 1134 319 1163 289 1163 c 0
 263 1163 244 1132 198 1132 c 0
 141 1132 100 1170 100 1226 c 0
654 1226 m 0
 654 1282 698 1355 795 1355 c 0
 899 1354 979 1273 979 1144 c 0
 979 952 788 782 763 782 c 0
 743 782 712 816 712 831 c 0
 712 854 873 953 873 1120 c 0
 873 1134 873 1163 843 1163 c 0
 817 1163 797 1132 751 1132 c 0
 698 1132 654 1168 654 1226 c 0
EndSplineSet
EndChar

StartChar: colon
Encoding: 58 58 61
Width: 621
VWidth: 0
Flags: HMW
PickledData: "(dp1
S'spacing_anchors_slanted'
p2
I00
s."
AnchorPoint: "l;bl" 0 40 basechar 0
AnchorPoint: "r;bl" 621 40 basechar 0
AnchorPoint: "l;x" 40 852 basechar 0
AnchorPoint: "l;o" 0 453 basechar 0
AnchorPoint: "r;x" 581 852 basechar 0
AnchorPoint: "r;o" 621 453 basechar 0
LayerCount: 3
Fore
SplineSet
180 84 m 0
 180 154 235 215 310 215 c 0
 379 215 441 159 441 85 c 0
 441 15 385 -46 310 -46 c 0
 238 -46 180 13 180 84 c 0
180 695 m 0
 180 765 235 826 310 826 c 0
 379 826 441 770 441 696 c 0
 441 626 385 565 310 565 c 0
 238 565 180 624 180 695 c 0
EndSplineSet
EndChar

StartChar: ampersand
Encoding: 38 38 62
Width: 1522
VWidth: 0
Flags: HMW
PickledData: "(dp1
S'spacing_anchors_slanted'
p2
I00
s."
HStem: -34 129<462.525 707.797 1093.25 1276.61> 737 88<918.005 1137 1232.84 1471.99> 1309 83<669.225 850.475>
VStem: 100 216<263.221 520.766> 441 175<920.876 1221.56> 892 136<1014.13 1269.2> 1137 104<552.875 737> 1376 82<209.58 341.988>
AnchorPoint: "l;bl" 60 40 basechar 0
AnchorPoint: "l;x" 120 852 basechar 0
AnchorPoint: "l;hi" 240 1350 basechar 0
AnchorPoint: "l;o" 0 453 basechar 0
AnchorPoint: "r;bl" 1522 40 basechar 0
AnchorPoint: "r;x" 1522 852 basechar 0
AnchorPoint: "r;hi" 1282 1350 basechar 0
AnchorPoint: "r;o" 1522 453 basechar 0
LayerCount: 3
Fore
SplineSet
100 342 m 0
 100 615 344 718 485 788 c 1
 485 788 441 893 441 1023 c 0
 441 1297 634 1392 772 1392 c 0
 918 1392 1028 1294 1028 1160 c 0
 1028 1034 930 895 708 800 c 1
 822 573 839 534 961 316 c 1
 1041 393 1120 558 1137 737 c 1
 1107 737 966 734 943 734 c 0
 925 734 918 738 918 782 c 0
 918 826 925 830 943 830 c 0
 974 830 1163 825 1190 825 c 0
 1215 825 1411 830 1442 830 c 0
 1465 830 1472 825 1472 782 c 0
 1472 739 1465 734 1446 734 c 0
 1429 734 1375 734 1241 737 c 1
 1224 662 1215 479 1010 235 c 1
 1012 233 1076 107 1188 107 c 0
 1292 107 1358 224 1376 305 c 0
 1381 326 1389 342 1417 342 c 0
 1440 342 1458 328 1458 307 c 0
 1458 185 1342 -32 1123 -32 c 0
 989 -32 920 38 852 94 c 1
 783 54 683 -34 503 -34 c 0
 298 -34 100 99 100 342 c 0
316 447 m 0
 316 308 401 95 605 95 c 0
 727 95 795 168 795 168 c 1
 795 168 784 187 782 190 c 0
 586 498 524 708 511 716 c 1
 500 716 406 667 361 604 c 0
 332 564 316 511 316 447 c 0
616 1116 m 0
 616 1008 680 872 680 872 c 1
 680 872 892 934 892 1143 c 0
 892 1247 833 1309 760 1309 c 0
 703 1309 616 1262 616 1116 c 0
EndSplineSet
EndChar

StartChar: eight
Encoding: 56 56 63
Width: 1151
VWidth: -10
Flags: HMW
PickledData: "(dp1
S'spacing_anchors_slanted'
p2
I00
s."
HStem: -46 74<434.803 727.825> 1287 89<429.238 711.317>
VStem: 110 178<172.923 504.173> 157 187<938.076 1176.9> 806 180<890.319 1190.26> 851 190<169.738 439.805>
AnchorPoint: "l;bl" 0 40 basechar 0
AnchorPoint: "l;x" 0 852 basechar 0
AnchorPoint: "l;hi" 0 1350 basechar 0
AnchorPoint: "l;o" 0 453 basechar 0
AnchorPoint: "r;bl" 1151 40 basechar 0
AnchorPoint: "r;x" 1151 852 basechar 0
AnchorPoint: "r;hi" 1151 1350 basechar 0
AnchorPoint: "r;o" 1151 453 basechar 0
LayerCount: 3
Fore
SplineSet
110 334 m 0xe4
 110 563 291 652 403 687 c 1
 353 714 157 809 157 1021 c 0
 157 1118 231 1376 599 1376 c 0
 824 1376 986 1241 986 1038 c 0xd8
 986 857 829 778 758 737 c 1
 800 719 1041 617 1041 343 c 0
 1041 94 811 -46 591 -46 c 0
 346 -46 110 101 110 334 c 0xe4
288 343 m 0xe4
 288 67 502 28 584 28 c 0
 764 28 851 154 851 297 c 0
 851 521 579 615 489 651 c 1
 403 614 288 538 288 343 c 0xe4
344 1087 m 0xd8
 344 883 507 843 676 770 c 1
 696 779 806 850 806 1025 c 0
 806 1151 742 1287 580 1287 c 0
 426 1287 344 1197 344 1087 c 0xd8
EndSplineSet
AlternateSubs2: "'aalt' Access All Alternates in Latin lookup 0 subtable" eight.lnum
Substitution2: "lnum subtable" eight.lnum
EndChar

StartChar: seven
Encoding: 55 55 64
Width: 1051
VWidth: -431
Flags: HMW
PickledData: "(dp1
S'spacing_anchors_slanted'
p2
I00
s."
HStem: -449 21G<249.5 391.5> 743 181<305.828 778.173>
VStem: 97 92<543.935 575>
AnchorPoint: "l;bl" 0 40 basechar 0
AnchorPoint: "l;x" 0 852 basechar 0
AnchorPoint: "l;o" 0 453 basechar 0
AnchorPoint: "l;lo" 0 -420 basechar 0
AnchorPoint: "r;bl" 856 40 basechar 0
AnchorPoint: "r;x" 1051 852 basechar 0
AnchorPoint: "r;o" 991 453 basechar 0
AnchorPoint: "r;lo" 766 -420 basechar 0
LayerCount: 3
Fore
SplineSet
97 587 m 0
 97 598 100 594 122 640 c 2
 247 897 l 2
 260 923 266 940 300 940 c 0
 334 940 468 924 580 924 c 0
 692 924 951 940 966 940 c 0
 994 940 1001 913 1001 900 c 0
 1001 840 845 776 649 338 c 0
 360 -308 492 -449 291 -449 c 0
 208 -449 197 -432 197 -374 c 0
 197 -270 319 26 501 337 c 0
 570 455 677 599 786 748 c 9
 782 754 l 17
 690 744 584 743 512 743 c 0
 420 743 329 754 309 754 c 0
 287 754 277 748 263 722 c 2
 189 575 l 2
 177 552 174 541 158 541 c 0
 133 541 97 565 97 587 c 0
EndSplineSet
AlternateSubs2: "'aalt' Access All Alternates in Latin lookup 0 subtable" seven.lnum
Substitution2: "lnum subtable" seven.lnum
EndChar

StartChar: zero
Encoding: 48 48 65
Width: 1125
VWidth: 5
Flags: HW
PickledData: "(dp1
S'spacing_anchors_slanted'
p2
I00
s."
HStem: -28 81<432.229 694.659> 862 80<436.949 685.785>
VStem: 90 220<235.034 671.675> 815 220<226.346 677.829>
AnchorPoint: "l;o" 0 453 basechar 0
AnchorPoint: "r;o" 1125 453 basechar 0
LayerCount: 3
Fore
SplineSet
90 453 m 0
 90 758 302 942 572 942 c 0
 820 942 1035 777 1035 455 c 0
 1035 90 768 -28 562 -28 c 0
 306 -28 90 139 90 453 c 0
310 469 m 0
 310 118 442 53 564 53 c 0
 709 53 815 138 815 473 c 0
 815 694 733 862 565 862 c 0
 380 862 310 689 310 469 c 0
EndSplineSet
AlternateSubs2: "'aalt' Access All Alternates in Latin lookup 0 subtable" zero.lnum
Substitution2: "lnum subtable" zero.lnum
EndChar

StartChar: one
Encoding: 49 49 66
Width: 758
VWidth: 0
Flags: HMW
PickledData: "(dp1
S'spacing_anchors_slanted'
p2
I00
s."
HStem: -3 86<148.005 318 518 687.995> 946 20G<462.5 500>
VStem: 318 200<79 646>
AnchorPoint: "l;bl" 0 40 basechar 0
AnchorPoint: "l;x" 0 852 basechar 0
AnchorPoint: "l;o" 0 453 basechar 0
AnchorPoint: "r;bl" 758 40 basechar 0
AnchorPoint: "r;x" 758 852 basechar 0
AnchorPoint: "r;o" 758 453 basechar 0
LayerCount: 3
Fore
SplineSet
95 668 m 0
 95 675 99 676 139 702 c 0
 282 796 372 877 427 922 c 0
 457 947 471 961 490 961 c 0
 510 961 518 956 518 939 c 2
 518 79 l 1
 632 82 647 83 661 83 c 0
 682 83 688 78 688 40 c 0
 688 1 681 -3 657 -3 c 0
 555 -3 472 0 420 0 c 0
 383 0 253 -3 174 -3 c 0
 155 -3 148 0 148 40 c 0
 148 79 155 83 169 83 c 0
 185 83 187 82 318 79 c 1
 318 704 l 1
 308 705 l 1
 191 622 l 2
 175 610 163 600 145 600 c 0
 130 600 95 636 95 668 c 0
EndSplineSet
AlternateSubs2: "'aalt' Access All Alternates in Latin lookup 0 subtable" one.lnum
Substitution2: "lnum subtable" one.lnum
EndChar

StartChar: two
Encoding: 50 50 67
Width: 1040
VWidth: 0
Flags: HMW
PickledData: "(dp1
S'spacing_anchors_slanted'
p2
I00
s."
HStem: 0 166<369 794.977> 847 113<297.746 570.481>
VStem: 126 96<503.446 778.787> 642 220<509.428 776.555>
AnchorPoint: "l;bl" 0 40 basechar 0
AnchorPoint: "l;x" 0 852 basechar 0
AnchorPoint: "l;o" 0 453 basechar 0
AnchorPoint: "r;bl" 1040 40 basechar 0
AnchorPoint: "r;x" 1040 852 basechar 0
AnchorPoint: "r;o" 1040 453 basechar 0
LayerCount: 3
Fore
SplineSet
110 54 m 0
 110 90 247 177 382 288 c 0
 513 396 642 480 642 652 c 0
 642 744 580 847 440 847 c 0
 277 847 222 743 222 660 c 0
 222 570 232 546 232 534 c 0
 232 507 201 499 192 499 c 0
 139 499 126 561 126 660 c 0
 126 847 291 960 511 960 c 0
 652 960 862 896 862 644 c 0
 862 432 544 276 371 175 c 1
 369 166 l 1
 696 166 l 2
 776 166 781 182 799 218 c 2
 829 281 l 2
 843 310 849 316 861 316 c 0
 863 316 910 306 910 289 c 0
 910 284 910 287 852 50 c 0
 840 0 821 0 805 0 c 2
 144 0 l 2
 118 0 110 50 110 54 c 0
EndSplineSet
AlternateSubs2: "'aalt' Access All Alternates in Latin lookup 0 subtable" two.lnum
Substitution2: "lnum subtable" two.lnum
EndChar

StartChar: three
Encoding: 51 51 68
Width: 1084
VWidth: -413
Flags: HMW
PickledData: "(dp1
S'spacing_anchors_slanted'
p2
I00
s."
HStem: -455 100<273.358 598.307> 191 90<186.979 310.981> 845 115<364.126 615.69>
VStem: 661 235<559.908 799.545> 744 223<-199.022 153.632>
AnchorPoint: "l;bl" 0 40 basechar 0
AnchorPoint: "l;x" 0 852 basechar 0
AnchorPoint: "l;o" 0 453 basechar 0
AnchorPoint: "l;lo" 0 -420 basechar 0
AnchorPoint: "r;bl" 1084 40 basechar 0
AnchorPoint: "r;x" 1084 852 basechar 0
AnchorPoint: "r;o" 1084 453 basechar 0
AnchorPoint: "r;lo" 1024 -420 basechar 0
LayerCount: 3
Fore
SplineSet
50 -179 m 0xe8
 50 -157 87 -149 96 -149 c 0
 140 -149 114 -211 268 -309 c 0
 314 -338 378 -355 441 -355 c 0
 621 -355 744 -212 744 -14 c 0xe8
 744 223 568 275 486 275 c 0
 378 275 268 191 230 191 c 0
 200 191 184 235 184 253 c 0
 184 265 187 273 208 281 c 0
 616 438 661 618 661 699 c 0
 661 789 580 845 512 845 c 0
 300 845 239 671 189 671 c 0
 177 671 148 699 148 717 c 0
 148 755 316 960 552 960 c 0
 784 960 896 856 896 695 c 0xf0
 896 541 763 416 604 361 c 1
 604 354 l 1
 804 345 967 181 967 -15 c 0
 967 -281 725 -455 470 -455 c 0
 167 -455 50 -245 50 -179 c 0xe8
EndSplineSet
AlternateSubs2: "'aalt' Access All Alternates in Latin lookup 0 subtable" three.lnum
Substitution2: "lnum subtable" three.lnum
EndChar

StartChar: four
Encoding: 52 52 69
Width: 1167
VWidth: 0
Flags: HW
PickledData: "(dp1
S'spacing_anchors_slanted'
p2
I00
s."
HStem: 0 81<182 592 792 1001.23>
VStem: 592 200<-446.234 0 81 600> 1006 78<-154.988 -1.70995e-06 79 230.884>
AnchorPoint: "l;bl" 0 40 basechar 0
AnchorPoint: "l;x" 240 852 basechar 0
AnchorPoint: "l;o" 120 453 basechar 0
AnchorPoint: "l;lo" 260 -420 basechar 0
AnchorPoint: "r;bl" 1167 40 basechar 0
AnchorPoint: "r;x" 1167 852 basechar 0
AnchorPoint: "r;o" 1167 453 basechar 0
AnchorPoint: "r;lo" 1167 -420 basechar 0
LayerCount: 3
Fore
SplineSet
50 44 m 0
 50 65 54 75 63 87 c 2
 690 889 l 2
 729 938 747 944 760 944 c 0
 781 944 792 932 792 889 c 2
 792 79 l 1
 968 79 l 2
 1002 79 1006 125 1006 167 c 2
 1006 202 l 2
 1006 213 1007 231 1042 231 c 0
 1066 231 1084 220 1084 204 c 0
 1084 198 1078 49 1078 33 c 0
 1078 17 1083 -120 1083 -125 c 0
 1083 -146 1071 -155 1047 -155 c 0
 1010 -155 1007 -151 1007 -124 c 0
 1007 -57 1003 0 969 0 c 2
 792 0 l 9
 792 -383 l 18
 792 -447 761 -449 695 -449 c 0
 623 -449 592 -447 592 -383 c 10
 592 0 l 17
 92 0 l 2
 57 0 50 4 50 44 c 0
182 81 m 1
 592 81 l 1
 592 600 l 1
 587 600 l 1
 182 86 l 1
 182 81 l 1
EndSplineSet
AlternateSubs2: "'aalt' Access All Alternates in Latin lookup 0 subtable" four.lnum
Substitution2: "lnum subtable" four.lnum
EndChar

StartChar: five
Encoding: 53 53 70
Width: 1061
VWidth: -409
Flags: HMW
PickledData: "(dp1
S'spacing_anchors_slanted'
p2
I00
s."
HStem: -458 85<289.589 577.839> 323 104<331.909 605.221> 700 181<354.025 762.764>
VStem: 725 210<-202.398 197.514>
AnchorPoint: "l;bl" 0 40 basechar 0
AnchorPoint: "l;x" 30 852 basechar 0
AnchorPoint: "l;o" 0 453 basechar 0
AnchorPoint: "l;lo" 0 -420 basechar 0
AnchorPoint: "r;bl" 1061 40 basechar 0
AnchorPoint: "r;x" 1061 852 basechar 0
AnchorPoint: "r;o" 1061 453 basechar 0
AnchorPoint: "r;lo" 1001 -420 basechar 0
LayerCount: 3
Fore
SplineSet
76 148 m 0
 76 155 76 175 277 851 c 0
 292 904 314 917 347 917 c 0
 394 917 553 881 663 881 c 0
 759 881 759 931 826 1012 c 0
 839 1028 850 1036 859 1036 c 0
 893 1036 919 1009 919 992 c 0
 919 940 794 772 774 749 c 0
 739 709 708 700 668 700 c 0
 599 700 476 720 353 739 c 1
 220 317 l 1
 228 311 l 1
 274 355 370 427 533 427 c 0
 855 427 935 169 935 14 c 0
 935 -301 702 -458 486 -458 c 0
 227 -458 100 -286 100 -228 c 0
 100 -206 123 -190 144 -190 c 0
 178 -190 193 -229 210 -255 c 0
 251 -313 327 -373 422 -373 c 0
 616 -373 725 -228 725 7 c 0
 725 175 647 323 448 323 c 0
 241 323 180 99 144 99 c 0
 117 99 76 118 76 148 c 0
EndSplineSet
AlternateSubs2: "'aalt' Access All Alternates in Latin lookup 0 subtable" five.lnum
Substitution2: "lnum subtable" five.lnum
EndChar

StartChar: six
Encoding: 54 54 71
Width: 1162
VWidth: -15
Flags: HMW
PickledData: "(dp1
S'spacing_anchors_slanted'
p2
I00
s."
HStem: -45 91<452.736 723.418> 812 84<460.282 719.226> 1274 95<559.284 839.549>
VStem: 119 202<307.599 899.773> 827 217<214.184 656.462> 862 164<1136.85 1248.71>
AnchorPoint: "l;bl" 30 40 basechar 0
AnchorPoint: "l;x" 0 852 basechar 0
AnchorPoint: "l;hi" 130 1350 basechar 0
AnchorPoint: "l;o" 0 453 basechar 0
AnchorPoint: "r;bl" 1132 40 basechar 0
AnchorPoint: "r;x" 1162 852 basechar 0
AnchorPoint: "r;hi" 1162 1350 basechar 0
AnchorPoint: "r;o" 1162 453 basechar 0
LayerCount: 3
Fore
SplineSet
119 621 m 0xf8
 119 1088 424 1369 703 1369 c 0
 964 1369 1026 1248 1026 1179 c 0
 1026 1133 1003 1101 954 1101 c 0
 918 1101 897 1115 885 1136 c 0
 875 1154 872 1176 862 1198 c 0xf4
 842 1239 808 1274 703 1274 c 0
 591 1274 335 1171 326 754 c 1
 333 754 l 1
 352 793 454 896 594 896 c 0
 841 896 1044 724 1044 456 c 0
 1044 76 802 -45 596 -45 c 0
 334 -45 119 162 119 621 c 0xf8
321 461 m 0
 321 179 424 46 598 46 c 0
 772 46 827 228 827 425 c 0xf8
 827 762 702 811 581 812 c 0
 560 812 321 790 321 461 c 0
EndSplineSet
AlternateSubs2: "'aalt' Access All Alternates in Latin lookup 0 subtable" six.lnum
Substitution2: "lnum subtable" six.lnum
EndChar

StartChar: nine
Encoding: 57 57 72
Width: 1132
VWidth: -431
Flags: HMW
PickledData: "(dp1
S'spacing_anchors_slanted'
p2
I00
s."
HStem: -461 92<353.469 616.382> -3 84<453.251 679.058> 862 91<418.612 680.79>
VStem: 99 222<256.351 695.665> 179 150<-340.494 -225.09> 827 192<-4.04152 617.795>
AnchorPoint: "l;bl" 0 40 basechar 0
AnchorPoint: "l;x" 0 852 basechar 0
AnchorPoint: "l;o" 0 453 basechar 0
AnchorPoint: "l;lo" 0 -420 basechar 0
AnchorPoint: "r;bl" 1132 40 basechar 0
AnchorPoint: "r;x" 1102 852 basechar 0
AnchorPoint: "r;o" 1132 453 basechar 0
AnchorPoint: "r;lo" 1042 -420 basechar 0
LayerCount: 3
Fore
SplineSet
99 452 m 0xf4
 99 832 337 953 552 953 c 0
 784 953 1019 817 1019 287 c 0
 1019 -140 764 -461 485 -461 c 0
 254 -461 179 -357 179 -288 c 0
 179 -242 207 -215 246 -215 c 0
 291 -215 316 -249 329 -286 c 0xec
 350 -344 400 -369 485 -369 c 0
 597 -369 820 -263 829 154 c 1
 822 154 l 1
 803 115 708 -3 556 -3 c 0
 307 -3 99 184 99 452 c 0xf4
321 483 m 0xf4
 321 198 448 82 569 81 c 0
 590 81 827 118 827 447 c 0
 827 729 686 862 550 862 c 0
 412 862 321 776 321 483 c 0xf4
EndSplineSet
AlternateSubs2: "'aalt' Access All Alternates in Latin lookup 0 subtable" nine.lnum
Substitution2: "lnum subtable" nine.lnum
EndChar

StartChar: zero.lnum
Encoding: 65536 -1 73
Width: 1150
VWidth: 0
Flags: HMW
PickledData: "(dp1
S'spacing_anchors_slanted'
p2
I00
s."
HStem: -34 106<469.433 693.614> 1272 124<456.897 688.085>
VStem: 101 232<373.337 992.487> 812 236<364.104 983.633>
AnchorPoint: "l;bl" 0 40 basechar 0
AnchorPoint: "l;x" 0 852 basechar 0
AnchorPoint: "l;hi" 0 1350 basechar 0
AnchorPoint: "l;o" 0 453 basechar 0
AnchorPoint: "r;bl" 1150 40 basechar 0
AnchorPoint: "r;x" 1150 852 basechar 0
AnchorPoint: "r;hi" 1150 1350 basechar 0
AnchorPoint: "r;o" 1150 453 basechar 0
LayerCount: 3
Fore
SplineSet
101 690 m 0
 101 1014 253 1396 569 1396 c 8
 911 1396 1048 1006 1048 661 c 0
 1048 352 897 -34 577 -34 c 8
 239 -34 101 364 101 690 c 0
333 700 m 0
 333 428 344 72 587 72 c 0
 812 72 812 456 812 684 c 0
 812 1050 764 1272 567 1272 c 0
 344 1272 333 916 333 700 c 0
EndSplineSet
EndChar

StartChar: one.lnum
Encoding: 65537 -1 74
Width: 1150
VWidth: 0
Flags: HMW
PickledData: "(dp1
S'spacing_anchors_slanted'
p2
I00
s."
HStem: 0 79<382.005 552 752 931.995> 1346 20G<693.5 734>
VStem: 552 200<79 1046>
AnchorPoint: "l;bl" 0 40 basechar 0
AnchorPoint: "l;x" 0 852 basechar 0
AnchorPoint: "l;hi" 0 1350 basechar 0
AnchorPoint: "l;o" 0 453 basechar 0
AnchorPoint: "r;bl" 1150 40 basechar 0
AnchorPoint: "r;x" 1150 852 basechar 0
AnchorPoint: "r;hi" 1150 1350 basechar 0
AnchorPoint: "r;o" 1150 453 basechar 0
LayerCount: 3
Fore
SplineSet
274 923 m 0
 274 932 275 934 282 940 c 0
 515 1146 599 1271 643 1328 c 0
 672 1366 671 1366 716 1366 c 2
 724 1366 l 2
 744 1366 752 1361 752 1344 c 2
 752 79 l 1
 866 82 881 83 895 83 c 0
 916 83 922 78 922 40 c 0
 922 1 915 -3 891 -3 c 0
 789 -3 706 0 654 0 c 0
 617 0 487 -3 408 -3 c 0
 389 -3 382 0 382 40 c 0
 382 79 389 83 403 83 c 0
 419 83 421 82 552 79 c 1
 552 1046 l 1
 540 1055 l 9
 360 872 l 18
 355 866 343 861 332 861 c 0
 307 861 274 900 274 923 c 0
EndSplineSet
EndChar

StartChar: two.lnum
Encoding: 65538 -1 75
Width: 1150
VWidth: 0
Flags: HMW
PickledData: "(dp1
S'spacing_anchors_slanted'
p2
I00
s."
HStem: 0 185<320 918.912> 1242 130<368.811 649.303>
VStem: 120 109<783.285 1101.12> 766 257<809.165 1122.35>
AnchorPoint: "l;bl" 0 40 basechar 0
AnchorPoint: "l;x" 0 852 basechar 0
AnchorPoint: "l;hi" 0 1350 basechar 0
AnchorPoint: "l;o" 0 453 basechar 0
AnchorPoint: "r;bl" 1150 40 basechar 0
AnchorPoint: "r;x" 1150 852 basechar 0
AnchorPoint: "r;hi" 1150 1350 basechar 0
AnchorPoint: "r;o" 1150 453 basechar 0
LayerCount: 3
Fore
SplineSet
66 57 m 0
 66 80 177 148 476 456 c 0
 631 615 766 789 766 947 c 0
 766 1129 656 1242 519 1242 c 0
 369 1242 229 1116 229 949 c 0
 229 781 345 684 393 652 c 0
 410 640 418 633 418 619 c 0
 418 602 401 579 372 579 c 0
 332 579 120 712 120 948 c 0
 120 1221 300 1372 557 1372 c 0
 798 1372 1023 1230 1023 972 c 0
 1023 789 854 627 720 524 c 0
 584 419 474 326 317 195 c 1
 320 185 l 1
 789 185 l 2
 925 185 917 217 999 393 c 0
 1015 427 1021 433 1042 433 c 0
 1042 433 1093 421 1093 399 c 0
 1093 390 1088 369 1082 355 c 2
 968 53 l 2
 949 4 936 0 919 0 c 2
 102 0 l 2
 75 0 66 53 66 57 c 0
EndSplineSet
EndChar

StartChar: three.lnum
Encoding: 65539 -1 76
Width: 1150
VWidth: 0
Flags: HMW
PickledData: "(dp1
S'spacing_anchors_slanted'
p2
I00
s."
HStem: -42 100<346.358 671.307> 604 90<259.979 383.981> 1258 115<437.126 688.69>
VStem: 734 235<972.908 1212.54> 817 223<213.978 566.632>
AnchorPoint: "l;bl" 0 40 basechar 0
AnchorPoint: "l;x" 0 852 basechar 0
AnchorPoint: "l;hi" 0 1350 basechar 0
AnchorPoint: "l;o" 0 453 basechar 0
AnchorPoint: "r;bl" 1150 40 basechar 0
AnchorPoint: "r;x" 1150 852 basechar 0
AnchorPoint: "r;hi" 1150 1350 basechar 0
AnchorPoint: "r;o" 1150 453 basechar 0
LayerCount: 3
Fore
SplineSet
123 234 m 0xe8
 123 256 160 264 169 264 c 0
 213 264 187 202 341 104 c 0
 387 75 451 58 514 58 c 0
 694 58 817 201 817 399 c 0xe8
 817 636 641 688 559 688 c 0
 451 688 341 604 303 604 c 0
 273 604 257 648 257 666 c 0
 257 678 260 686 281 694 c 0
 689 851 734 1031 734 1112 c 0
 734 1202 653 1258 585 1258 c 0
 373 1258 312 1084 262 1084 c 0
 250 1084 221 1112 221 1130 c 0
 221 1168 389 1373 625 1373 c 0
 857 1373 969 1269 969 1108 c 0xf0
 969 954 836 829 677 774 c 1
 677 767 l 1
 877 758 1040 594 1040 398 c 0
 1040 132 798 -42 543 -42 c 0
 240 -42 123 168 123 234 c 0xe8
EndSplineSet
EndChar

StartChar: four.lnum
Encoding: 65540 -1 77
Width: 1150
VWidth: 0
Flags: HMW
PickledData: "(dp1
S'spacing_anchors_slanted'
p2
I00
s."
HStem: -23 21G<676 745> 426 81<199 609 809 1018.23> 1350 20G<770.5 787.5>
VStem: 609 200<-20.2343 426 507 1026> 1023 78<271.012 426 505 656.884>
AnchorPoint: "l;bl" 0 40 basechar 0
AnchorPoint: "l;x" 0 852 basechar 0
AnchorPoint: "l;hi" 0 1350 basechar 0
AnchorPoint: "l;o" 0 453 basechar 0
AnchorPoint: "r;bl" 1150 40 basechar 0
AnchorPoint: "r;x" 1150 852 basechar 0
AnchorPoint: "r;hi" 1150 1350 basechar 0
AnchorPoint: "r;o" 1150 453 basechar 0
LayerCount: 3
Fore
SplineSet
67 470 m 0
 67 491 71 501 80 513 c 2
 707 1315 l 2
 746 1364 764 1370 777 1370 c 0
 798 1370 809 1358 809 1315 c 2
 809 505 l 1
 985 505 l 2
 1019 505 1023 551 1023 593 c 2
 1023 628 l 2
 1023 639 1024 657 1059 657 c 0
 1083 657 1101 646 1101 630 c 0
 1101 624 1095 475 1095 459 c 0
 1095 443 1100 306 1100 301 c 0
 1100 280 1088 271 1064 271 c 0
 1027 271 1024 275 1024 302 c 0
 1024 369 1020 426 986 426 c 2
 809 426 l 9
 809 43 l 18
 809 -21 778 -23 712 -23 c 0
 640 -23 609 -21 609 43 c 10
 609 426 l 17
 109 426 l 2
 74 426 67 430 67 470 c 0
199 507 m 1
 609 507 l 1
 609 1026 l 1
 604 1026 l 1
 199 512 l 1
 199 507 l 1
EndSplineSet
EndChar

StartChar: five.lnum
Encoding: 65541 -1 78
Width: 1150
VWidth: 0
Flags: HMW
PickledData: "(dp1
S'spacing_anchors_slanted'
p2
I00
s."
HStem: -49 85<373.589 661.839> 732 104<415.909 689.221> 1109 181<438.025 846.764>
VStem: 809 210<206.602 606.514>
AnchorPoint: "l;bl" 0 40 basechar 0
AnchorPoint: "l;x" 0 852 basechar 0
AnchorPoint: "l;hi" 0 1350 basechar 0
AnchorPoint: "l;o" 0 453 basechar 0
AnchorPoint: "r;bl" 1150 40 basechar 0
AnchorPoint: "r;x" 1150 852 basechar 0
AnchorPoint: "r;hi" 1150 1350 basechar 0
AnchorPoint: "r;o" 1150 453 basechar 0
LayerCount: 3
Fore
SplineSet
160 557 m 0
 160 564 160 584 361 1260 c 0
 376 1313 398 1326 431 1326 c 0
 478 1326 637 1290 747 1290 c 0
 843 1290 843 1340 910 1421 c 0
 923 1437 934 1445 943 1445 c 0
 977 1445 1003 1418 1003 1401 c 0
 1003 1349 878 1181 858 1158 c 0
 823 1118 792 1109 752 1109 c 0
 683 1109 560 1129 437 1148 c 1
 304 726 l 1
 312 720 l 1
 358 764 454 836 617 836 c 0
 939 836 1019 578 1019 423 c 0
 1019 108 786 -49 570 -49 c 0
 311 -49 184 123 184 181 c 0
 184 203 207 219 228 219 c 0
 262 219 277 180 294 154 c 0
 335 96 411 36 506 36 c 0
 700 36 809 181 809 416 c 0
 809 584 731 732 532 732 c 0
 325 732 264 508 228 508 c 0
 201 508 160 527 160 557 c 0
EndSplineSet
EndChar

StartChar: six.lnum
Encoding: 65542 -1 79
Width: 1150
VWidth: -15
Flags: HMW
PickledData: "(dp1
S'spacing_anchors_slanted'
p2
I00
s."
HStem: -45 91<467.736 738.418> 812 84<475.282 734.226> 1274 95<574.284 854.549>
VStem: 134 202<307.599 899.773> 842 217<214.184 656.462> 877 164<1136.85 1248.71>
AnchorPoint: "l;bl" 0 40 basechar 0
AnchorPoint: "l;x" 0 852 basechar 0
AnchorPoint: "l;hi" 0 1350 basechar 0
AnchorPoint: "l;o" 0 453 basechar 0
AnchorPoint: "r;bl" 1150 40 basechar 0
AnchorPoint: "r;x" 1150 852 basechar 0
AnchorPoint: "r;hi" 1150 1350 basechar 0
AnchorPoint: "r;o" 1150 453 basechar 0
LayerCount: 3
Fore
SplineSet
134 621 m 0xf8
 134 1088 439 1369 718 1369 c 0
 979 1369 1041 1248 1041 1179 c 0
 1041 1133 1018 1101 969 1101 c 0
 933 1101 912 1115 900 1136 c 0
 890 1154 887 1176 877 1198 c 0xf4
 857 1239 823 1274 718 1274 c 0
 606 1274 350 1171 341 754 c 1
 348 754 l 1
 367 793 469 896 609 896 c 0
 856 896 1059 724 1059 456 c 0
 1059 76 817 -45 611 -45 c 0
 349 -45 134 162 134 621 c 0xf8
336 461 m 0
 336 179 439 46 613 46 c 0
 787 46 842 228 842 425 c 0xf8
 842 762 717 811 596 812 c 0
 575 812 336 790 336 461 c 0
EndSplineSet
EndChar

StartChar: seven.lnum
Encoding: 65543 -1 80
Width: 1150
VWidth: -5
Flags: HMW
PickledData: "(dp1
S'spacing_anchors_slanted'
p2
I00
s."
HStem: -23 21G<339.5 481.5> 1169 181<395.828 868.173>
VStem: 187 92<969.935 1001>
AnchorPoint: "l;bl" 0 40 basechar 0
AnchorPoint: "l;x" 0 852 basechar 0
AnchorPoint: "l;hi" 0 1350 basechar 0
AnchorPoint: "l;o" 0 453 basechar 0
AnchorPoint: "r;bl" 1150 40 basechar 0
AnchorPoint: "r;x" 1150 852 basechar 0
AnchorPoint: "r;hi" 1150 1350 basechar 0
AnchorPoint: "r;o" 1150 453 basechar 0
LayerCount: 3
Fore
SplineSet
187 1013 m 0
 187 1024 190 1020 212 1066 c 2
 337 1323 l 2
 350 1349 356 1366 390 1366 c 0
 424 1366 558 1350 670 1350 c 0
 782 1350 1041 1366 1056 1366 c 0
 1084 1366 1091 1339 1091 1326 c 0
 1091 1266 935 1202 739 764 c 0
 450 118 582 -23 381 -23 c 0
 298 -23 287 -6 287 52 c 0
 287 156 409 452 591 763 c 0
 660 881 767 1025 876 1174 c 9
 872 1180 l 17
 780 1170 674 1169 602 1169 c 0
 510 1169 419 1180 399 1180 c 0
 377 1180 367 1174 353 1148 c 2
 279 1001 l 2
 267 978 264 967 248 967 c 0
 223 967 187 991 187 1013 c 0
EndSplineSet
EndChar

StartChar: eight.lnum
Encoding: 65544 -1 81
Width: 1150
VWidth: -10
Flags: HMW
PickledData: "(dp1
S'spacing_anchors_slanted'
p2
I00
s."
HStem: -46 74<433.803 726.825> 1287 89<428.238 710.317>
VStem: 109 178<172.923 504.173> 156 187<938.076 1176.9> 805 180<890.319 1190.26> 850 190<169.738 439.805>
AnchorPoint: "l;bl" 0 40 basechar 0
AnchorPoint: "l;x" 0 852 basechar 0
AnchorPoint: "l;hi" 0 1350 basechar 0
AnchorPoint: "l;o" 0 453 basechar 0
AnchorPoint: "r;bl" 1150 40 basechar 0
AnchorPoint: "r;x" 1150 852 basechar 0
AnchorPoint: "r;hi" 1150 1350 basechar 0
AnchorPoint: "r;o" 1150 453 basechar 0
LayerCount: 3
Fore
SplineSet
109 334 m 0xe4
 109 563 290 652 402 687 c 1
 352 714 156 809 156 1021 c 0
 156 1118 230 1376 598 1376 c 0
 823 1376 985 1241 985 1038 c 0xd8
 985 857 828 778 757 737 c 1
 799 719 1040 617 1040 343 c 0
 1040 94 810 -46 590 -46 c 0
 345 -46 109 101 109 334 c 0xe4
287 343 m 0xe4
 287 67 501 28 583 28 c 0
 763 28 850 154 850 297 c 0
 850 521 578 615 488 651 c 1
 402 614 287 538 287 343 c 0xe4
343 1087 m 0xd8
 343 883 506 843 675 770 c 1
 695 779 805 850 805 1025 c 0
 805 1151 741 1287 579 1287 c 0
 425 1287 343 1197 343 1087 c 0xd8
EndSplineSet
EndChar

StartChar: nine.lnum
Encoding: 65545 -1 82
Width: 1150
VWidth: -5
Flags: HMW
PickledData: "(dp1
S'spacing_anchors_slanted'
p2
I00
s."
HStem: -35 92<383.469 646.382> 423 84<483.251 709.058> 1288 91<448.612 710.79>
VStem: 129 222<682.351 1121.66> 209 150<85.5061 200.91> 857 192<421.958 1043.79>
AnchorPoint: "l;bl" 0 40 basechar 0
AnchorPoint: "l;x" 0 852 basechar 0
AnchorPoint: "l;hi" 0 1350 basechar 0
AnchorPoint: "l;o" 0 453 basechar 0
AnchorPoint: "r;bl" 1150 40 basechar 0
AnchorPoint: "r;x" 1150 852 basechar 0
AnchorPoint: "r;hi" 1150 1350 basechar 0
AnchorPoint: "r;o" 1150 453 basechar 0
LayerCount: 3
Fore
SplineSet
129 878 m 0xf4
 129 1258 367 1379 582 1379 c 0
 814 1379 1049 1243 1049 713 c 0
 1049 286 794 -35 515 -35 c 0
 284 -35 209 69 209 138 c 0
 209 184 237 211 276 211 c 0
 321 211 346 177 359 140 c 0xec
 380 82 430 57 515 57 c 0
 627 57 850 163 859 580 c 1
 852 580 l 1
 833 541 738 423 586 423 c 0
 337 423 129 610 129 878 c 0xf4
351 909 m 0xf4
 351 624 478 508 599 507 c 0
 620 507 857 544 857 873 c 0
 857 1155 716 1288 580 1288 c 0
 442 1288 351 1202 351 909 c 0xf4
EndSplineSet
EndChar

StartChar: emdash
Encoding: 8212 8212 83
Width: 1367
VWidth: 0
Flags: HMW
PickledData: "(dp1
S'spacing_anchors_slanted'
p2
I00
s."
HStem: 395 122<110.271 1256.45>
AnchorPoint: "l;o" 0 453 basechar 0
AnchorPoint: "r;o" 1367 453 basechar 0
LayerCount: 3
Fore
SplineSet
110 459 m 0
 110 514 116 520 155 520 c 0
 301 518 418 517 519 517 c 0
 809 517 956 525 1206 527 c 0
 1249 527 1257 517 1257 458 c 0
 1257 397 1243 388 1198 388 c 0
 1151 388 1012 395 732 395 c 0
 517 395 322 391 146 388 c 0
 117 388 110 391 110 459 c 0
EndSplineSet
EndChar

StartChar: endash
Encoding: 8211 8211 84
Width: 986
VWidth: 0
Flags: HMW
PickledData: "(dp1
S'spacing_anchors_slanted'
p2
I00
s."
HStem: 395 122<110.344 874.998>
AnchorPoint: "l;o" 0 453 basechar 0
AnchorPoint: "r;o" 986 453 basechar 0
LayerCount: 3
Fore
SplineSet
110 460 m 0
 110 512 118 521 152 521 c 0
 189 521 189 517 339 517 c 0
 550 517 800 529 828 529 c 0
 868 529 876 518 876 462 c 0
 876 401 860 390 812 390 c 0
 770 390 749 395 603 395 c 0
 459 395 284 390 139 389 c 0
 117 389 110 397 110 460 c 0
EndSplineSet
EndChar

StartChar: parenleft
Encoding: 40 40 85
Width: 645
VWidth: 0
Flags: HMW
PickledData: "(dp1
S'spacing_anchors_slanted'
p2
I00
s."
VStem: 110 168<187.309 819.218>
AnchorPoint: "l;bl" 30 40 basechar 0
AnchorPoint: "l;x" 0 852 basechar 0
AnchorPoint: "l;hi" 120 1350 basechar 0
AnchorPoint: "l;o" 0 453 basechar 0
AnchorPoint: "r;bl" 585 40 basechar 0
AnchorPoint: "r;x" 585 852 basechar 0
AnchorPoint: "r;hi" 645 1350 basechar 0
AnchorPoint: "r;o" 585 453 basechar 0
AnchorPoint: "l;lo" 180 -420 basechar 0
AnchorPoint: "r;lo" 645 -420 basechar 0
LayerCount: 3
Fore
SplineSet
110 507 m 0
 110 1060 503 1465 537 1465 c 0
 549 1465 595 1436 595 1416 c 0
 595 1363 278 1111 278 515 c 0
 278 -80 580 -374 580 -418 c 0
 580 -447 538 -470 520 -470 c 0
 501 -470 491 -458 489 -456 c 0
 304 -236 110 109 110 507 c 0
EndSplineSet
EndChar

StartChar: parenright
Encoding: 41 41 86
Width: 645
VWidth: 0
Flags: HMW
PickledData: "(dp1
S'spacing_anchors_slanted'
p2
I00
s."
VStem: 367 168<175.782 807.691>
AnchorPoint: "l;bl" 60 40 basechar 0
AnchorPoint: "l;x" 60 852 basechar 0
AnchorPoint: "l;hi" 0 1350 basechar 0
AnchorPoint: "l;o" 60 453 basechar 0
AnchorPoint: "l;lo" 0 -420 basechar 0
AnchorPoint: "r;bl" 615 40 basechar 0
AnchorPoint: "r;x" 645 852 basechar 0
AnchorPoint: "r;hi" 525 1350 basechar 0
AnchorPoint: "r;o" 645 453 basechar 0
AnchorPoint: "r;lo" 465 -420 basechar 0
LayerCount: 3
Fore
SplineSet
50 -421 m 0
 50 -368 367 -116 367 480 c 0
 367 1075 65 1369 65 1413 c 0
 65 1442 107 1465 125 1465 c 0
 144 1465 154 1453 156 1451 c 0
 341 1231 535 886 535 488 c 0
 535 -65 142 -470 108 -470 c 0
 96 -470 50 -441 50 -421 c 0
EndSplineSet
EndChar

StartChar: bracketleft
Encoding: 91 91 87
Width: 742
VWidth: 0
Flags: HMW
PickledData: "(dp1
S'spacing_anchors_slanted'
p2
I00
s."
HStem: 1337 110<100.792 530> -471 110<122.945 530>
VStem: 100 162<-360.998 1336.99>
AnchorPoint: "l;bl" 0 40 basechar 0
AnchorPoint: "l;x" 0 852 basechar 0
AnchorPoint: "l;hi" 0 1350 basechar 0
AnchorPoint: "l;o" 0 453 basechar 0
AnchorPoint: "l;lo" 0 -420 basechar 0
AnchorPoint: "r;bl" 562 40 basechar 0
AnchorPoint: "r;x" 562 852 basechar 0
AnchorPoint: "r;hi" 742 1350 basechar 0
AnchorPoint: "r;o" 562 453 basechar 0
AnchorPoint: "r;lo" 742 -420 basechar 0
LayerCount: 3
Fore
SplineSet
100 -426 m 2xa0
 100 1406 l 2
 100 1440 109 1447 141 1447 c 0
 509 1450 583 1452 604 1452 c 0
 655 1452 670 1437 670 1399 c 0
 670 1338 652 1333 608 1333 c 0
 364 1336 331 1337 301 1337 c 0
 262 1337 262 1330 262 1302 c 2
 262 -329 l 2
 262 -358 262 -361 292 -361 c 0
 525 -358 596 -357 622 -357 c 0
 667 -357 692 -364 692 -411 c 0
 692 -474 663 -475 622 -475 c 0
 587 -475 486 -474 152 -471 c 0
 117 -471 100 -471 100 -426 c 2xa0
EndSplineSet
EndChar

StartChar: bracketright
Encoding: 93 93 88
Width: 742
VWidth: 0
Flags: HMW
PickledData: "(dp1
S'spacing_anchors_slanted'
p2
I00
s."
HStem: -470 110<72.945 480> 1338 110<50.792 480>
VStem: 480 162<-359.995 1337.88>
AnchorPoint: "l;bl" 180 40 basechar 0
AnchorPoint: "l;x" 180 852 basechar 0
AnchorPoint: "l;hi" 0 1350 basechar 0
AnchorPoint: "l;o" 180 453 basechar 0
AnchorPoint: "l;lo" 0 -420 basechar 0
AnchorPoint: "r;bl" 742 40 basechar 0
AnchorPoint: "r;x" 742 852 basechar 0
AnchorPoint: "r;hi" 742 1350 basechar 0
AnchorPoint: "r;o" 742 453 basechar 0
AnchorPoint: "r;lo" 742 -420 basechar 0
LayerCount: 3
Fore
SplineSet
50 1388 m 0
 50 1451 79 1452 120 1452 c 0
 155 1452 256 1451 590 1448 c 0
 625 1448 642 1448 642 1403 c 2
 642 -429 l 2
 642 -463 633 -470 601 -470 c 0
 233 -473 159 -475 138 -475 c 0
 87 -475 72 -460 72 -422 c 0
 72 -361 90 -356 134 -356 c 0
 378 -359 411 -360 441 -360 c 0
 480 -360 480 -353 480 -325 c 2
 480 1306 l 2
 480 1335 480 1338 450 1338 c 0
 217 1335 146 1334 120 1334 c 0
 75 1334 50 1341 50 1388 c 0
EndSplineSet
EndChar

StartChar: paragraph
Encoding: 182 182 89
Width: 1440
VWidth: 0
Flags: HMW
PickledData: "(dp1
S'spacing_anchors_slanted'
p2
I00
s."
HStem: -466 82<620.035 988> 1358 81<1104 1390>
VStem: 988 116<-383.998 1358>
AnchorPoint: "l;x" 0 852 basechar 0
AnchorPoint: "l;hi" 30 1350 basechar 0
AnchorPoint: "l;o" 30 453 basechar 0
AnchorPoint: "r;bl" 1350 40 basechar 0
AnchorPoint: "r;x" 1350 852 basechar 0
AnchorPoint: "r;hi" 1440 1350 basechar 0
AnchorPoint: "r;o" 1350 453 basechar 0
AnchorPoint: "r;lo" 1350 -420 basechar 0
AnchorPoint: "l;bl" 120 40 basechar 0
AnchorPoint: "l;lo" 570 -420 basechar 0
LayerCount: 3
Fore
SplineSet
100 883 m 0xd8
 100 1183 304 1439 783 1439 c 0
 846 1439 848 1438 848 1389 c 2
 848 358 l 2
 848 304 848 297 792 297 c 0
 292 297 100 571 100 883 c 0xd8
620 -428 m 0
 620 -387 629 -376 658 -376 c 0
 685 -376 853 -384 955 -384 c 0
 985 -384 988 -382 988 -351 c 2
 988 1414 l 2
 988 1434 1002 1439 1024 1439 c 0xd8
 1146 1441 1335 1445 1346 1445 c 0
 1389 1445 1390 1426 1390 1398 c 0
 1390 1359 1390 1355 1354 1355 c 0xb8
 1331 1355 1303 1358 1137 1358 c 0
 1110 1358 1104 1354 1104 1325 c 2
 1104 -424 l 2
 1104 -458 1103 -466 1063 -466 c 0
 1049 -466 664 -472 651 -472 c 0
 625 -472 620 -464 620 -428 c 0
EndSplineSet
EndChar

StartChar: section
Encoding: 167 167 90
Width: 1271
VWidth: 0
Flags: HMW
PickledData: "(dp1
S'spacing_anchors_slanted'
p2
I00
s."
HStem: -484 110<409.915 723.727> -226 246<336.719 488.726> 944 230<789.443 949.506> 1339 98<549.851 894.511>
VStem: 140 148<684.987 1062.18> 172 164<-308.424 -121> 349 103<994.949 1108> 952 131<1073 1284.19> 994 137<-104.622 284.638>
AnchorPoint: "l;bl" 0 40 basechar 0
AnchorPoint: "l;x" 0 852 basechar 0
AnchorPoint: "l;hi" 0 1350 basechar 0
AnchorPoint: "l;o" 0 453 basechar 0
AnchorPoint: "l;lo" 0 -420 basechar 0
AnchorPoint: "r;bl" 1271 40 basechar 0
AnchorPoint: "r;x" 1271 852 basechar 0
AnchorPoint: "r;hi" 1271 1350 basechar 0
AnchorPoint: "r;o" 1271 453 basechar 0
AnchorPoint: "r;lo" 1271 -420 basechar 0
LayerCount: 3
Fore
SplineSet
140 842 m 0
 140 1174 427 1437 727 1437 c 0
 955 1437 1083 1314 1083 1130 c 0
 1083 1016 1001 944 899 944 c 0
 802 944 758 1009 758 1072 c 0
 758 1127 793 1182 853 1182 c 0
 872 1182 880 1174 903 1174 c 0
 942 1174 952 1201 952 1223 c 0xfb
 952 1261 877 1338 713 1339 c 0
 580 1339 452 1259 452 1138 c 0
 452 983 571 914 658 837 c 0
 972 556 1131 460 1131 132 c 0
 1131 -218 875 -484 544 -484 c 0
 347 -484 172 -349 172 -199 c 0
 172 -43 293 20 379 20 c 0
 465 20 529 -42 529 -120 c 0
 529 -172 500 -238 429 -238 c 0
 401 -238 378 -226 361 -226 c 0
 344 -226 336 -249 336 -256 c 0xf680
 336 -294 449 -374 579 -374 c 0
 716 -374 812 -281 812 -168 c 0
 812 91 389 181 207 551 c 0
 162 642 140 741 140 842 c 0
288 875 m 0
 288 550 624 421 821 153 c 0
 874 81 919 -30 943 -129 c 1
 979 -68 994 13 994 89 c 0
 994 386 736 534 545 711 c 0
 446 802 354 934 349 1108 c 1xfa80
 313 1046 288 948 288 875 c 0
EndSplineSet
EndChar

StartChar: asterisk
Encoding: 42 42 91
Width: 843
VWidth: 0
Flags: HMW
PickledData: "(dp1
S'spacing_anchors_slanted'
p2
I00
s."
AnchorPoint: "l;x" 0 852 basechar 0
AnchorPoint: "l;hi" 0 1350 basechar 0
AnchorPoint: "l;o" 0 453 basechar 0
AnchorPoint: "r;x" 843 852 basechar 0
AnchorPoint: "r;hi" 843 1350 basechar 0
AnchorPoint: "r;o" 843 453 basechar 0
LayerCount: 3
Fore
SplineSet
100 784 m 0
 100 830 323 897 323 916 c 0
 323 939 100 1007 100 1051 c 0
 100 1070 126 1123 167 1123 c 0
 201 1123 324 1019 358 1012 c 1
 361 1019 362 1041 362 1052 c 0
 362 1095 356 1161 356 1214 c 0
 356 1249 369 1258 411 1258 c 0
 472 1258 485 1253 485 1184 c 0
 485 1147 478 1090 478 1050 c 0
 478 1035 479 1017 483 1012 c 1
 517 1016 650 1124 676 1124 c 0
 712 1124 743 1077 743 1053 c 0
 743 1011 520 939 520 918 c 0
 520 894 743 829 743 785 c 0
 743 764 716 712 674 712 c 0
 643 712 517 816 485 823 c 1
 480 818 479 795 479 782 c 0
 479 744 485 693 485 663 c 0
 485 586 480 577 413 577 c 0
 382 577 356 583 356 627 c 0
 356 663 362 728 362 775 c 0
 362 789 362 814 358 823 c 1
 324 816 192 712 166 712 c 0
 127 712 100 764 100 784 c 0
EndSplineSet
EndChar

StartChar: percent
Encoding: 37 37 92
Width: 2117
VWidth: 0
Flags: HW
PickledData: "(dp1
S'spacing_anchors_slanted'
p2
I00
s."
HStem: -458 91<1496.64 1724.33> 293 86<1499 1725.99> 621 91<391.378 624.365> 1369 86<399.184 626.027>
VStem: 100 178<847.32 1237.7> 741 177<849.459 1232.63> 1199 179<-235.218 160.819> 1841 176<-228.877 155.876>
AnchorPoint: "l;bl" 60 40 basechar 0
AnchorPoint: "l;x" 0 852 basechar 0
AnchorPoint: "l;hi" 0 1350 basechar 0
AnchorPoint: "l;o" 60 453 basechar 0
AnchorPoint: "r;bl" 2117 40 basechar 0
AnchorPoint: "r;x" 2057 852 basechar 0
AnchorPoint: "r;hi" 2057 1350 basechar 0
AnchorPoint: "r;o" 2117 453 basechar 0
LayerCount: 3
Fore
SplineSet
100 1035 m 0
 100 1256 239 1455 509 1455 c 0
 778 1455 918 1254 918 1037 c 0
 918 805 772 621 509 621 c 0
 236 621 100 815 100 1035 c 0
278 1039 m 0
 278 846 387 712 509 712 c 0
 661 712 741 892 741 1044 c 0
 741 1186 664 1369 509 1369 c 0
 417 1369 278 1280 278 1039 c 0
435 -430 m 0
 435 -422 436 -407 458 -369 c 2
 1490 1382 l 2
 1525 1441 1537 1455 1583 1455 c 0
 1629 1455 1655 1443 1655 1418 c 0
 1655 1407 1650 1395 1641 1379 c 2
 585 -406 l 2
 554 -458 551 -463 494 -463 c 0
 435 -463 435 -447 435 -430 c 0
1199 -42 m 0
 1199 179 1338 379 1609 379 c 0
 1878 379 2017 178 2017 -40 c 0
 2017 -273 1872 -458 1609 -458 c 0
 1335 -458 1199 -262 1199 -42 c 0
1378 -39 m 0
 1378 -233 1487 -367 1609 -367 c 0
 1761 -367 1841 -187 1841 -34 c 0
 1841 108 1764 293 1609 293 c 0
 1517 293 1378 203 1378 -39 c 0
EndSplineSet
EndChar

StartChar: dagger
Encoding: 8224 8224 93
Width: 1234
VWidth: 0
Flags: HMW
PickledData: "(dp1
S'spacing_anchors_slanted'
p2
I00
s."
HStem: 531 249<94.742 424.921 809.079 1139.61>
VStem: 479 276<-446.239 99.2989> 496 242<1016.73 1392.67> 573 88<198.499 619 688 1052.01>
AnchorPoint: "l;bl" 30 40 basechar 0
AnchorPoint: "l;x" 0 852 basechar 0
AnchorPoint: "l;hi" 30 1350 basechar 0
AnchorPoint: "l;o" 0 453 basechar 0
AnchorPoint: "l;lo" 30 -420 basechar 0
AnchorPoint: "r;bl" 1204 40 basechar 0
AnchorPoint: "r;x" 1234 852 basechar 0
AnchorPoint: "r;hi" 1204 1350 basechar 0
AnchorPoint: "r;o" 1234 453 basechar 0
AnchorPoint: "r;lo" 1204 -420 basechar 0
LayerCount: 3
Fore
SplineSet
50 654 m 0x90
 50 719 131 780 209 780 c 0
 335 780 448 722 573 688 c 1x90
 573 1052 496 1063 496 1273 c 0
 496 1326 525 1424 617 1424 c 0
 709 1424 738 1326 738 1273 c 0xa0
 738 1063 661 1043 661 688 c 1
 786 722 899 780 1025 780 c 0
 1104 780 1184 719 1184 654 c 0
 1184 605 1152 531 1026 531 c 0
 941 531 724 597 661 619 c 1x90
 676 277 755 -153 755 -326 c 0
 755 -404 703 -492 617 -492 c 0
 529 -492 479 -402 479 -326 c 0xc0
 479 -153 558 277 573 619 c 1
 543 608 298 531 209 531 c 0
 87 531 50 604 50 654 c 0x90
EndSplineSet
EndChar

StartChar: daggerdbl
Encoding: 8225 8225 94
Width: 1024
VWidth: 0
Flags: HMW
PickledData: "(dp1
S'spacing_anchors_slanted'
p2
I00
s."
HStem: -168 238<82.585 336.599 691.953 941.42> -82 66<367.603 472.997 550.003 656.397> 894 212<78.721 330.939 681.863 944.64> 970 54<366.801 471.781 551.046 651.07>
VStem: 376 272<-453.017 -238.237 155.709 294.418 657.582 800.291> 397 235<1165.62 1405.38> 473 77<-204.326 -84.2199 -15.9971 123 326.331 628.681 835.99 969.999 1024.14 1161.54>
AnchorPoint: "l;bl" 0 40 basechar 0
AnchorPoint: "l;x" 0 852 basechar 0
AnchorPoint: "l;hi" 0 1350 basechar 0
AnchorPoint: "l;o" 30 453 basechar 0
AnchorPoint: "l;lo" 30 -420 basechar 0
AnchorPoint: "r;bl" 1024 40 basechar 0
AnchorPoint: "r;x" 1024 852 basechar 0
AnchorPoint: "r;hi" 1024 1350 basechar 0
AnchorPoint: "r;o" 994 453 basechar 0
AnchorPoint: "r;lo" 994 -420 basechar 0
LayerCount: 3
Fore
SplineSet
50 -45 m 0x82
 50 28 128 70 194 70 c 0x82
 286 70 406 -16 459 -16 c 0
 471 -16 473 -13 473 -4 c 0x42
 473 82 404 171 376 229 c 1
 376 231 l 1
 392 263 472 333 472 476 c 0
 472 619 388 692 376 721 c 1
 376 723 l 1
 417 806 472 881 472 963 c 0
 472 968 469 970 458 970 c 0x58
 384 970 248 894 176 894 c 0
 112 894 58 933 58 1004 c 0
 58 1086 143 1106 176 1106 c 0x28
 270 1106 401 1024 451 1024 c 0x18
 465 1024 476 1027 476 1039 c 0
 476 1123 397 1203 397 1308 c 0
 397 1409 471 1427 511 1427 c 0
 559 1427 632 1406 632 1308 c 0
 632 1197 549 1140 549 1036 c 0
 549 1025 555 1022 561 1022 c 0
 627 1022 734 1108 854 1108 c 0
 895 1108 966 1088 966 1004 c 0
 966 934 909 894 846 894 c 0x24
 756 894 618 970 565 970 c 0
 555 970 551 968 551 960 c 0
 551 876 634 752 648 723 c 1
 648 721 l 1
 632 689 552 619 552 476 c 0
 552 333 635 260 648 231 c 1
 648 229 l 1x18
 635 202 550 85 550 -3 c 0
 550 -12 552 -16 565 -16 c 0x52
 618 -16 738 70 830 70 c 0
 896 70 974 25 974 -48 c 0
 974 -139 881 -168 832 -168 c 0x82
 744 -168 642 -84 571 -84 c 0
 554 -84 550 -100 550 -110 c 0
 550 -163 640 -267 640 -368 c 0
 640 -460 547 -494 508 -494 c 0
 460 -494 383 -450 383 -368 c 0
 383 -267 473 -163 473 -110 c 0
 473 -90 469 -82 454 -82 c 0x42
 392 -82 279 -168 192 -168 c 0
 142 -168 50 -134 50 -45 c 0x82
EndSplineSet
EndChar

StartChar: exclam
Encoding: 33 33 95
Width: 670
VWidth: 0
Flags: HMW
PickledData: "(dp1
S'spacing_anchors_slanted'
p2
I00
s."
HStem: -46 249<239.189 427.513> 1362 20G<311 378.5>
VStem: 210 250<-17.1105 170.138 768.283 1366.58>
AnchorPoint: "l;bl" 0 40 basechar 0
AnchorPoint: "r;bl" 670 40 basechar 0
AnchorPoint: "l;x" 0 852 basechar 0
AnchorPoint: "l;o" 0 453 basechar 0
AnchorPoint: "r;x" 670 852 basechar 0
AnchorPoint: "r;o" 670 453 basechar 0
AnchorPoint: "l;hi" 0 1350 basechar 0
AnchorPoint: "r;hi" 670 1350 basechar 0
LayerCount: 3
Fore
SplineSet
210 65 m 0
 210 146 256 203 337 203 c 0
 409 203 460 136 460 69 c 0
 460 8 404 -46 335 -46 c 0
 267 -46 210 2 210 65 c 0
218 1309 m 0
 218 1368 277 1382 345 1382 c 0
 412 1382 468 1369 468 1314 c 0
 468 1245 391 353 391 352 c 0
 388 340 376 337 361 337 c 2
 321 337 l 2
 303 337 288 342 285 352 c 0
 284 354 218 1257 218 1309 c 0
EndSplineSet
EndChar

StartChar: question
Encoding: 63 63 96
Width: 980
VWidth: 0
Flags: HMW
PickledData: "(dp1
S'spacing_anchors_slanted'
p2
I00
s."
HStem: -46 225<274.354 453.471> 1312 86<325.336 563.837>
VStem: 130 164<1069.91 1282.58> 255 224<-23.7371 154.772> 311 104<280.223 522.721> 642 218<785.363 1180.89>
AnchorPoint: "l;bl" 0 40 basechar 0
AnchorPoint: "l;x" 0 852 basechar 0
AnchorPoint: "l;o" 0 453 basechar 0
AnchorPoint: "r;bl" 980 40 basechar 0
AnchorPoint: "r;x" 980 852 basechar 0
AnchorPoint: "r;o" 980 453 basechar 0
AnchorPoint: "l;hi" 0 1350 basechar 0
AnchorPoint: "r;hi" 980 1350 basechar 0
LayerCount: 3
Fore
SplineSet
130 1166 m 0xec
 130 1275 248 1398 428 1398 c 0
 629 1398 860 1281 860 977 c 0
 860 720 656 569 524 542 c 0
 461 529 415 518 415 460 c 2
 415 311 l 2
 415 292 403 280 365 280 c 0
 327 280 311 288 311 319 c 2
 311 477 l 2
 311 570 362 597 425 614 c 0
 521 639 642 710 642 971 c 0
 642 1266 561 1312 427 1312 c 0
 382 1312 294 1293 294 1172 c 0
 294 1106 284 1062 208 1062 c 0
 174 1062 130 1083 130 1166 c 0xec
255 54 m 0xd4
 255 152 311 179 369 179 c 0
 434 179 479 118 479 58 c 0
 479 3 429 -46 367 -46 c 0
 306 -46 255 -3 255 54 c 0xd4
EndSplineSet
Layer: 2
SplineSet
90 1166 m 0xec
 90 1323 248 1398 428 1398 c 0
 629 1398 860 1357 860 977 c 0
 860 634 656 599 524 572 c 0
 461 559 415 548 415 490 c 2
 415 311 l 2
 415 292 403 280 365 280 c 0
 327 280 311 288 311 319 c 2
 311 527 l 2
 311 620 362 627 425 644 c 0
 521 669 642 710 642 971 c 0
 642 1245 568 1312 427 1312 c 0
 382 1312 294 1296 294 1172 c 0
 294 1106 264 1062 188 1062 c 0
 150 1062 90 1083 90 1166 c 0xec
255 54 m 0xd4
 255 152 311 179 369 179 c 0
 434 179 479 118 479 58 c 0
 479 3 429 -46 367 -46 c 0
 306 -46 255 -3 255 54 c 0xd4
EndSplineSet
EndChar

StartChar: f_b
Encoding: 65546 -1 97
Width: 1849
VWidth: 0
Flags: HMW
PickledData: "(dp1
S'spacing_anchors_slanted'
p2
I00
s."
HStem: -33 77<1177.42 1428.89> -6 21G<74.5 101.5 311.5 362 585 610 923.5 1013.5> 0 79<54.0015 232 438 628.998> 811 77<45.0015 237 438 683.999> 834 93<1177.72 1427.67> 1334 76<529.454 854.249>
VStem: 238 200<79 811 888 1240.75> 860 200<814.773 1323.54> 1540 219<202.636 688.149>
AnchorPoint: "l;hi" 60 1350 basechar 0
AnchorPoint: "r;o" 1849 453 basechar 0
AnchorPoint: "l;o" 0 453 basechar 0
AnchorPoint: "l;bl" 0 40 basechar 0
AnchorPoint: "l;x" 0 852 basechar 0
LayerCount: 3
Fore
SplineSet
45 850 m 0
 45 887 51 891 70 891 c 0
 87 891 104 890 237 888 c 1
 237 960 l 2
 237 1398 435 1410 684 1410 c 0
 832 1410 1060 1378 1060 1366 c 0
 1060 1351 1058 840 1040 758 c 1
 1043 758 l 1
 1050 773 1147 927 1351 927 c 0
 1693 927 1759 641 1759 423 c 0
 1759 47 1480 -33 1322 -33 c 0
 1207 -33 1081 40 1047 118 c 1
 1039 118 l 1
 1033 0 1041 -6 986 -6 c 0
 861 -6 860 -1 860 31 c 2
 860 1307 l 2
 860 1324 704 1334 685 1334 c 0
 512 1334 438 1332 438 984 c 2
 438 888 l 1
 611 891 633 892 655 892 c 0
 678 892 684 887 684 850 c 0
 684 812 678 807 652 807 c 0
 631 807 609 808 438 811 c 1
 438 79 l 1
 569 82 586 83 602 83 c 0
 623 83 629 78 629 43 c 0
 629 1 622 -3 598 -3 c 0
 572 -3 388 0 336 0 c 0
 287 0 114 -3 89 -3 c 0
 60 -3 54 1 54 40 c 0
 54 79 62 83 76 83 c 0
 92 83 113 82 238 79 c 1
 238 811 l 1
 104 809 87 808 70 808 c 0
 51 808 45 812 45 850 c 0
1038 524 m 1
 1040 325 l 1
 1072 89 1223 44 1322 44 c 0
 1480 44 1540 222 1540 427 c 0
 1540 600 1494 834 1310 834 c 0
 1264 834 1064 825 1038 524 c 1
EndSplineSet
Ligature2: "liga subtable" f b
LCarets2: 1 0 
EndChar

StartChar: f_l
Encoding: 65547 -1 98
Width: 1337
VWidth: 0
Flags: HMW
PickledData: "(dp1
S'spacing_anchors_slanted'
p2
I00
s."
HStem: 0 79<54.0059 89 598 628.979 713.005 746 1266 1293.98> 811 77<45.0044 70 652 683.996> 1334 76<529.404 896.175>
VStem: 238 200<984 1223.1> 902 200<1242 1324.33>
AnchorPoint: "l;hi" 60 1350 basechar 0
AnchorPoint: "r;x" 1307 852 basechar 0
AnchorPoint: "r;bl" 1337 40 basechar 0
AnchorPoint: "r;o" 1307 453 basechar 0
AnchorPoint: "l;x" 0 852 basechar 0
AnchorPoint: "l;bl" 0 40 basechar 0
AnchorPoint: "l;o" 0 453 basechar 0
AnchorPoint: "r;hi" 1307 1350 basechar 0
LayerCount: 3
Fore
SplineSet
45 850 m 0
 45 887 51 891 70 891 c 0
 87 891 104 890 237 888 c 1
 237 960 l 2
 237 1401 435 1410 684 1410 c 0
 788 1410 1102 1393 1102 1366 c 2
 1102 79 l 1
 1236 82 1253 83 1270 83 c 0
 1288 83 1294 78 1294 43 c 0
 1294 1 1287 -3 1266 -3 c 0
 1213 -3 1056 0 1003 0 c 0
 977 0 797 -3 746 -3 c 0
 720 -3 713 1 713 40 c 0
 713 79 720 83 736 83 c 0
 753 83 769 82 902 79 c 1
 902 1307 l 2
 902 1328 696 1334 684 1334 c 0
 511 1334 438 1302 438 984 c 2
 438 888 l 1
 611 891 673 892 695 892 c 0
 718 892 724 887 724 850 c 0
 724 812 718 807 692 807 c 0
 671 807 609 808 438 811 c 1
 438 79 l 1
 569 82 586 83 602 83 c 0
 623 83 629 78 629 43 c 0
 629 1 622 -3 598 -3 c 0
 572 -3 388 0 336 0 c 0
 287 0 114 -3 89 -3 c 0
 60 -3 54 1 54 40 c 0
 54 79 62 83 76 83 c 0
 92 83 113 82 238 79 c 1
 238 811 l 1
 104 809 87 808 70 808 c 0
 51 808 45 812 45 850 c 0
EndSplineSet
Ligature2: "liga subtable" f l
LCarets2: 1 0 
EndChar

StartChar: f_h
Encoding: 65548 -1 99
Width: 1969
VWidth: 0
Flags: HMW
PickledData: "(dp1
S'spacing_anchors_slanted'
p2
I00
s."
HStem: 0 79<54.0059 238 438 628.979 715.005 902 1102 1265.99 1385.01 1555 1755 1923.99> 811 77<45.0044 237 438 723.996> 822 106<1310.85 1519.08> 1334 76<517.816 899.603>
VStem: 238 200<79 811 888 1238.99> 902 200<79 594.973 672 1321.97> 1555 200<79 615.667>
AnchorPoint: "l;hi" 60 1350 basechar 0
AnchorPoint: "r;x" 1929 852 basechar 0
AnchorPoint: "r;bl" 1969 40 basechar 0
AnchorPoint: "r;o" 1929 453 basechar 0
AnchorPoint: "l;o" 0 453 basechar 0
AnchorPoint: "l;bl" 0 40 basechar 0
AnchorPoint: "l;x" 0 852 basechar 0
LayerCount: 3
Fore
SplineSet
45 850 m 0
 45 887 51 891 70 891 c 0
 87 891 104 890 237 888 c 1
 237 960 l 2
 237 1401 435 1410 684 1410 c 0
 788 1410 1102 1393 1102 1366 c 2
 1097 672 l 1
 1104 672 l 1
 1139 741 1258 927 1491 928 c 0
 1554 928 1717 914 1747 722 c 0
 1754 681 1753 674 1755 79 c 1
 1870 82 1884 83 1898 83 c 0
 1917 83 1924 78 1924 40 c 0
 1924 1 1917 -3 1891 -3 c 0
 1866 -3 1693 0 1644 0 c 0
 1621 0 1458 -3 1412 -3 c 0
 1392 -3 1385 1 1385 40 c 0
 1385 78 1391 83 1412 83 c 0
 1426 83 1440 82 1555 79 c 1
 1555 633 l 2
 1555 692 1551 822 1416 822 c 0
 1304 822 1197 719 1137 575 c 0
 1102 490 1100 413 1100 297 c 2
 1100 258 l 2
 1100 198 1101 139 1102 79 c 1
 1210 82 1223 82 1236 82 c 0
 1260 82 1266 77 1266 40 c 0
 1266 1 1259 -3 1227 -3 c 0
 1204 -3 1034 0 998 0 c 0
 972 0 794 -3 742 -3 c 0
 721 -3 715 0 715 40 c 0
 715 79 722 83 736 83 c 0
 753 83 765 82 902 79 c 1
 902 1307 l 2
 902 1328 696 1334 684 1334 c 0
 511 1334 438 1302 438 984 c 2
 438 888 l 1
 611 891 673 892 695 892 c 0
 718 892 724 887 724 850 c 0
 724 812 718 807 692 807 c 0
 671 807 609 808 438 811 c 1
 438 79 l 1
 569 82 586 83 602 83 c 0
 623 83 629 78 629 43 c 0
 629 1 622 -3 598 -3 c 0
 572 -3 388 0 336 0 c 0
 287 0 114 -3 89 -3 c 0
 60 -3 54 1 54 40 c 0
 54 79 62 83 76 83 c 0
 92 83 113 82 238 79 c 1
 238 811 l 1
 104 809 87 808 70 808 c 0
 51 808 45 812 45 850 c 0
EndSplineSet
Ligature2: "liga subtable" f h
LCarets2: 1 0 
EndChar

StartChar: f_k
Encoding: 65549 -1 100
Width: 1868
VWidth: 0
Flags: HMW
PickledData: "(dp1
S'spacing_anchors_slanted'
p2
I00
s."
HStem: 0 79<54.0059 238 438 628.979 727.254 902 1102 1251.64 1342.23 1474 1702 1812.64> 811 77<45.0044 237 438 723.996> 829 78<1266 1418 1558 1761.99> 1334 76<517.816 899.603>
VStem: 238 200<79 811 888 1238.99> 902 200<89 460 526 1321.97>
AnchorPoint: "l;hi" 60 1350 basechar 0
AnchorPoint: "r;x" 1817 852 basechar 0
AnchorPoint: "r;bl" 1868 40 basechar 0
AnchorPoint: "r;o" 1788 453 basechar 0
AnchorPoint: "l;o" 0 453 basechar 0
AnchorPoint: "l;bl" 0 40 basechar 0
AnchorPoint: "l;x" 0 852 basechar 0
LayerCount: 3
Fore
SplineSet
45 850 m 0
 45 887 51 891 70 891 c 0
 87 891 104 890 237 888 c 1
 237 960 l 2
 237 1401 435 1410 684 1410 c 0
 788 1410 1102 1393 1102 1366 c 2
 1102 516 l 1
 1178 516 l 1
 1418 819 l 1
 1317 816 1305 815 1292 815 c 0
 1272 815 1266 820 1266 856 c 0
 1266 890 1268 897 1308 897 c 0
 1341 897 1400 892 1504 892 c 0
 1549 892 1708 897 1731 897 c 0
 1755 897 1762 892 1762 856 c 0
 1762 820 1756 815 1731 815 c 0
 1714 815 1697 816 1558 819 c 1
 1308 515 l 1
 1702 79 l 1
 1776 82 1785 82 1794 82 c 0
 1806 82 1813 78 1813 42 c 0
 1813 2 1806 -3 1778 -3 c 0
 1758 -3 1618 0 1578 0 c 0
 1537 0 1394 -3 1373 -3 c 0
 1348 -3 1342 1 1342 40 c 0
 1342 71 1342 83 1361 83 c 0
 1372 83 1384 82 1474 79 c 1
 1194 450 l 1
 1102 450 l 1
 1102 79 l 1
 1200 82 1213 82 1225 82 c 0
 1247 82 1252 77 1252 42 c 0
 1252 2 1245 -3 1214 -3 c 0
 1193 -3 1044 0 1001 0 c 0
 976 0 800 -3 750 -3 c 0
 734 -3 727 0 727 40 c 0
 727 79 735 83 749 83 c 0
 764 83 779 82 902 79 c 1
 902 1307 l 2
 902 1328 696 1334 684 1334 c 0
 511 1334 438 1302 438 984 c 2
 438 888 l 1
 611 891 673 892 695 892 c 0
 718 892 724 887 724 850 c 0
 724 812 718 807 692 807 c 0
 671 807 609 808 438 811 c 1
 438 79 l 1
 569 82 586 83 602 83 c 0
 623 83 629 78 629 43 c 0
 629 1 622 -3 598 -3 c 0
 572 -3 388 0 336 0 c 0
 287 0 114 -3 89 -3 c 0
 60 -3 54 1 54 40 c 0
 54 79 62 83 76 83 c 0
 92 83 113 82 238 79 c 1
 238 811 l 1
 104 809 87 808 70 808 c 0
 51 808 45 812 45 850 c 0
EndSplineSet
Ligature2: "liga subtable" f k
LCarets2: 1 0 
EndChar

StartChar: f_f
Encoding: 65550 -1 101
Width: 1394
VWidth: 0
Flags: HMW
PickledData: "(dp1
S'spacing_anchors_slanted'
p2
I00
s."
HStem: 0 79<54.0059 238 438 628.979 722.006 906 1106 1296.98> 811 77<45.0044 237 438 905 1106 1352> 1304 86<548.212 811.97> 1349 73<1155.21 1289.14>
VStem: 238 200<79 811 888 1212.4> 906 200<79 811 888 1236.36> 1307 167<1161.15 1339.3>
AnchorPoint: "r;k;hi" 1484 1350 basechar 0
AnchorPoint: "l;hi" 60 1350 basechar 0
AnchorPoint: "r;x" 1394 852 basechar 0
AnchorPoint: "r;bl" 1394 40 basechar 0
AnchorPoint: "r;o" 1394 453 basechar 0
AnchorPoint: "l;o" 0 453 basechar 0
AnchorPoint: "l;bl" 0 40 basechar 0
AnchorPoint: "l;x" 0 852 basechar 0
LayerCount: 3
Fore
SplineSet
45 850 m 0
 45 887 51 891 70 891 c 0
 87 891 104 890 237 888 c 1
 237 960 l 2
 237 1275 420 1390 660 1390 c 0
 862 1390 934 1294 957 1263 c 1
 961 1263 l 1
 1010 1346 1079 1422 1243 1422 c 0
 1437 1422 1474 1311 1474 1237 c 0
 1474 1170 1425 1153 1390 1153 c 0
 1314 1154 1310 1204 1307 1254 c 0
 1304 1311 1281 1349 1226 1349 c 0
 1182 1349 1106 1323 1106 1108 c 2
 1106 888 l 1
 1279 891 1301 892 1323 892 c 0
 1346 892 1352 887 1352 850 c 0
 1352 812 1346 807 1320 807 c 0
 1299 807 1277 808 1106 811 c 1
 1106 79 l 1
 1237 82 1254 83 1270 83 c 0
 1291 83 1297 78 1297 43 c 0
 1297 1 1290 -3 1266 -3 c 0
 1240 -3 1056 0 1004 0 c 0
 955 0 782 -3 757 -3 c 0
 728 -3 722 1 722 40 c 0
 722 79 730 83 744 83 c 0
 760 83 781 82 906 79 c 1
 906 811 l 1
 734 808 712 807 692 807 c 0
 671 807 609 808 438 811 c 1
 438 79 l 1
 569 82 586 83 602 83 c 0
 623 83 629 78 629 43 c 0
 629 1 622 -3 598 -3 c 0
 572 -3 388 0 336 0 c 0
 287 0 114 -3 89 -3 c 0
 60 -3 54 1 54 40 c 0
 54 79 62 83 76 83 c 0
 92 83 113 82 238 79 c 1
 238 811 l 1
 104 809 87 808 70 808 c 0
 51 808 45 812 45 850 c 0
438 888 m 1
 611 891 673 892 695 892 c 0
 711 892 738 891 905 888 c 1
 905 1000 l 2
 905 1257 773 1304 685 1304 c 0
 565 1304 438 1236 438 984 c 2
 438 888 l 1
EndSplineSet
Ligature2: "liga subtable" f f
LCarets2: 1 0 
EndChar

StartChar: f_f_b
Encoding: 65551 -1 102
Width: 2517
VWidth: 0
Flags: HMW
PickledData: "(dp1
S'spacing_anchors_slanted'
p2
I00
s."
HStem: -33 77<1845.42 2096.89> -6 21G<74.5 101.5 311.5 362 585 610 742.5 769.5 979.5 1030 1253 1278 1591.5 1681.5> 0 79<54.0059 238 438 628.979 722.006 906 1106 1296.98> 811 77<45.0044 237 438 905 1106 1352> 834 93<1845.72 2095.67> 1304 86<548.212 814.57> 1334 76<1172.07 1524.24>
VStem: 238 200<79 811 888 1189.78> 906 200<79 811 888 1203.17> 1528 200<833.604 1321.93> 2208 219<202.636 688.149>
AnchorPoint: "l;hi" 60 1350 basechar 0
AnchorPoint: "r;o" 2517 453 basechar 0
AnchorPoint: "l;x" 0 852 basechar 0
AnchorPoint: "l;bl" 0 40 basechar 0
AnchorPoint: "l;o" 0 453 basechar 0
LayerCount: 3
Fore
SplineSet
45 850 m 0
 45 887 51 891 70 891 c 0
 87 891 104 890 237 888 c 1
 237 960 l 2
 237 1275 420 1390 660 1390 c 0
 862 1390 934 1294 957 1263 c 1
 961 1263 l 1
 1036 1398 1163 1410 1352 1410 c 0
 1500 1410 1728 1378 1728 1366 c 0
 1728 1351 1726 840 1708 758 c 1
 1711 758 l 1
 1718 773 1815 927 2019 927 c 0
 2361 927 2427 641 2427 423 c 0
 2427 47 2148 -33 1990 -33 c 0
 1875 -33 1749 40 1715 118 c 1
 1707 118 l 1
 1701 0 1709 -6 1654 -6 c 0
 1529 -6 1528 -1 1528 31 c 2
 1528 1307 l 2
 1528 1324 1372 1334 1353 1334 c 0
 1180 1334 1106 1332 1106 984 c 2
 1106 888 l 1
 1279 891 1301 892 1323 892 c 0
 1346 892 1352 887 1352 850 c 0
 1352 812 1346 807 1320 807 c 0
 1299 807 1277 808 1106 811 c 1
 1106 79 l 1
 1237 82 1254 83 1270 83 c 0
 1291 83 1297 78 1297 43 c 0
 1297 1 1290 -3 1266 -3 c 0
 1240 -3 1056 0 1004 0 c 0
 955 0 782 -3 757 -3 c 0
 728 -3 722 1 722 40 c 0
 722 79 730 83 744 83 c 0
 760 83 781 82 906 79 c 1
 906 811 l 1
 772 809 712 807 692 807 c 0
 671 807 609 808 438 811 c 1
 438 79 l 1
 569 82 586 83 602 83 c 0
 623 83 629 78 629 43 c 0
 629 1 622 -3 598 -3 c 0
 572 -3 388 0 336 0 c 0
 287 0 114 -3 89 -3 c 0
 60 -3 54 1 54 40 c 0
 54 79 62 83 76 83 c 0
 92 83 113 82 238 79 c 1
 238 811 l 1
 104 809 87 808 70 808 c 0
 51 808 45 812 45 850 c 0
438 888 m 1
 611 891 673 892 695 892 c 0
 711 892 738 891 905 888 c 1
 905 960 l 2
 905 1116 887 1304 685 1304 c 0
 565 1304 438 1236 438 984 c 2
 438 888 l 1
1706 524 m 1
 1708 325 l 1
 1740 89 1891 44 1990 44 c 0
 2148 44 2208 222 2208 427 c 0
 2208 600 2162 834 1978 834 c 0
 1932 834 1732 825 1706 524 c 1
EndSplineSet
Ligature2: "liga subtable" f f b
LCarets2: 2 0 0 
EndChar

StartChar: f_f_l
Encoding: 65552 -1 103
Width: 2005
VWidth: 0
Flags: HMW
PickledData: "(dp1
S'spacing_anchors_slanted'
p2
I00
s."
HStem: 0 79<54.0059 238 438 628.979 722.006 906 1106 1296.98 1381.01 1570 1770 1961.98> 807 85<45.0044 237 438 905 1106 1392> 1304 86<548.212 814.57> 1334 76<1184.98 1567.6>
VStem: 238 200<79 811 888 1189.78> 906 200<79 811 888 1203.97> 1570 200<79 1321.97>
AnchorPoint: "l;hi" 60 1350 basechar 0
AnchorPoint: "r;x" 1975 852 basechar 0
AnchorPoint: "r;bl" 2005 40 basechar 0
AnchorPoint: "r;o" 1975 453 basechar 0
AnchorPoint: "l;o" 0 453 basechar 0
AnchorPoint: "l;bl" 0 40 basechar 0
AnchorPoint: "l;x" 0 852 basechar 0
AnchorPoint: "r;hi" 1975 1350 basechar 0
LayerCount: 3
Fore
SplineSet
45 850 m 0
 45 887 51 891 70 891 c 0
 87 891 104 890 237 888 c 1
 237 960 l 2
 237 1275 420 1390 660 1390 c 0
 862 1390 934 1294 957 1263 c 1
 961 1263 l 1
 1036 1398 1162 1410 1352 1410 c 0
 1456 1410 1770 1393 1770 1366 c 2
 1770 79 l 1
 1904 82 1921 83 1938 83 c 0
 1956 83 1962 78 1962 43 c 0
 1962 1 1955 -3 1934 -3 c 0
 1881 -3 1724 0 1671 0 c 0
 1645 0 1465 -3 1414 -3 c 0
 1388 -3 1381 1 1381 40 c 0
 1381 79 1388 83 1404 83 c 0
 1421 83 1437 82 1570 79 c 1
 1570 1307 l 2
 1570 1328 1365 1334 1353 1334 c 0
 1190 1334 1106 1315 1106 984 c 2
 1106 888 l 1
 1279 891 1341 892 1363 892 c 0
 1386 892 1392 887 1392 850 c 0
 1392 812 1386 807 1360 807 c 0
 1339 807 1277 808 1106 811 c 1
 1106 79 l 1
 1237 82 1254 83 1270 83 c 0
 1291 83 1297 78 1297 43 c 0
 1297 1 1290 -3 1266 -3 c 0
 1240 -3 1056 0 1004 0 c 0
 955 0 782 -3 757 -3 c 0
 728 -3 722 1 722 40 c 0
 722 79 730 83 744 83 c 0
 760 83 781 82 906 79 c 1
 906 811 l 1
 772 809 712 807 692 807 c 0
 671 807 609 808 438 811 c 1
 438 79 l 1
 569 82 586 83 602 83 c 0
 623 83 629 78 629 43 c 0
 629 1 622 -3 598 -3 c 0
 572 -3 388 0 336 0 c 0
 287 0 114 -3 89 -3 c 0
 60 -3 54 1 54 40 c 0
 54 79 62 83 76 83 c 0
 92 83 113 82 238 79 c 1
 238 811 l 1
 104 809 87 808 70 808 c 0
 51 808 45 812 45 850 c 0
438 888 m 1
 611 891 673 892 695 892 c 0
 711 892 738 891 905 888 c 1
 905 960 l 2
 905 1116 887 1304 685 1304 c 0
 565 1304 438 1236 438 984 c 2
 438 888 l 1
EndSplineSet
Ligature2: "liga subtable" f f l
LCarets2: 2 0 0 
EndChar

StartChar: f_f_h
Encoding: 65553 -1 104
Width: 2637
VWidth: 0
Flags: HMW
PickledData: "(dp1
S'spacing_anchors_slanted'
p2
I00
s."
HStem: 0 79<54.0059 238 438 628.979 722.006 906 1106 1296.98 1383.01 1570 1770 1933.99 2053.01 2223 2423 2591.99> 811 77<45.0044 237 438 905 1106 1392> 822 106<1978.85 2187.08> 1304 86<548.212 814.614> 1334 76<1185.01 1567.6>
VStem: 238 200<79 811 888 1189.78> 906 200<79 811 888 1203.97> 1570 200<79 594.973 672 1321.97> 2223 200<79 615.667>
AnchorPoint: "l;hi" 60 1350 basechar 0
AnchorPoint: "r;x" 2597 852 basechar 0
AnchorPoint: "r;bl" 2637 40 basechar 0
AnchorPoint: "r;o" 2597 453 basechar 0
AnchorPoint: "l;x" 0 852 basechar 0
AnchorPoint: "l;bl" 0 40 basechar 0
AnchorPoint: "l;o" 0 453 basechar 0
LayerCount: 3
Fore
SplineSet
45 850 m 0
 45 887 51 891 70 891 c 0
 87 891 104 890 237 888 c 1
 237 960 l 2
 237 1275 420 1390 660 1390 c 0
 862 1390 934 1294 957 1263 c 1
 961 1263 l 1
 1036 1398 1162 1410 1352 1410 c 0
 1456 1410 1770 1393 1770 1366 c 2
 1765 672 l 1
 1772 672 l 1
 1807 741 1926 927 2159 928 c 0
 2222 928 2385 914 2415 722 c 0
 2422 681 2421 674 2423 79 c 1
 2538 82 2552 83 2566 83 c 0
 2585 83 2592 78 2592 40 c 0
 2592 1 2585 -3 2559 -3 c 0
 2534 -3 2361 0 2312 0 c 0
 2289 0 2126 -3 2080 -3 c 0
 2060 -3 2053 1 2053 40 c 0
 2053 78 2059 83 2080 83 c 0
 2094 83 2108 82 2223 79 c 1
 2223 633 l 2
 2223 692 2219 822 2084 822 c 0
 1972 822 1865 719 1805 575 c 0
 1770 490 1768 413 1768 297 c 2
 1768 258 l 2
 1768 198 1769 139 1770 79 c 1
 1878 82 1891 82 1904 82 c 0
 1928 82 1934 77 1934 40 c 0
 1934 1 1927 -3 1895 -3 c 0
 1872 -3 1702 0 1666 0 c 0
 1640 0 1462 -3 1410 -3 c 0
 1389 -3 1383 0 1383 40 c 0
 1383 79 1390 83 1404 83 c 0
 1421 83 1433 82 1570 79 c 1
 1570 1307 l 2
 1570 1328 1365 1334 1353 1334 c 0
 1190 1334 1106 1315 1106 984 c 2
 1106 888 l 1
 1279 891 1341 892 1363 892 c 0
 1386 892 1392 887 1392 850 c 0
 1392 812 1386 807 1360 807 c 0
 1339 807 1277 808 1106 811 c 1
 1106 79 l 1
 1237 82 1254 83 1270 83 c 0
 1291 83 1297 78 1297 43 c 0
 1297 1 1290 -3 1266 -3 c 0
 1240 -3 1056 0 1004 0 c 0
 955 0 782 -3 757 -3 c 0
 728 -3 722 1 722 40 c 0
 722 79 730 83 744 83 c 0
 760 83 781 82 906 79 c 1
 906 811 l 1
 772 809 712 807 692 807 c 0
 671 807 609 808 438 811 c 1
 438 79 l 1
 569 82 586 83 602 83 c 0
 623 83 629 78 629 43 c 0
 629 1 622 -3 598 -3 c 0
 572 -3 388 0 336 0 c 0
 287 0 114 -3 89 -3 c 0
 60 -3 54 1 54 40 c 0
 54 79 62 83 76 83 c 0
 92 83 113 82 238 79 c 1
 238 811 l 1
 104 809 87 808 70 808 c 0
 51 808 45 812 45 850 c 0
438 888 m 1
 611 891 673 892 695 892 c 0
 711 892 738 891 905 888 c 1
 905 960 l 2
 905 1116 887 1304 685 1304 c 0
 565 1304 438 1236 438 984 c 2
 438 888 l 1
EndSplineSet
Ligature2: "liga subtable" f f h
LCarets2: 2 0 0 
EndChar

StartChar: f_f_k
Encoding: 65554 -1 105
Width: 2536
VWidth: 0
Flags: HMW
PickledData: "(dp1
S'spacing_anchors_slanted'
p2
I00
s."
HStem: 0 79<54.0059 238 438 628.979 722.006 906 1106 1296.98 1395.01 1570 1770 1919.98 2010 2142 2370 2480.98> 450 66<1770 1846> 811 77<45.0044 237 438 905 1106 1392 1934.11 2086 2226 2429.88> 819 78<45.1132 237 438 905 1106 1391.88 1934.01 2086 2226 2429.98> 1304 86<548.212 814.614> 1334 76<1185.01 1567.6>
VStem: 238 200<79 811 888 1189.78> 906 200<79 811 888 1203.97> 1570 200<79 450 516 1321.97>
AnchorPoint: "l;hi" 60 1350 basechar 0
AnchorPoint: "r;x" 2485 852 basechar 0
AnchorPoint: "r;bl" 2536 40 basechar 0
AnchorPoint: "r;o" 2456 453 basechar 0
AnchorPoint: "l;o" 0 453 basechar 0
AnchorPoint: "l;bl" 0 40 basechar 0
AnchorPoint: "l;x" 0 852 basechar 0
LayerCount: 3
Fore
SplineSet
45 850 m 0
 45 887 51 891 70 891 c 0
 87 891 104 890 237 888 c 1
 237 960 l 2
 237 1275 420 1390 660 1390 c 0
 862 1390 934 1294 957 1263 c 1
 961 1263 l 1
 1036 1398 1162 1410 1352 1410 c 0
 1456 1410 1770 1393 1770 1366 c 2
 1770 516 l 1
 1846 516 l 1
 2086 819 l 1
 1985 816 1973 815 1960 815 c 0
 1940 815 1934 820 1934 856 c 0
 1934 890 1936 897 1976 897 c 0
 2009 897 2068 892 2172 892 c 0
 2217 892 2376 897 2399 897 c 0
 2423 897 2430 892 2430 856 c 0
 2430 820 2424 815 2399 815 c 0
 2382 815 2365 816 2226 819 c 1
 1976 515 l 1
 2370 79 l 1
 2444 82 2453 82 2462 82 c 0
 2474 82 2481 78 2481 42 c 0
 2481 2 2474 -3 2446 -3 c 0
 2426 -3 2286 0 2246 0 c 0
 2205 0 2062 -3 2041 -3 c 0
 2016 -3 2010 1 2010 40 c 0
 2010 71 2010 83 2029 83 c 0
 2040 83 2052 82 2142 79 c 1
 1862 450 l 1
 1770 450 l 1
 1770 79 l 1
 1868 82 1881 82 1893 82 c 0
 1915 82 1920 77 1920 42 c 0
 1920 2 1913 -3 1882 -3 c 0
 1861 -3 1712 0 1669 0 c 0
 1644 0 1468 -3 1418 -3 c 0
 1402 -3 1395 0 1395 40 c 0
 1395 79 1403 83 1417 83 c 0
 1432 83 1447 82 1570 79 c 1
 1570 1307 l 2
 1570 1328 1365 1334 1353 1334 c 0
 1190 1334 1106 1315 1106 984 c 2
 1106 888 l 1
 1279 891 1341 892 1363 892 c 0
 1386 892 1392 887 1392 850 c 0
 1392 812 1386 807 1360 807 c 0
 1339 807 1277 808 1106 811 c 1
 1106 79 l 1
 1237 82 1254 83 1270 83 c 0
 1291 83 1297 78 1297 43 c 0
 1297 1 1290 -3 1266 -3 c 0
 1240 -3 1056 0 1004 0 c 0
 955 0 782 -3 757 -3 c 0
 728 -3 722 1 722 40 c 0
 722 79 730 83 744 83 c 0
 760 83 781 82 906 79 c 1
 906 811 l 1
 772 809 712 807 692 807 c 0
 671 807 609 808 438 811 c 1
 438 79 l 1
 569 82 586 83 602 83 c 0
 623 83 629 78 629 43 c 0
 629 1 622 -3 598 -3 c 0
 572 -3 388 0 336 0 c 0
 287 0 114 -3 89 -3 c 0
 60 -3 54 1 54 40 c 0
 54 79 62 83 76 83 c 0
 92 83 113 82 238 79 c 1
 238 811 l 1
 104 809 87 808 70 808 c 0
 51 808 45 812 45 850 c 0
438 888 m 1
 611 891 673 892 695 892 c 0
 711 892 738 891 905 888 c 1
 905 960 l 2
 905 1116 887 1304 685 1304 c 0
 565 1304 438 1236 438 984 c 2
 438 888 l 1
EndSplineSet
Ligature2: "liga subtable" f f k
LCarets2: 2 0 0 
EndChar

StartChar: f_i
Encoding: 65555 -1 106
Width: 1317
VWidth: 0
Flags: HMW
PickledData: "(dp1
S'spacing_anchors_slanted'
p2
I00
s."
HStem: 0 79<54.0059 238 438 628.979 717.005 902 1102 1271.99> 811 77<45.0044 237 438 902> 1340 76<566.283 894.533>
VStem: 238 200<79 811 890 1201.88> 902 200<79 817 1135.15 1316.84>
AnchorPoint: "r;hi" 1317 1350 basechar 0
AnchorPoint: "l;hi" 60 1350 basechar 0
AnchorPoint: "r;x" 1317 852 basechar 0
AnchorPoint: "r;bl" 1317 40 basechar 0
AnchorPoint: "r;o" 1317 453 basechar 0
AnchorPoint: "l;o" 0 453 basechar 0
AnchorPoint: "l;bl" 0 40 basechar 0
AnchorPoint: "l;x" 0 852 basechar 0
LayerCount: 3
Fore
SplineSet
45 850 m 0
 45 887 51 891 70 891 c 0
 87 891 104 890 237 888 c 1
 237 960 l 2
 237 1338 466 1416 694 1416 c 0
 1039 1416 1096 1298 1096 1223 c 0
 1096 1176 1066 1115 1002 1115 c 0
 921 1115 891 1169 891 1222 c 0
 891 1253 897 1284 897 1307 c 0
 897 1328 804 1340 735 1340 c 0
 522 1340 438 1227 438 984 c 2
 438 890 l 1
 656 896 722 896 1074 896 c 0
 1094 896 1102 891 1102 874 c 2
 1102 79 l 1
 1216 82 1231 83 1245 83 c 0
 1266 83 1272 78 1272 40 c 0
 1272 1 1265 -3 1241 -3 c 0
 1139 -3 1056 0 1004 0 c 0
 967 0 822 -3 743 -3 c 0
 724 -3 717 0 717 40 c 0
 717 79 724 83 738 83 c 0
 754 83 771 82 902 79 c 1
 902 815 l 1
 741 813 619 813 508 813 c 2
 438 813 l 1
 438 79 l 1
 569 82 586 83 602 83 c 0
 623 83 629 78 629 43 c 0
 629 1 622 -3 598 -3 c 0
 572 -3 388 0 336 0 c 0
 287 0 114 -3 89 -3 c 0
 60 -3 54 1 54 40 c 0
 54 79 62 83 76 83 c 0
 92 83 113 82 238 79 c 1
 238 811 l 1
 104 809 87 808 70 808 c 0
 51 808 45 812 45 850 c 0
EndSplineSet
Ligature2: "liga subtable" f i
LCarets2: 1 0 
EndChar

StartChar: f_f_i
Encoding: 65556 -1 107
Width: 1985
VWidth: 0
Flags: HMW
PickledData: "(dp1
S'spacing_anchors_slanted'
p2
I00
s."
HStem: 0 79<54.0059 238 438 628.979 722.006 906 1106 1296.98 1385.01 1570 1770 1939.99> 811 77<45.0044 237 438 905 1106 1570> 1304 86<548.212 812.394> 1340 76<1234.73 1562.51>
VStem: 238 200<79 811 888 1189.78> 906 200<79 811 890 1203.28> 1570 200<79 817 1135.15 1317.03>
AnchorPoint: "r;hi" 1985 1350 basechar 0
AnchorPoint: "l;hi" 60 1350 basechar 0
AnchorPoint: "r;o" 1985 453 basechar 0
AnchorPoint: "r;bl" 1985 40 basechar 0
AnchorPoint: "r;x" 1985 852 basechar 0
AnchorPoint: "l;x" 0 852 basechar 0
AnchorPoint: "l;bl" 0 40 basechar 0
AnchorPoint: "l;o" 0 453 basechar 0
LayerCount: 3
Fore
SplineSet
45 850 m 0
 45 887 51 891 70 891 c 0
 87 891 104 890 237 888 c 1
 237 960 l 2
 237 1275 420 1390 660 1390 c 0
 862 1390 934 1294 957 1263 c 1
 975 1250 l 1
 1060 1382 1211 1416 1362 1416 c 0
 1707 1416 1764 1298 1764 1223 c 0
 1764 1176 1734 1115 1670 1115 c 0
 1589 1115 1559 1169 1559 1222 c 0
 1559 1253 1565 1284 1565 1307 c 0
 1565 1328 1472 1340 1403 1340 c 0
 1190 1340 1106 1227 1106 984 c 2
 1106 890 l 1
 1324 896 1390 896 1742 896 c 0
 1762 896 1770 891 1770 874 c 2
 1770 79 l 1
 1884 82 1899 83 1913 83 c 0
 1934 83 1940 78 1940 40 c 0
 1940 1 1933 -3 1909 -3 c 0
 1807 -3 1724 0 1672 0 c 0
 1635 0 1490 -3 1411 -3 c 0
 1392 -3 1385 0 1385 40 c 0
 1385 79 1392 83 1406 83 c 0
 1422 83 1439 82 1570 79 c 1
 1570 815 l 1
 1409 813 1287 813 1176 813 c 2
 1106 813 l 1
 1106 79 l 1
 1237 82 1254 83 1270 83 c 0
 1291 83 1297 78 1297 43 c 0
 1297 1 1290 -3 1266 -3 c 0
 1240 -3 1056 0 1004 0 c 0
 955 0 782 -3 757 -3 c 0
 728 -3 722 0 722 40 c 0
 722 79 730 83 744 83 c 0
 760 83 781 82 906 79 c 1
 906 811 l 1
 760 808 728 807 685 807 c 0
 645 807 595 808 438 811 c 1
 438 79 l 1
 569 82 586 83 602 83 c 0
 623 83 629 78 629 43 c 0
 629 1 622 -3 598 -3 c 0
 572 -3 388 0 336 0 c 0
 287 0 114 -3 89 -3 c 0
 60 -3 54 1 54 40 c 0
 54 79 62 83 76 83 c 0
 92 83 113 82 238 79 c 1
 238 811 l 1
 104 809 87 808 70 808 c 0
 51 808 45 812 45 850 c 0
438 888 m 1
 597 891 645 892 685 892 c 0
 728 892 761 891 905 888 c 1
 905 1000 l 2
 905 1257 773 1304 685 1304 c 0
 565 1304 438 1236 438 984 c 2
 438 888 l 1
EndSplineSet
Ligature2: "liga subtable" f f i
LCarets2: 2 0 0 
EndChar

StartChar: f_j
Encoding: 65557 -1 109
Width: 1265
VWidth: 0
Flags: HMW
PickledData: "(dp1
S'spacing_anchors_slanted'
p2
I00
s."
HStem: 0 79<54.0059 238 438 628.979> 811 77<45.0044 237 438 902> 1340 76<566.283 894.512>
VStem: 238 200<79 811 890 1201.88> 902 200<-344.706 815 1135.15 1317.03>
AnchorPoint: "r;hi" 1235 1350 basechar 0
AnchorPoint: "l;hi" 60 1350 basechar 0
AnchorPoint: "r;x" 1265 852 basechar 0
AnchorPoint: "r;bl" 1265 40 basechar 0
AnchorPoint: "r;o" 1265 453 basechar 0
AnchorPoint: "l;x" 0 852 basechar 0
AnchorPoint: "l;bl" 0 40 basechar 0
AnchorPoint: "l;o" 0 453 basechar 0
LayerCount: 3
Fore
SplineSet
45 850 m 0
 45 887 51 891 70 891 c 0
 87 891 104 890 237 888 c 1
 237 960 l 2
 237 1338 466 1416 694 1416 c 0
 1039 1416 1096 1298 1096 1223 c 0
 1096 1176 1066 1115 1002 1115 c 0
 921 1115 891 1169 891 1222 c 0
 891 1253 897 1284 897 1307 c 0
 897 1328 804 1340 735 1340 c 0
 522 1340 438 1227 438 984 c 2
 438 890 l 1
 694 897 758 895 1079 896 c 0
 1093 896 1102 894 1102 864 c 2
 1102 -70 l 2
 1102 -426 962 -486 878 -558 c 0
 864 -570 735 -650 713 -650 c 0
 702 -650 675 -614 675 -595 c 0x0680
 675 -571 716 -572 790 -494 c 0
 902 -376 902 -242 902 -146 c 2
 902 815 l 1
 817 813 723 813 641 813 c 2
 438 813 l 1
 438 79 l 1
 569 82 586 83 602 83 c 0
 623 83 629 78 629 43 c 0
 629 1 622 -3 598 -3 c 0
 572 -3 388 0 336 0 c 0
 287 0 114 -3 89 -3 c 0
 60 -3 54 1 54 40 c 0
 54 79 62 83 76 83 c 0
 92 83 113 82 238 79 c 1
 238 811 l 1
 104 809 87 808 70 808 c 0
 51 808 45 812 45 850 c 0
EndSplineSet
Ligature2: "liga subtable" f j
LCarets2: 1 0 
EndChar

StartChar: f_f_j
Encoding: 65558 -1 110
Width: 1933
VWidth: 0
Flags: HMW
PickledData: "(dp1
S'spacing_anchors_slanted'
p2
I00
s."
HStem: 0 79<54.0059 238 438 628.979 722.006 906 1106 1296.98> 811 77<45.0044 237 438 905 1106 1570> 1304 86<548.212 812.394> 1340 76<1234.73 1562.51>
VStem: 238 200<79 811 888 1189.78> 906 200<79 811 890 1203.28> 1570 200<-344.706 815 1135.15 1317.03>
AnchorPoint: "r;hi" 1903 1350 basechar 0
AnchorPoint: "l;hi" 60 1350 basechar 0
AnchorPoint: "r;o" 1933 453 basechar 0
AnchorPoint: "r;bl" 1933 40 basechar 0
AnchorPoint: "r;x" 1933 852 basechar 0
AnchorPoint: "l;o" 0 453 basechar 0
AnchorPoint: "l;bl" 0 40 basechar 0
AnchorPoint: "l;x" 0 852 basechar 0
LayerCount: 3
Fore
SplineSet
45 850 m 0
 45 887 51 891 70 891 c 0
 87 891 104 890 237 888 c 1
 237 960 l 2
 237 1275 420 1390 660 1390 c 0
 862 1390 934 1294 957 1263 c 1
 975 1250 l 1
 1060 1382 1211 1416 1362 1416 c 0
 1707 1416 1764 1298 1764 1223 c 0
 1764 1176 1734 1115 1670 1115 c 0
 1589 1115 1559 1169 1559 1222 c 0
 1559 1253 1565 1284 1565 1307 c 0
 1565 1328 1472 1340 1403 1340 c 0
 1190 1340 1106 1227 1106 984 c 2
 1106 890 l 1
 1324 896 1426 895 1747 896 c 0
 1761 896 1770 894 1770 864 c 2
 1770 -70 l 2
 1770 -426 1630 -486 1546 -558 c 0
 1532 -570 1403 -650 1381 -650 c 0
 1370 -650 1343 -614 1343 -595 c 0
 1343 -571 1384 -572 1458 -494 c 0
 1570 -376 1570 -242 1570 -146 c 2
 1570 815 l 1
 1485 813 1391 813 1309 813 c 2
 1106 813 l 1
 1106 79 l 1
 1237 82 1254 83 1270 83 c 0
 1291 83 1297 78 1297 43 c 0
 1297 1 1290 -3 1266 -3 c 0
 1240 -3 1056 0 1004 0 c 0
 955 0 782 -3 757 -3 c 0
 728 -3 722 0 722 40 c 0
 722 79 730 83 744 83 c 0
 760 83 781 82 906 79 c 1
 906 811 l 1
 760 808 728 807 685 807 c 0
 645 807 595 808 438 811 c 1
 438 79 l 1
 569 82 586 83 602 83 c 0
 623 83 629 78 629 43 c 0
 629 1 622 -3 598 -3 c 0
 572 -3 388 0 336 0 c 0
 287 0 114 -3 89 -3 c 0
 60 -3 54 1 54 40 c 0
 54 79 62 83 76 83 c 0
 92 83 113 82 238 79 c 1
 238 811 l 1
 104 809 87 808 70 808 c 0
 51 808 45 812 45 850 c 0
438 888 m 1
 597 891 645 892 685 892 c 0
 728 892 761 891 905 888 c 1
 905 1000 l 2
 905 1257 773 1304 685 1304 c 0
 565 1304 438 1236 438 984 c 2
 438 888 l 1
EndSplineSet
Ligature2: "liga subtable" f f j
LCarets2: 2 0 0 
EndChar

StartChar: bullet
Encoding: 8226 8226 116
Width: 1000
VWidth: 1050
Flags: HMW
PickledData: "(dp1
S'spacing_anchors_slanted'
p2
I00
s."
HStem: 368 618<346.04 654.707>
VStem: 191 618<517.346 831.707>
AnchorPoint: "l;x" 0 852 basechar 0
AnchorPoint: "l;o" 0 453 basechar 0
AnchorPoint: "r;x" 1000 852 basechar 0
AnchorPoint: "r;o" 1000 453 basechar 0
LayerCount: 3
Fore
SplineSet
191 677 m 0
 191 847 329 986 500 986 c 0
 670 986 809 849 809 678 c 0
 809 507 672 368 501 368 c 0
 330 368 191 506 191 677 c 0
EndSplineSet
EndChar
